<?xml version="1.0" standalone="no"?>
<!DOCTYPE svg PUBLIC "-//W3C//DTD SVG 20010904//EN"
 "http://www.w3.org/TR/2001/REC-SVG-20010904/DTD/svg10.dtd">
<svg version="1.0" xmlns="http://www.w3.org/2000/svg"
 width="200.000000pt" height="200.000000pt" viewBox="0 0 200.000000 200.000000"
 preserveAspectRatio="xMidYMid meet">

<g transform="translate(0.000000,200.000000) scale(0.100000,-0.100000)"
fill="#000000" stroke="none">
<path d="M1665 1995 c-5 -2 -22 -6 -37 -9 -15 -4 -44 -21 -64 -39 -65 -56 -89
-141 -62 -217 11 -33 10 -34 -42 -80 l-54 -47 -61 33 c-206 113 -458 75 -615
-92 -101 -109 -145 -230 -139 -387 l4 -92 -64 -23 -63 -22 -24 25 c-29 31 -99
64 -135 65 -24 0 -27 5 -36 50 -9 46 -8 52 9 61 31 16 58 70 58 115 0 32 -7
49 -33 79 -28 32 -40 38 -82 42 -158 13 -198 -195 -49 -249 24 -9 34 -18 34
-34 0 -12 2 -34 5 -50 5 -25 0 -33 -35 -57 -50 -34 -79 -93 -80 -160 0 -103
67 -182 172 -202 102 -19 228 85 228 188 0 33 2 35 68 59 l68 24 30 -49 c16
-27 55 -73 86 -101 104 -94 226 -139 367 -134 l84 3 28 -79 29 -79 -45 -39
c-24 -21 -52 -57 -61 -78 -10 -22 -25 -40 -33 -40 -39 0 -59 14 -75 52 -34 74
-120 100 -187 55 -61 -41 -77 -113 -39 -175 48 -79 173 -77 217 3 6 11 18 13
46 8 34 -5 37 -8 37 -37 0 -62 29 -133 75 -184 135 -150 370 -118 462 62 21
42 26 65 26 126 0 82 -18 131 -73 193 -16 19 -26 38 -21 43 5 5 25 41 46 79
96 178 94 175 131 175 111 0 174 120 109 206 -44 57 -132 69 -181 23 l-21 -20
-47 23 c-42 20 -47 25 -41 48 3 14 9 66 12 115 6 112 -17 201 -78 295 l-41 64
48 44 c36 31 54 41 69 37 91 -28 131 -27 197 7 21 10 50 37 65 60 24 36 28 52
28 113 0 61 -4 77 -28 113 -15 23 -44 50 -65 61 -37 18 -108 33 -127 26z m95
-76 c48 -27 70 -66 70 -124 0 -59 -22 -97 -73 -125 -92 -52 -207 17 -207 126
0 51 33 103 80 126 46 24 84 23 130 -3z m-558 -354 c108 -32 199 -111 246
-213 23 -50 26 -70 26 -157 0 -82 -4 -109 -23 -150 -47 -104 -129 -177 -239
-214 -257 -87 -522 126 -499 400 20 238 262 403 489 334z m-925 -167 c30 -28
38 -70 19 -107 -30 -57 -94 -68 -145 -25 -25 20 -31 34 -31 64 0 87 93 127
157 68z m76 -362 c47 -20 78 -58 84 -104 7 -53 -1 -84 -33 -121 -54 -65 -154
-63 -213 4 -26 30 -31 44 -31 86 0 69 20 105 77 134 35 19 74 19 116 1z m1488
-65 c48 -49 34 -112 -32 -147 -89 -45 -174 78 -103 150 38 38 95 36 135 -3z
m-193 -75 c1 -20 9 -47 17 -60 15 -23 13 -30 -57 -155 -72 -130 -73 -131 -103
-125 -16 4 -48 9 -70 13 -38 6 -40 8 -67 81 -34 91 -34 104 -5 117 40 18 131
109 162 161 l30 50 45 -23 c40 -20 45 -27 48 -59z m-133 -443 c60 -42 88 -103
82 -181 -4 -51 -11 -71 -34 -100 -58 -73 -164 -102 -236 -66 -129 65 -160 212
-68 315 67 74 175 88 256 32z m-545 12 c56 -29 67 -93 24 -144 -33 -40 -89
-43 -130 -8 -50 43 -32 132 31 158 30 12 43 11 75 -6z"/>
</g>
</svg>
