<svg id="svg" version="1.1" xmlns="http://www.w3.org/2000/svg" xmlns:xlink="http://www.w3.org/1999/xlink" width="400" height="173.91304347826087" viewBox="0, 0, 400,173.91304347826087"><g id="svgg"><path id="path0" d="M118.913 55.783 C 121.807 55.809,126.541 55.809,129.435 55.783 C 132.328 55.756,129.961 55.734,124.174 55.734 C 118.387 55.734,116.020 55.756,118.913 55.783 M242.652 55.783 C 245.498 55.809,250.154 55.809,253.000 55.783 C 255.846 55.756,253.517 55.734,247.826 55.734 C 242.135 55.734,239.807 55.756,242.652 55.783 M120.704 59.000 C 120.617 59.215,120.425 59.939,120.278 60.609 C 119.813 62.723,119.101 65.958,118.841 67.130 C 118.703 67.752,118.477 68.809,118.338 69.478 C 118.199 70.148,118.010 71.009,117.918 71.391 C 117.825 71.774,117.472 73.378,117.132 74.957 C 116.793 76.535,116.402 78.296,116.264 78.870 C 116.126 79.443,115.735 81.204,115.395 82.783 C 115.054 84.361,114.666 86.122,114.532 86.696 C 114.397 87.270,114.161 88.326,114.007 89.043 C 113.662 90.645,113.109 93.125,112.785 94.522 C 112.653 95.096,112.427 96.113,112.283 96.783 C 112.140 97.452,111.860 98.743,111.662 99.652 C 111.463 100.561,111.182 101.852,111.037 102.522 C 110.893 103.191,110.626 104.404,110.446 105.217 C 110.265 106.030,109.984 107.322,109.821 108.087 C 109.657 108.852,109.428 109.791,109.311 110.174 C 108.948 111.359,108.688 111.304,114.689 111.304 C 118.837 111.304,120.171 111.253,120.300 111.087 C 120.438 110.910,122.995 99.828,123.480 97.304 C 123.554 96.922,123.771 95.904,123.962 95.043 C 124.153 94.183,124.516 92.539,124.768 91.391 C 125.303 88.954,125.637 87.480,126.008 85.915 C 126.155 85.294,126.396 84.200,126.544 83.483 C 126.992 81.316,125.902 81.542,135.619 81.601 C 145.051 81.658,144.721 81.615,145.671 82.902 C 146.535 84.072,146.559 84.597,145.889 87.565 C 145.695 88.426,145.394 89.757,145.221 90.522 C 145.049 91.287,144.777 92.539,144.617 93.304 C 144.313 94.763,143.954 96.420,143.562 98.174 C 143.434 98.748,143.165 100.000,142.964 100.957 C 142.764 101.913,142.526 102.972,142.435 103.310 C 142.344 103.648,142.152 104.509,142.010 105.223 C 141.867 105.937,141.520 107.493,141.239 108.681 C 140.548 111.605,139.972 111.317,146.398 111.263 L 151.888 111.217 152.038 110.696 C 152.120 110.409,152.292 109.665,152.420 109.043 C 152.705 107.657,154.204 100.871,154.437 99.913 C 154.588 99.291,154.908 97.858,155.759 94.000 C 155.906 93.330,156.134 92.313,156.264 91.739 C 156.395 91.165,156.619 90.148,156.763 89.478 C 156.907 88.809,157.273 87.165,157.577 85.826 C 158.151 83.291,158.221 82.956,158.694 80.522 C 159.573 75.998,157.421 72.719,153.217 72.179 C 152.500 72.086,146.843 72.008,140.647 72.005 C 127.895 71.999,129.022 72.153,129.388 70.469 C 129.507 69.924,129.703 69.009,129.825 68.435 C 129.946 67.861,130.338 66.100,130.695 64.522 C 131.052 62.943,131.446 61.143,131.570 60.522 C 131.693 59.900,131.811 59.313,131.831 59.217 C 131.957 58.614,131.911 58.609,126.344 58.609 L 120.862 58.609 120.704 59.000 M244.522 59.000 C 244.431 59.215,244.156 60.330,243.912 61.478 C 243.667 62.626,243.356 64.035,243.220 64.609 C 243.084 65.183,242.803 66.435,242.595 67.391 C 242.387 68.348,242.082 69.717,241.917 70.435 L 241.617 71.739 228.852 71.826 C 214.849 71.921,216.112 71.827,213.882 72.951 C 210.802 74.505,208.884 77.103,208.099 80.783 C 207.977 81.357,207.666 82.765,207.408 83.913 C 207.150 85.061,206.826 86.509,206.688 87.130 C 206.550 87.752,206.278 88.965,206.085 89.826 C 205.891 90.687,205.613 91.939,205.467 92.609 C 205.321 93.278,205.094 94.296,204.962 94.870 C 204.615 96.383,204.261 97.975,203.555 101.217 C 202.410 106.470,203.193 109.091,206.393 110.712 L 207.391 111.217 225.688 111.263 C 243.756 111.308,243.988 111.305,244.169 110.965 C 244.270 110.776,244.458 110.091,244.586 109.441 C 244.715 108.792,245.187 106.617,245.635 104.609 C 246.084 102.600,246.563 100.448,246.701 99.826 C 247.623 95.658,247.889 94.431,248.021 93.739 C 248.102 93.309,248.286 92.487,248.429 91.913 C 248.572 91.339,248.967 89.578,249.308 88.000 C 249.648 86.422,250.040 84.661,250.179 84.087 C 250.318 83.513,250.707 81.752,251.044 80.174 C 251.381 78.596,251.768 76.835,251.905 76.261 C 252.042 75.687,252.274 74.670,252.421 74.000 C 252.568 73.330,252.932 71.687,253.230 70.348 C 253.528 69.009,253.839 67.600,253.921 67.217 C 254.004 66.835,254.235 65.778,254.436 64.870 C 254.637 63.961,254.912 62.670,255.047 62.000 C 255.182 61.330,255.373 60.509,255.472 60.175 C 255.571 59.841,255.652 59.352,255.652 59.088 L 255.652 58.609 250.170 58.609 L 244.688 58.609 244.522 59.000 M162.748 72.126 C 162.599 72.296,162.389 72.904,162.281 73.478 C 162.174 74.052,161.931 75.187,161.742 76.000 C 161.068 78.895,160.824 80.094,160.804 80.609 L 160.783 81.130 176.014 81.217 L 191.245 81.304 192.078 81.826 C 193.625 82.794,194.232 85.130,193.305 86.546 L 193.035 86.957 179.691 86.957 C 164.054 86.957,164.529 86.901,161.656 89.048 C 158.944 91.074,158.051 92.791,156.868 98.261 C 156.672 99.170,156.398 100.383,156.260 100.957 C 154.958 106.380,156.039 109.622,159.590 110.951 C 160.807 111.406,198.736 111.519,199.110 111.068 C 199.217 110.939,199.373 110.489,199.456 110.068 C 199.634 109.168,200.423 105.576,200.770 104.087 C 201.255 102.010,201.730 99.878,202.088 98.174 C 202.289 97.217,202.524 96.161,202.610 95.826 C 202.744 95.304,203.204 93.208,204.460 87.391 C 204.604 86.722,204.833 85.704,204.968 85.130 C 206.971 76.601,206.580 74.492,202.609 72.414 L 201.652 71.913 182.335 71.865 C 164.018 71.820,163.004 71.833,162.748 72.126 M262.783 72.110 C 257.440 72.654,254.072 76.102,252.783 82.348 C 252.644 83.017,252.254 84.778,251.916 86.261 C 251.577 87.743,251.186 89.504,251.047 90.174 C 250.908 90.843,250.629 92.135,250.426 93.043 C 250.224 93.952,249.983 95.119,249.892 95.636 C 249.800 96.153,249.686 96.641,249.637 96.719 C 249.589 96.798,249.445 97.392,249.318 98.040 C 249.191 98.687,248.889 100.117,248.647 101.217 C 247.944 104.413,247.883 105.001,248.115 106.375 C 248.565 109.050,250.054 110.743,252.569 111.439 C 253.700 111.752,281.781 111.915,284.174 111.622 C 289.167 111.011,292.388 107.774,293.659 102.087 C 293.819 101.370,294.056 100.313,294.186 99.739 C 294.839 96.850,296.070 91.258,296.274 90.261 C 296.401 89.639,296.617 88.622,296.754 88.000 C 296.892 87.378,297.211 85.930,297.464 84.783 C 297.717 83.635,298.058 82.148,298.223 81.478 C 299.322 77.004,297.702 73.426,294.087 72.343 C 293.357 72.125,264.732 71.911,262.783 72.110 M309.826 72.169 C 305.114 72.754,300.348 77.388,300.348 81.384 C 300.348 81.539,300.240 82.093,300.109 82.616 C 299.879 83.528,299.687 84.381,298.681 88.957 C 298.052 91.815,297.821 92.859,297.390 94.783 C 297.035 96.368,296.710 97.853,295.747 102.305 C 294.688 107.197,296.119 110.405,299.815 111.424 C 301.577 111.910,331.308 111.909,333.043 111.422 C 334.337 111.060,335.737 110.326,336.870 109.417 C 339.783 107.078,340.159 106.177,342.186 96.696 C 342.421 95.596,342.689 94.419,342.781 94.081 C 342.873 93.743,343.066 92.882,343.211 92.168 C 343.356 91.454,343.592 90.361,343.737 89.739 C 344.053 88.383,344.639 85.733,344.968 84.174 C 345.099 83.552,345.365 82.308,345.559 81.408 C 346.565 76.758,345.098 73.478,341.523 72.385 C 340.529 72.081,312.096 71.887,309.826 72.169 M349.749 72.330 C 349.648 72.519,349.565 72.849,349.565 73.064 C 349.565 73.279,349.450 73.891,349.309 74.423 C 349.169 74.956,348.772 76.683,348.428 78.261 C 348.084 79.839,347.694 81.600,347.562 82.174 C 347.430 82.748,347.042 84.509,346.701 86.087 C 346.360 87.665,346.005 89.233,345.914 89.571 C 345.822 89.909,345.631 90.770,345.488 91.484 C 345.345 92.198,345.113 93.291,344.972 93.913 C 344.832 94.535,344.548 95.787,344.342 96.696 C 344.136 97.604,343.868 98.817,343.745 99.391 C 343.143 102.206,342.404 105.542,342.261 106.087 C 342.174 106.422,341.823 108.026,341.482 109.652 C 341.140 111.278,340.747 113.078,340.607 113.652 C 340.302 114.902,339.360 119.158,338.532 123.020 C 338.100 125.035,337.641 124.870,343.658 124.870 C 348.987 124.870,349.565 124.805,349.565 124.208 C 349.565 124.042,349.763 123.047,350.005 121.997 C 350.247 120.946,350.517 119.735,350.605 119.304 C 351.298 115.939,352.182 112.287,352.355 112.078 C 352.534 111.863,354.271 111.825,364.326 111.822 C 377.593 111.817,377.695 111.808,380.186 110.508 C 381.991 109.566,383.885 107.652,384.733 105.913 C 385.534 104.271,385.463 104.558,388.443 90.913 C 388.783 89.359,389.167 87.617,389.296 87.043 C 389.426 86.470,389.667 85.374,389.831 84.609 C 389.996 83.843,390.288 82.591,390.480 81.826 C 391.671 77.080,390.243 73.706,386.489 72.393 C 385.073 71.898,350.012 71.838,349.749 72.330 M239.309 81.484 C 239.478 81.688,239.486 81.901,239.341 82.397 C 239.237 82.752,238.949 83.983,238.701 85.130 C 238.453 86.278,238.139 87.687,238.005 88.261 C 237.870 88.835,237.641 89.852,237.496 90.522 C 236.760 93.917,236.409 95.491,235.649 98.806 C 235.459 99.632,235.304 100.439,235.304 100.598 C 235.304 100.757,235.185 101.118,235.039 101.400 L 234.774 101.913 226.282 101.913 L 217.791 101.913 217.064 101.386 C 215.649 100.361,215.296 99.240,215.747 97.208 C 215.906 96.496,216.135 95.443,216.258 94.870 C 216.380 94.296,216.772 92.535,217.128 90.957 C 217.484 89.378,217.884 87.581,218.017 86.964 C 218.487 84.775,218.943 83.844,220.025 82.860 C 221.834 81.216,221.645 81.244,231.066 81.230 C 238.068 81.219,239.116 81.251,239.309 81.484 M284.537 82.174 C 286.120 83.289,286.328 84.378,285.567 87.558 C 285.268 88.806,284.508 92.298,283.730 96.000 C 283.072 99.135,282.057 100.726,280.070 101.739 L 279.217 102.174 271.312 102.227 C 259.622 102.306,259.604 102.291,261.499 94.087 C 261.643 93.465,261.869 92.448,262.002 91.826 C 262.135 91.204,262.358 90.187,262.498 89.565 C 262.637 88.943,262.876 87.848,263.028 87.130 C 263.543 84.707,264.503 83.227,266.137 82.337 C 267.483 81.605,267.625 81.595,276.029 81.625 L 283.797 81.652 284.537 82.174 M331.831 82.115 C 333.772 83.256,333.781 84.202,331.921 92.087 C 331.786 92.661,331.510 93.913,331.309 94.870 C 330.403 99.184,329.740 100.414,327.682 101.604 L 326.696 102.174 318.842 102.228 C 310.331 102.288,309.968 102.256,308.966 101.376 C 307.714 100.277,307.625 99.402,308.420 96.000 C 308.677 94.900,308.953 93.687,309.034 93.304 C 309.115 92.922,309.345 91.865,309.544 90.957 C 309.743 90.048,310.057 88.600,310.243 87.739 C 310.885 84.752,311.877 83.146,313.652 82.216 C 314.783 81.624,315.218 81.597,323.304 81.625 L 331.043 81.652 331.831 82.115 M376.898 82.178 C 378.373 83.207,378.594 84.766,377.762 88.261 C 377.290 90.245,377.031 91.396,376.255 94.957 C 375.295 99.360,374.551 100.681,372.435 101.739 L 371.565 102.174 363.202 102.225 C 353.836 102.282,354.259 102.338,354.593 101.100 C 354.691 100.734,354.934 99.691,355.132 98.783 C 355.847 95.508,356.031 94.679,356.271 93.652 C 356.405 93.078,356.794 91.317,357.135 89.739 C 357.476 88.161,357.862 86.439,357.994 85.913 C 358.126 85.387,358.369 84.291,358.535 83.478 C 358.701 82.665,358.915 81.899,359.011 81.775 C 359.151 81.595,360.886 81.560,367.665 81.601 L 376.144 81.652 376.898 82.178 M190.858 96.579 C 191.160 96.800,191.161 96.865,190.884 98.014 C 190.725 98.676,190.509 99.609,190.405 100.087 C 190.301 100.565,190.161 101.152,190.093 101.391 L 189.971 101.826 179.836 101.871 L 169.701 101.916 169.036 101.251 C 167.654 99.868,168.332 97.775,170.489 96.772 L 171.391 96.351 180.967 96.350 C 188.658 96.348,190.604 96.393,190.858 96.579 " stroke="none" fill="#63c6f1" fill-rule="evenodd"></path><path id="path1" d="M57.391 35.774 C 54.837 36.584,53.269 37.995,52.050 40.582 C 51.295 42.183,51.676 42.439,52.541 40.913 C 53.252 39.657,55.437 37.455,56.696 36.727 C 58.486 35.692,58.737 35.347,57.391 35.774 M71.565 35.658 C 69.652 35.900,67.961 36.177,67.803 36.275 C 67.718 36.328,67.094 36.525,66.418 36.712 C 60.747 38.284,56.642 40.905,53.440 45.000 C 52.688 45.963,52.166 46.470,51.855 46.541 C 49.495 47.078,48.775 47.528,45.699 50.387 L 43.832 52.122 41.786 52.501 C 30.728 54.550,24.018 58.540,19.453 65.780 C 18.281 67.639,17.872 68.149,17.347 68.406 C 16.955 68.598,16.696 68.848,16.696 69.037 C 16.696 69.388,15.041 70.609,14.564 70.609 C 14.171 70.609,14.181 70.300,14.605 69.367 C 14.794 68.950,14.951 68.359,14.953 68.054 C 14.959 67.203,15.291 67.161,15.943 67.928 C 16.634 68.739,16.722 68.661,17.044 66.954 C 17.304 65.578,17.064 63.946,16.496 63.224 C 16.078 62.693,16.089 62.149,16.538 61.134 C 17.163 59.720,16.398 59.684,13.913 61.010 C 9.082 63.587,7.040 67.389,8.857 70.424 C 9.233 71.052,9.664 71.996,9.816 72.522 C 10.484 74.834,11.464 75.767,13.537 76.063 C 15.323 76.318,15.156 75.821,15.213 81.075 C 15.240 83.592,15.320 85.988,15.389 86.398 C 15.651 87.938,14.649 90.056,12.751 91.977 C 9.571 95.192,9.565 95.200,9.565 96.077 C 9.565 101.083,14.980 106.700,20.259 107.171 C 20.938 107.232,21.003 107.615,20.523 108.730 C 19.124 111.984,20.123 113.645,24.261 114.942 C 24.930 115.152,25.752 115.411,26.087 115.517 C 30.395 116.883,34.679 117.152,36.290 116.156 C 37.397 115.472,38.087 113.670,38.087 111.464 C 38.087 110.117,38.307 109.569,39.726 107.391 C 40.515 106.181,40.519 106.165,40.521 104.648 C 40.522 102.877,40.693 102.695,42.097 102.966 C 42.522 103.048,43.515 103.119,44.304 103.123 C 45.900 103.131,46.068 103.284,45.288 104.013 C 43.221 105.944,45.063 111.305,49.357 115.856 C 52.571 119.263,56.750 118.881,59.456 114.935 C 60.212 113.832,63.752 110.771,64.427 110.637 C 64.590 110.604,65.284 110.722,65.970 110.897 C 67.831 111.374,74.956 111.368,76.335 110.888 C 78.394 110.173,79.387 107.434,78.446 105.065 C 78.148 104.315,78.057 103.628,77.985 101.587 C 77.851 97.807,77.677 96.970,76.239 93.217 C 76.000 92.596,75.693 91.879,75.555 91.625 C 74.752 90.146,75.396 90.147,76.953 91.627 C 79.745 94.279,81.052 94.957,83.371 94.957 C 87.154 94.957,90.922 92.043,91.551 88.633 C 91.732 87.652,92.389 87.054,93.098 87.225 C 95.680 87.848,101.012 87.281,103.981 86.068 C 106.314 85.115,106.291 85.105,105.837 86.916 C 105.437 88.509,105.085 90.046,104.694 91.913 C 104.494 92.870,104.224 94.083,104.094 94.609 C 103.853 95.581,103.604 96.692,102.960 99.652 C 102.762 100.561,102.492 101.774,102.360 102.348 C 102.227 102.922,101.990 103.978,101.833 104.696 C 101.676 105.413,101.353 106.861,101.114 107.913 C 100.876 108.965,100.562 110.374,100.418 111.043 C 100.274 111.713,100.039 112.718,99.895 113.276 C 99.695 114.057,99.682 114.348,99.839 114.537 C 100.173 114.940,121.947 114.900,122.282 114.496 C 122.413 114.339,122.811 112.910,123.168 111.322 C 123.791 108.543,124.006 107.601,124.617 104.957 C 124.772 104.287,125.008 103.230,125.143 102.609 C 125.278 101.987,125.541 100.813,125.728 100.000 C 125.914 99.187,126.154 98.130,126.261 97.652 C 126.653 95.892,126.974 94.496,127.221 93.478 C 127.447 92.542,127.882 90.611,128.612 87.304 C 128.749 86.683,128.964 85.822,129.090 85.391 L 129.319 84.609 133.312 84.566 C 135.508 84.543,137.415 84.594,137.550 84.681 C 137.823 84.856,137.773 85.157,136.613 90.261 C 135.930 93.267,135.600 94.758,135.304 96.174 C 135.194 96.700,134.994 97.561,134.859 98.087 C 134.610 99.057,133.595 103.551,133.444 104.348 C 133.345 104.868,132.567 108.393,132.253 109.739 C 132.131 110.265,131.935 111.165,131.819 111.739 C 131.702 112.313,131.500 113.127,131.370 113.549 C 131.193 114.120,131.183 114.375,131.329 114.551 C 131.493 114.749,143.800 114.778,207.980 114.734 L 284.435 114.682 285.907 114.291 C 286.716 114.075,287.834 113.695,288.391 113.445 L 289.403 112.991 290.658 113.606 C 291.911 114.221,292.493 114.452,293.478 114.725 C 293.765 114.805,302.413 114.870,312.696 114.870 L 331.391 114.870 331.371 115.478 C 331.349 116.139,331.174 117.099,330.611 119.652 C 330.410 120.561,330.087 122.048,329.893 122.957 C 329.699 123.865,329.421 125.157,329.275 125.826 C 329.129 126.496,328.997 127.200,328.983 127.391 C 328.950 127.827,351.267 128.043,351.604 127.610 C 351.698 127.490,351.871 126.922,351.990 126.348 C 352.621 123.299,353.390 119.792,353.821 118.000 C 353.958 117.426,354.120 116.631,354.179 116.233 C 354.384 114.848,353.602 114.938,365.766 114.889 C 376.418 114.846,376.633 114.839,378.000 114.454 C 382.792 113.104,386.854 109.435,388.319 105.130 C 388.745 103.878,388.846 103.480,389.632 99.913 C 389.885 98.765,390.199 97.357,390.331 96.783 C 390.463 96.209,390.705 95.113,390.870 94.348 C 391.035 93.583,391.310 92.330,391.480 91.565 C 391.651 90.800,391.959 89.391,392.165 88.435 C 392.371 87.478,392.607 86.461,392.688 86.174 C 392.770 85.887,392.885 85.339,392.944 84.957 C 393.004 84.574,393.163 83.791,393.297 83.217 C 395.063 75.694,393.788 71.635,389.074 69.772 C 386.720 68.842,387.321 68.853,343.826 68.907 L 303.565 68.957 301.687 69.605 C 300.653 69.962,299.638 70.373,299.430 70.518 C 298.899 70.890,298.534 70.850,297.706 70.327 C 297.309 70.076,296.430 69.665,295.753 69.414 L 294.522 68.957 275.652 68.870 L 256.783 68.783 256.794 68.087 C 256.805 67.434,256.993 66.484,257.916 62.435 C 258.124 61.526,258.394 60.313,258.517 59.739 C 258.641 59.165,258.875 58.083,259.039 57.334 C 259.202 56.586,259.299 55.937,259.256 55.893 C 258.964 55.602,236.772 55.826,236.576 56.123 C 236.396 56.395,236.002 58.033,235.478 60.696 C 235.393 61.126,235.160 62.183,234.960 63.043 C 234.759 63.904,234.447 65.313,234.266 66.174 C 233.845 68.172,233.778 68.334,233.329 68.433 C 233.124 68.479,228.104 68.546,222.174 68.582 C 210.783 68.652,211.297 68.618,208.776 69.471 C 208.301 69.631,207.488 69.992,206.969 70.273 C 205.798 70.905,205.599 70.906,204.568 70.277 C 204.112 70.000,203.191 69.589,202.522 69.364 L 201.304 68.957 167.080 68.908 C 135.853 68.864,132.845 68.835,132.748 68.581 C 132.689 68.427,132.769 67.784,132.926 67.151 C 133.083 66.518,133.490 64.787,133.830 63.304 C 134.740 59.338,134.900 58.650,135.237 57.264 C 135.406 56.573,135.498 55.962,135.443 55.907 C 135.387 55.851,130.501 55.810,124.584 55.816 C 112.319 55.828,113.141 55.929,112.602 54.346 C 111.520 51.172,111.089 50.453,109.695 49.493 C 107.363 47.888,105.583 48.345,103.585 51.064 C 101.481 53.928,100.056 54.559,99.215 53.000 C 97.608 50.019,96.142 48.459,92.692 46.051 C 91.498 45.218,89.529 43.677,88.317 42.626 C 81.686 36.881,77.071 34.961,71.565 35.658 M53.082 36.453 C 52.541 36.880,51.669 38.270,51.953 38.253 C 52.391 38.227,54.500 36.003,54.087 36.003 C 53.848 36.004,53.396 36.206,53.082 36.453 M75.412 37.826 C 77.245 38.135,79.419 38.833,80.515 39.463 C 80.949 39.712,81.517 40.025,81.777 40.158 C 82.343 40.448,85.436 42.886,86.331 43.748 C 86.436 43.849,87.148 44.426,87.913 45.031 C 89.463 46.256,89.634 46.466,89.479 46.954 C 89.367 47.306,89.418 47.330,90.719 47.545 C 92.439 47.830,94.788 49.889,96.304 52.440 C 97.528 54.499,97.497 54.689,96.008 54.243 C 95.441 54.073,95.218 54.112,94.075 54.578 C 93.364 54.869,92.633 55.131,92.449 55.162 C 91.981 55.240,91.911 55.600,92.338 55.736 C 92.534 55.798,92.744 56.044,92.804 56.283 C 92.884 56.602,92.987 56.684,93.195 56.593 C 94.249 56.131,95.304 56.573,95.304 57.475 C 95.304 57.711,95.134 58.013,94.913 58.169 C 94.373 58.549,94.757 58.776,95.944 58.780 C 96.982 58.783,97.391 59.078,97.391 59.824 C 97.391 60.406,97.142 60.532,96.460 60.298 C 94.275 59.547,91.652 60.900,90.670 63.286 C 89.886 65.192,90.223 65.555,91.155 63.807 C 91.809 62.579,92.833 61.635,93.791 61.377 C 94.651 61.146,94.732 61.236,94.297 61.947 C 93.604 63.081,92.868 66.957,93.346 66.957 C 93.539 66.957,93.700 66.584,94.249 64.864 C 94.723 63.380,95.303 62.552,96.266 61.988 C 98.268 60.814,98.497 62.237,97.441 69.284 C 97.283 70.337,97.724 70.001,98.102 68.780 C 99.114 65.508,99.256 63.690,98.945 57.934 C 98.932 57.690,99.109 57.347,99.374 57.100 C 99.623 56.870,99.826 56.605,99.826 56.512 C 99.826 56.419,100.198 56.178,100.652 55.976 C 102.878 54.987,103.385 54.665,104.158 53.746 C 106.823 50.577,107.099 50.421,108.430 51.320 C 111.370 53.304,113.227 66.254,111.500 72.729 C 109.275 81.074,104.293 85.303,96.696 85.298 C 92.575 85.295,85.693 83.544,82.897 81.787 C 81.972 81.205,81.759 81.333,81.917 82.373 C 82.065 83.352,81.869 85.151,81.461 86.556 C 80.569 89.624,81.347 91.589,83.586 91.925 C 85.187 92.165,85.463 91.697,83.992 91.238 C 82.490 90.770,82.741 90.522,84.718 90.522 C 87.082 90.522,87.899 89.909,88.504 87.681 C 88.931 86.112,89.052 85.960,89.695 86.192 C 90.220 86.382,90.227 86.452,89.854 87.782 C 88.966 90.940,86.609 92.958,83.826 92.942 C 81.867 92.930,80.868 92.385,77.837 89.669 C 75.450 87.530,75.181 87.333,74.288 87.068 C 73.166 86.734,71.316 85.856,69.801 84.936 C 68.543 84.172,68.174 84.036,68.174 84.334 C 68.174 84.676,70.703 86.778,71.758 87.314 C 73.192 88.042,73.268 88.144,73.124 89.163 C 72.604 92.856,70.208 99.347,68.136 102.680 C 65.970 106.164,65.566 106.603,61.773 109.607 C 59.817 111.156,57.972 112.729,57.674 113.101 C 55.531 115.773,54.501 116.268,52.773 115.456 C 50.671 114.467,47.176 109.309,46.992 106.923 C 46.907 105.809,47.181 105.415,48.536 104.709 C 48.910 104.514,49.809 103.962,50.534 103.482 C 52.011 102.503,52.163 102.465,52.609 102.957 C 53.117 103.518,53.133 103.439,53.132 100.391 C 53.130 97.117,53.018 96.898,52.326 98.812 C 52.075 99.506,51.723 100.165,51.543 100.277 C 50.791 100.748,46.121 101.066,43.105 100.851 C 39.695 100.609,39.583 100.558,39.335 99.149 C 38.848 96.384,38.623 96.900,38.616 100.800 C 38.608 105.043,38.644 104.891,36.972 107.739 L 35.748 109.826 35.631 111.501 C 35.408 114.691,33.972 115.084,28.000 113.589 C 22.797 112.287,22.129 111.618,23.110 108.692 C 23.383 107.877,23.661 106.938,23.727 106.605 C 23.792 106.272,23.952 105.530,24.083 104.957 C 24.555 102.871,24.568 102.062,24.140 101.391 C 17.650 91.230,15.454 80.982,18.178 73.565 C 21.568 64.333,28.023 58.273,36.957 55.936 C 42.578 54.466,42.551 54.429,38.947 58.620 C 35.831 62.245,34.742 63.848,32.996 67.391 C 31.750 69.918,31.373 71.312,31.654 72.355 C 32.004 73.655,32.270 74.111,34.545 77.304 C 35.227 78.261,36.038 79.575,36.349 80.225 L 36.913 81.406 36.509 82.660 C 36.287 83.349,36.074 84.465,36.035 85.140 L 35.965 86.367 37.709 88.025 C 41.760 91.876,44.826 92.173,50.174 89.231 C 54.846 86.661,57.562 85.563,59.853 85.317 C 61.339 85.158,61.314 85.183,61.977 83.205 C 63.072 79.941,63.417 75.781,62.867 72.460 C 62.723 71.585,62.487 70.165,62.345 69.304 C 61.770 65.843,61.409 63.127,61.297 61.427 C 61.223 60.308,61.111 59.659,60.997 59.697 C 60.193 59.965,60.091 65.945,60.810 70.638 C 61.621 75.930,61.421 79.932,60.224 82.377 C 59.698 83.450,59.626 83.493,57.614 83.903 C 55.844 84.264,54.113 85.005,50.434 86.975 C 44.776 90.006,42.301 89.964,39.234 86.787 C 37.937 85.444,37.784 85.029,38.083 83.677 C 38.379 82.340,42.466 74.508,43.305 73.669 C 43.400 73.574,43.476 73.335,43.473 73.139 C 43.466 72.672,42.682 73.548,40.327 76.652 C 38.322 79.295,38.160 79.374,37.503 78.043 C 37.254 77.541,36.429 76.300,35.668 75.285 C 32.993 71.714,33.163 69.975,36.724 64.491 C 37.784 62.858,45.782 53.745,48.472 51.105 C 51.088 48.537,50.803 48.658,56.435 47.735 C 58.811 47.345,59.178 47.248,59.266 46.984 C 59.326 46.804,58.937 46.768,57.372 46.813 C 54.903 46.884,54.854 46.788,56.430 44.981 C 59.542 41.413,66.297 38.343,72.348 37.746 C 73.065 37.676,73.701 37.606,73.760 37.591 C 73.819 37.577,74.563 37.683,75.412 37.826 M59.043 51.057 C 58.852 51.086,57.458 51.243,55.946 51.407 C 51.804 51.856,50.982 52.723,48.859 58.880 C 47.688 62.276,47.980 62.855,49.293 59.739 C 50.559 56.735,52.063 54.261,52.624 54.261 C 52.916 54.261,52.920 54.366,52.687 55.802 C 52.410 57.510,52.992 58.909,53.299 57.272 C 53.461 56.408,54.134 55.103,55.097 53.785 C 55.940 52.631,56.113 52.533,58.435 51.901 C 59.953 51.487,60.294 51.313,59.980 51.114 C 59.739 50.962,59.690 50.959,59.043 51.057 M73.957 51.299 C 71.552 52.391,69.860 55.143,70.759 56.501 C 70.961 56.806,71.304 56.602,71.304 56.176 C 71.304 55.173,72.781 53.042,74.217 51.973 C 75.547 50.983,75.414 50.638,73.957 51.299 M106.933 52.991 C 105.765 54.689,103.537 56.433,102.000 56.853 C 100.931 57.146,100.783 57.296,101.323 57.542 C 103.049 58.328,107.272 55.164,107.761 52.718 C 107.919 51.927,107.591 52.035,106.933 52.991 M81.130 57.258 C 77.903 58.052,77.729 58.169,74.739 61.540 C 73.596 62.830,73.713 63.265,74.957 62.348 C 75.727 61.779,75.932 61.799,76.282 62.476 C 76.551 62.995,76.589 63.014,76.765 62.714 C 77.555 61.370,78.560 61.000,79.435 61.729 C 80.166 62.340,79.987 62.647,77.633 64.818 C 77.239 65.182,77.056 65.913,77.359 65.913 C 77.437 65.913,77.730 65.670,78.011 65.372 C 79.008 64.316,81.325 62.682,83.214 61.702 L 85.130 60.708 84.133 60.702 L 83.136 60.696 82.709 59.853 C 82.475 59.390,82.082 58.879,81.837 58.719 C 81.282 58.355,81.282 58.244,81.842 57.579 C 82.322 57.008,82.262 56.980,81.130 57.258 M131.847 58.826 C 131.858 58.946,131.851 59.122,131.831 59.217 C 131.811 59.313,131.693 59.900,131.570 60.522 C 131.446 61.143,131.052 62.943,130.695 64.522 C 130.338 66.100,129.946 67.861,129.825 68.435 C 129.703 69.009,129.507 69.924,129.388 70.469 C 129.022 72.153,127.895 71.999,140.647 72.005 C 146.843 72.008,152.500 72.086,153.217 72.179 C 157.421 72.719,159.573 75.998,158.694 80.522 C 158.221 82.956,158.151 83.291,157.577 85.826 C 157.273 87.165,156.907 88.809,156.763 89.478 C 156.619 90.148,156.395 91.165,156.264 91.739 C 156.134 92.313,155.906 93.330,155.759 94.000 C 154.908 97.858,154.588 99.291,154.437 99.913 C 154.204 100.871,152.705 107.657,152.420 109.043 C 152.292 109.665,152.120 110.409,152.038 110.696 L 151.888 111.217 146.398 111.263 C 139.972 111.317,140.548 111.605,141.239 108.681 C 141.520 107.493,141.867 105.937,142.010 105.223 C 142.152 104.509,142.344 103.648,142.435 103.310 C 142.526 102.972,142.764 101.913,142.964 100.957 C 143.165 100.000,143.434 98.748,143.562 98.174 C 143.954 96.420,144.313 94.763,144.617 93.304 C 144.777 92.539,145.049 91.287,145.221 90.522 C 145.394 89.757,145.695 88.426,145.889 87.565 C 146.559 84.597,146.535 84.072,145.671 82.902 C 144.721 81.615,145.051 81.658,135.619 81.601 C 125.902 81.542,126.992 81.316,126.544 83.483 C 126.396 84.200,126.155 85.294,126.008 85.915 C 125.637 87.480,125.303 88.954,124.768 91.391 C 124.516 92.539,124.153 94.183,123.962 95.043 C 123.771 95.904,123.554 96.922,123.480 97.304 C 122.995 99.828,120.438 110.910,120.300 111.087 C 120.171 111.253,118.837 111.304,114.689 111.304 C 108.688 111.304,108.948 111.359,109.311 110.174 C 109.428 109.791,109.657 108.852,109.821 108.087 C 109.984 107.322,110.265 106.030,110.446 105.217 C 110.626 104.404,110.893 103.191,111.037 102.522 C 111.182 101.852,111.463 100.561,111.662 99.652 C 111.860 98.743,112.140 97.452,112.283 96.783 C 112.427 96.113,112.653 95.096,112.785 94.522 C 113.109 93.125,113.662 90.645,114.007 89.043 C 114.161 88.326,114.397 87.270,114.532 86.696 C 114.666 86.122,115.054 84.361,115.395 82.783 C 115.735 81.204,116.126 79.443,116.264 78.870 C 116.402 78.296,116.793 76.535,117.132 74.957 C 117.472 73.378,117.825 71.774,117.918 71.391 C 118.010 71.009,118.199 70.148,118.338 69.478 C 118.477 68.809,118.703 67.752,118.841 67.130 C 119.101 65.958,119.813 62.723,120.278 60.609 C 120.425 59.939,120.617 59.215,120.704 59.000 L 120.862 58.609 126.344 58.609 C 130.603 58.609,131.831 58.657,131.847 58.826 M255.652 59.088 C 255.652 59.352,255.571 59.841,255.472 60.175 C 255.373 60.509,255.182 61.330,255.047 62.000 C 254.912 62.670,254.637 63.961,254.436 64.870 C 254.235 65.778,254.004 66.835,253.921 67.217 C 253.839 67.600,253.528 69.009,253.230 70.348 C 252.932 71.687,252.568 73.330,252.421 74.000 C 252.274 74.670,252.042 75.687,251.905 76.261 C 251.768 76.835,251.381 78.596,251.044 80.174 C 250.707 81.752,250.318 83.513,250.179 84.087 C 250.040 84.661,249.648 86.422,249.308 88.000 C 248.967 89.578,248.572 91.339,248.429 91.913 C 248.286 92.487,248.102 93.309,248.021 93.739 C 247.889 94.431,247.623 95.658,246.701 99.826 C 246.563 100.448,246.084 102.600,245.635 104.609 C 245.187 106.617,244.715 108.792,244.586 109.441 C 244.458 110.091,244.270 110.776,244.169 110.965 C 243.988 111.305,243.756 111.308,225.688 111.263 L 207.391 111.217 206.393 110.712 C 203.193 109.091,202.410 106.470,203.555 101.217 C 204.261 97.975,204.615 96.383,204.962 94.870 C 205.094 94.296,205.321 93.278,205.467 92.609 C 205.613 91.939,205.891 90.687,206.085 89.826 C 206.278 88.965,206.550 87.752,206.688 87.130 C 206.826 86.509,207.150 85.061,207.408 83.913 C 207.666 82.765,207.977 81.357,208.099 80.783 C 208.884 77.103,210.802 74.505,213.882 72.951 C 216.112 71.827,214.849 71.921,228.852 71.826 L 241.617 71.739 241.917 70.435 C 242.082 69.717,242.387 68.348,242.595 67.391 C 242.803 66.435,243.084 65.183,243.220 64.609 C 243.356 64.035,243.667 62.626,243.912 61.478 C 244.156 60.330,244.431 59.215,244.522 59.000 L 244.688 58.609 250.170 58.609 L 255.652 58.609 255.652 59.088 M8.245 61.012 C 6.435 62.325,5.043 64.734,5.043 66.554 C 5.043 66.801,4.952 67.308,4.840 67.681 C 4.683 68.205,4.685 68.407,4.848 68.569 C 5.136 68.858,5.263 68.621,5.544 67.268 C 5.975 65.194,6.851 63.518,8.726 61.177 C 9.263 60.507,9.045 60.432,8.245 61.012 M4.836 62.739 C 4.095 63.534,3.668 64.870,4.156 64.870 C 4.277 64.870,5.035 63.507,5.536 62.391 C 5.672 62.087,5.248 62.298,4.836 62.739 M13.801 63.756 C 13.787 64.034,13.691 64.574,13.588 64.957 C 13.484 65.339,13.398 66.092,13.395 66.630 C 13.391 67.776,13.059 68.819,12.442 69.628 C 11.905 70.331,11.894 70.627,12.365 71.600 C 12.971 72.853,14.128 73.022,15.720 72.089 C 16.770 71.474,17.063 71.505,16.927 72.217 C 16.663 73.608,16.072 74.128,14.518 74.338 C 12.895 74.558,12.066 73.967,11.385 72.105 C 11.136 71.426,10.701 70.400,10.418 69.826 C 9.482 67.929,9.991 66.469,12.407 64.125 C 13.520 63.044,13.840 62.959,13.801 63.756 M15.497 64.920 C 15.206 65.212,14.702 64.916,14.960 64.604 C 15.128 64.402,15.231 64.389,15.422 64.547 C 15.581 64.679,15.608 64.810,15.497 64.920 M202.609 72.414 C 206.580 74.492,206.971 76.601,204.968 85.130 C 204.833 85.704,204.604 86.722,204.460 87.391 C 203.204 93.208,202.744 95.304,202.610 95.826 C 202.524 96.161,202.289 97.217,202.088 98.174 C 201.730 99.878,201.255 102.010,200.770 104.087 C 200.423 105.576,199.634 109.168,199.456 110.068 C 199.373 110.489,199.217 110.939,199.110 111.068 C 198.736 111.519,160.807 111.406,159.590 110.951 C 156.039 109.622,154.958 106.380,156.260 100.957 C 156.398 100.383,156.672 99.170,156.868 98.261 C 158.051 92.791,158.944 91.074,161.656 89.048 C 164.529 86.901,164.054 86.957,179.691 86.957 L 193.035 86.957 193.305 86.546 C 194.232 85.130,193.625 82.794,192.078 81.826 L 191.245 81.304 176.014 81.217 L 160.783 81.130 160.804 80.609 C 160.824 80.094,161.068 78.895,161.742 76.000 C 161.931 75.187,162.174 74.052,162.281 73.478 C 162.629 71.625,160.321 71.811,182.335 71.865 L 201.652 71.913 202.609 72.414 M294.087 72.343 C 297.702 73.426,299.322 77.004,298.223 81.478 C 298.058 82.148,297.717 83.635,297.464 84.783 C 297.211 85.930,296.892 87.378,296.754 88.000 C 296.617 88.622,296.401 89.639,296.274 90.261 C 296.070 91.258,294.839 96.850,294.186 99.739 C 294.056 100.313,293.819 101.370,293.659 102.087 C 292.706 106.351,290.879 108.964,287.739 110.554 C 285.345 111.766,285.787 111.739,268.435 111.739 C 251.052 111.739,251.460 111.784,249.602 109.668 C 247.841 107.662,247.634 105.824,248.647 101.217 C 248.889 100.117,249.191 98.687,249.318 98.040 C 249.445 97.392,249.589 96.798,249.637 96.719 C 249.686 96.641,249.800 96.153,249.892 95.636 C 249.983 95.119,250.224 93.952,250.426 93.043 C 250.629 92.135,250.908 90.843,251.047 90.174 C 251.186 89.504,251.577 87.743,251.916 86.261 C 252.254 84.778,252.644 83.017,252.783 82.348 C 254.072 76.102,257.440 72.654,262.783 72.110 C 264.732 71.911,293.357 72.125,294.087 72.343 M341.523 72.385 C 345.098 73.478,346.565 76.758,345.559 81.408 C 345.365 82.308,345.099 83.552,344.968 84.174 C 344.639 85.733,344.053 88.383,343.737 89.739 C 343.592 90.361,343.356 91.454,343.211 92.168 C 343.066 92.882,342.873 93.743,342.781 94.081 C 342.689 94.419,342.421 95.596,342.186 96.696 C 340.374 105.174,339.811 106.761,338.026 108.438 C 336.457 109.910,334.715 110.954,333.043 111.422 C 331.308 111.909,301.577 111.910,299.815 111.424 C 296.119 110.405,294.688 107.197,295.747 102.305 C 296.710 97.853,297.035 96.368,297.390 94.783 C 297.821 92.859,298.052 91.815,298.681 88.957 C 299.687 84.381,299.879 83.528,300.109 82.616 C 300.240 82.093,300.348 81.539,300.348 81.384 C 300.348 77.388,305.114 72.754,309.826 72.169 C 312.096 71.887,340.529 72.081,341.523 72.385 M386.489 72.393 C 390.243 73.706,391.671 77.080,390.480 81.826 C 390.288 82.591,389.996 83.843,389.831 84.609 C 389.667 85.374,389.426 86.470,389.296 87.043 C 389.167 87.617,388.783 89.359,388.443 90.913 C 385.463 104.558,385.534 104.271,384.733 105.913 C 383.885 107.652,381.991 109.566,380.186 110.508 C 377.695 111.808,377.593 111.817,364.326 111.822 C 354.271 111.825,352.534 111.863,352.355 112.078 C 352.182 112.287,351.298 115.939,350.605 119.304 C 350.517 119.735,350.247 120.946,350.005 121.997 C 349.763 123.047,349.565 124.042,349.565 124.208 C 349.565 124.805,348.987 124.870,343.658 124.870 C 337.641 124.870,338.100 125.035,338.532 123.020 C 339.360 119.158,340.302 114.902,340.607 113.652 C 340.747 113.078,341.140 111.278,341.482 109.652 C 341.823 108.026,342.174 106.422,342.261 106.087 C 342.404 105.542,343.143 102.206,343.745 99.391 C 343.868 98.817,344.136 97.604,344.342 96.696 C 344.548 95.787,344.832 94.535,344.972 93.913 C 345.113 93.291,345.345 92.198,345.488 91.484 C 345.631 90.770,345.822 89.909,345.914 89.571 C 346.005 89.233,346.360 87.665,346.701 86.087 C 347.042 84.509,347.430 82.748,347.562 82.174 C 347.694 81.600,348.084 79.839,348.428 78.261 C 348.772 76.683,349.169 74.956,349.309 74.423 C 349.450 73.891,349.565 73.279,349.565 73.064 C 349.565 72.849,349.648 72.519,349.749 72.330 C 350.012 71.838,385.073 71.898,386.489 72.393 M80.957 79.365 C 79.634 79.746,79.238 80.342,79.006 82.301 C 78.870 83.455,79.114 83.323,79.826 81.860 C 80.365 80.751,80.542 80.549,81.377 80.087 C 82.889 79.250,82.669 78.872,80.957 79.365 M222.137 81.551 C 221.176 81.878,220.954 82.016,220.025 82.860 C 218.943 83.844,218.487 84.775,218.017 86.964 C 217.884 87.581,217.484 89.378,217.128 90.957 C 216.772 92.535,216.380 94.296,216.258 94.870 C 216.135 95.443,215.906 96.496,215.747 97.208 C 215.296 99.240,215.649 100.361,217.064 101.386 L 217.791 101.913 226.282 101.913 L 234.774 101.913 235.039 101.400 C 235.185 101.118,235.304 100.757,235.304 100.598 C 235.304 100.439,235.459 99.632,235.649 98.806 C 236.409 95.491,236.760 93.917,237.496 90.522 C 237.641 89.852,237.870 88.835,238.005 88.261 C 238.139 87.687,238.453 86.278,238.701 85.130 C 238.949 83.983,239.237 82.752,239.341 82.397 C 239.701 81.165,240.063 81.216,231.066 81.230 C 223.855 81.241,222.952 81.273,222.137 81.551 M267.652 81.721 C 265.326 82.193,263.664 84.138,263.028 87.130 C 262.876 87.848,262.637 88.943,262.498 89.565 C 262.358 90.187,262.135 91.204,262.002 91.826 C 261.869 92.448,261.643 93.465,261.499 94.087 C 260.325 99.170,260.317 100.016,261.433 101.172 C 262.505 102.282,262.549 102.286,271.312 102.227 L 279.217 102.174 280.070 101.739 C 282.057 100.726,283.072 99.135,283.730 96.000 C 284.508 92.298,285.268 88.806,285.567 87.558 C 286.328 84.378,286.120 83.289,284.537 82.174 L 283.797 81.652 276.029 81.625 C 271.756 81.609,267.987 81.653,267.652 81.721 M314.957 81.725 C 312.534 82.230,311.010 84.174,310.243 87.739 C 310.057 88.600,309.743 90.048,309.544 90.957 C 309.345 91.865,309.115 92.922,309.034 93.304 C 308.953 93.687,308.677 94.900,308.420 96.000 C 307.625 99.402,307.714 100.277,308.966 101.376 C 309.968 102.256,310.331 102.288,318.842 102.228 L 326.696 102.174 327.682 101.604 C 329.740 100.414,330.403 99.184,331.309 94.870 C 331.510 93.913,331.786 92.661,331.921 92.087 C 333.781 84.202,333.772 83.256,331.831 82.115 L 331.043 81.652 323.304 81.625 C 319.048 81.611,315.291 81.656,314.957 81.725 M359.011 81.775 C 358.915 81.899,358.701 82.665,358.535 83.478 C 358.369 84.291,358.126 85.387,357.994 85.913 C 357.862 86.439,357.476 88.161,357.135 89.739 C 356.794 91.317,356.405 93.078,356.271 93.652 C 356.031 94.679,355.847 95.508,355.132 98.783 C 354.934 99.691,354.691 100.734,354.593 101.100 C 354.259 102.338,353.836 102.282,363.202 102.225 L 371.565 102.174 372.435 101.739 C 374.551 100.681,375.295 99.360,376.255 94.957 C 377.031 91.396,377.290 90.245,377.762 88.261 C 378.594 84.766,378.373 83.207,376.898 82.178 L 376.144 81.652 367.665 81.601 C 360.886 81.560,359.151 81.595,359.011 81.775 M229.711 84.937 C 229.773 85.260,229.259 87.745,228.770 89.494 C 228.633 89.980,228.523 90.489,228.525 90.624 C 228.527 90.759,228.258 92.043,227.928 93.478 C 227.598 94.913,227.227 96.553,227.105 97.123 C 226.749 98.790,226.766 98.783,223.156 98.783 C 218.751 98.783,218.577 98.683,219.073 96.449 C 219.224 95.772,219.445 94.748,219.566 94.174 C 219.687 93.600,219.872 92.778,219.977 92.348 C 220.082 91.917,220.332 90.822,220.532 89.913 C 221.532 85.375,221.600 85.161,222.154 84.772 C 222.776 84.337,229.624 84.487,229.711 84.937 M276.355 84.874 C 277.154 85.301,277.146 85.422,275.995 90.435 C 275.786 91.343,275.554 92.400,275.479 92.783 C 274.164 99.486,274.536 99.133,268.800 99.125 C 263.648 99.118,263.472 99.042,263.991 97.064 C 264.082 96.718,264.319 95.652,264.517 94.696 C 264.716 93.739,264.989 92.487,265.124 91.913 C 265.258 91.339,265.533 90.087,265.734 89.130 C 266.434 85.801,266.783 85.052,267.739 84.820 C 268.445 84.649,276.024 84.696,276.355 84.874 M323.986 85.068 C 324.459 85.508,324.431 85.940,323.731 88.967 C 323.489 90.013,323.175 91.454,323.032 92.168 C 322.890 92.882,322.700 93.743,322.609 94.081 C 322.518 94.419,322.275 95.459,322.070 96.392 C 321.741 97.883,321.624 98.152,321.103 98.610 L 320.510 99.130 316.294 99.130 C 310.692 99.130,310.884 99.285,311.758 95.461 C 312.007 94.371,312.273 93.126,312.350 92.696 C 312.426 92.265,312.603 91.443,312.743 90.870 C 312.883 90.296,313.134 89.200,313.302 88.435 C 314.142 84.594,313.972 84.696,319.489 84.696 C 323.437 84.696,323.601 84.709,323.986 85.068 M369.040 85.301 C 369.443 85.730,369.444 85.737,369.161 86.822 C 369.005 87.422,368.717 88.657,368.520 89.565 C 368.324 90.474,368.053 91.687,367.918 92.261 C 367.784 92.835,367.638 93.500,367.595 93.739 C 366.590 99.268,366.728 99.130,362.165 99.130 C 358.079 99.130,358.147 99.156,358.507 97.726 C 358.637 97.207,358.868 96.235,359.018 95.565 C 359.169 94.896,359.443 93.683,359.628 92.870 C 359.813 92.057,360.097 90.765,360.260 90.000 C 360.423 89.235,360.705 87.987,360.887 87.228 C 361.069 86.468,361.217 85.709,361.217 85.541 C 361.217 84.698,368.270 84.481,369.040 85.301 M17.399 92.000 C 18.024 94.070,19.965 98.181,21.516 100.722 C 22.557 102.428,22.582 102.559,22.045 103.515 C 20.424 106.399,14.349 103.026,12.526 98.229 C 11.829 96.397,11.916 96.163,14.098 93.997 C 15.156 92.946,16.133 91.827,16.269 91.508 C 16.632 90.655,17.047 90.836,17.399 92.000 M74.745 95.435 C 75.604 97.915,75.653 98.202,75.806 101.652 C 75.917 104.165,76.020 105.082,76.236 105.478 C 76.722 106.372,76.481 107.883,75.733 108.631 C 75.087 109.277,66.785 109.232,66.535 108.581 C 66.483 108.445,66.960 107.673,67.623 106.821 C 69.829 103.986,71.671 100.397,72.863 96.608 C 73.255 95.365,73.609 94.250,73.651 94.130 C 73.859 93.542,74.251 94.010,74.745 95.435 M170.489 96.772 C 168.332 97.775,167.654 99.868,169.036 101.251 L 169.701 101.916 179.836 101.871 L 189.971 101.826 190.093 101.391 C 190.161 101.152,190.301 100.565,190.405 100.087 C 190.509 99.609,190.725 98.676,190.884 98.014 C 191.319 96.211,192.130 96.348,180.967 96.350 L 171.391 96.351 170.489 96.772 " stroke="none" fill="#0a0d0c" fill-rule="evenodd"></path><path id="path2" d="M0.000 86.957 L 0.000 173.913 200.000 173.913 L 400.000 173.913 400.000 86.957 L 400.000 0.000 200.000 0.000 L 0.000 0.000 0.000 86.957 M59.592 35.050 C 59.701 35.334,59.206 36.000,58.886 36.000 C 57.448 36.003,53.581 39.575,52.298 42.087 C 51.568 43.516,50.957 43.850,50.957 42.822 C 50.957 42.311,51.413 40.975,51.771 40.440 C 51.897 40.251,52.000 39.968,52.000 39.811 C 52.000 39.654,52.165 39.315,52.368 39.058 C 52.570 38.801,52.698 38.553,52.652 38.507 C 52.606 38.461,52.439 38.622,52.280 38.864 C 51.510 40.040,50.973 38.970,51.670 37.650 C 52.527 36.028,55.478 34.413,55.478 35.565 C 55.478 35.937,55.888 35.887,57.565 35.309 C 59.291 34.714,59.455 34.693,59.592 35.050 M77.391 35.640 C 81.270 36.647,83.467 37.978,88.759 42.522 C 89.985 43.574,91.274 44.631,91.624 44.870 C 96.338 48.094,98.002 49.755,99.500 52.734 C 99.727 53.186,100.012 53.558,100.134 53.560 C 100.825 53.575,102.490 52.065,103.691 50.335 C 105.115 48.281,106.306 47.795,108.373 48.423 C 110.596 49.097,111.603 50.284,112.767 53.599 L 113.336 55.217 124.347 55.262 C 132.129 55.294,135.427 55.364,135.592 55.501 C 135.912 55.766,135.886 56.462,135.499 57.955 C 135.319 58.649,135.038 59.843,134.874 60.609 C 134.559 62.080,134.311 63.144,133.820 65.130 C 133.654 65.800,133.457 66.661,133.380 67.043 C 133.304 67.426,133.189 67.875,133.125 68.042 C 133.014 68.328,134.749 68.347,166.286 68.397 C 204.111 68.456,201.952 68.369,204.814 69.955 L 205.715 70.454 207.344 69.662 C 208.240 69.226,209.096 68.870,209.247 68.870 C 209.398 68.870,209.864 68.737,210.282 68.575 C 210.959 68.313,212.278 68.270,222.155 68.184 C 231.793 68.100,233.284 68.052,233.397 67.826 C 233.526 67.569,233.809 66.384,234.352 63.826 C 234.504 63.109,234.736 62.052,234.866 61.478 C 234.997 60.904,235.273 59.652,235.480 58.696 C 236.024 56.184,236.200 55.651,236.542 55.468 C 236.872 55.291,258.599 55.237,259.249 55.411 C 259.789 55.556,259.856 55.883,259.577 57.009 C 259.304 58.115,258.769 60.457,258.338 62.435 C 258.182 63.152,257.987 63.974,257.905 64.261 C 257.822 64.548,257.679 65.252,257.588 65.826 C 257.496 66.400,257.336 67.090,257.232 67.359 C 257.128 67.628,257.043 67.960,257.043 68.095 C 257.043 68.306,259.664 68.350,275.087 68.402 C 295.348 68.471,294.895 68.445,297.317 69.677 L 298.696 70.378 299.624 69.969 C 301.080 69.326,302.487 68.889,303.863 68.652 C 305.849 68.311,384.096 68.338,386.522 68.680 C 393.475 69.663,396.111 75.366,393.561 83.913 C 393.475 84.200,393.354 84.787,393.292 85.217 C 393.230 85.648,393.067 86.405,392.929 86.899 C 392.792 87.393,392.608 88.176,392.520 88.638 C 392.353 89.528,391.989 91.222,391.688 92.522 C 391.588 92.952,391.339 94.087,391.134 95.043 C 389.196 104.109,388.781 105.567,387.503 107.778 C 385.803 110.721,382.574 113.285,378.925 114.589 C 377.182 115.213,375.410 115.304,365.104 115.304 C 353.813 115.304,354.779 115.160,354.453 116.900 C 354.230 118.089,353.840 119.869,353.471 121.391 C 353.343 121.917,352.990 123.522,352.686 124.957 C 352.382 126.391,352.062 127.702,351.974 127.870 C 351.742 128.312,328.750 128.345,328.581 127.904 C 328.477 127.632,328.549 127.216,329.229 124.174 C 329.432 123.265,329.658 122.170,329.731 121.739 C 329.805 121.309,329.959 120.565,330.074 120.087 C 330.815 117.015,331.118 115.431,331.001 115.239 C 330.948 115.151,323.155 115.137,312.802 115.205 C 292.559 115.338,293.309 115.375,290.798 114.136 L 289.395 113.444 288.480 113.827 C 286.652 114.594,285.789 114.806,283.826 114.971 C 279.885 115.303,131.114 115.095,130.901 114.757 C 130.770 114.550,130.827 114.025,131.108 112.844 C 131.740 110.194,132.487 106.911,132.982 104.609 C 133.126 103.939,133.361 102.883,133.503 102.261 C 133.909 100.492,134.373 98.412,135.211 94.609 C 135.881 91.568,136.501 88.858,137.036 86.631 C 137.490 84.740,137.758 84.870,133.384 84.870 L 129.572 84.870 129.472 85.348 C 129.417 85.611,129.266 86.257,129.136 86.783 C 129.007 87.309,128.850 88.052,128.788 88.435 C 128.725 88.817,128.567 89.522,128.436 90.000 C 128.304 90.478,128.066 91.496,127.906 92.261 C 127.746 93.026,127.516 94.043,127.395 94.522 C 127.194 95.310,126.928 96.494,126.146 100.087 C 126.000 100.757,125.805 101.557,125.713 101.866 C 125.621 102.175,125.481 102.801,125.402 103.257 C 125.323 103.713,125.132 104.596,124.977 105.217 C 124.706 106.309,124.518 107.130,123.899 109.913 C 123.740 110.630,123.463 111.810,123.283 112.534 C 123.103 113.257,122.957 114.016,122.957 114.219 C 122.957 115.141,123.099 115.131,110.961 115.128 C 104.789 115.126,99.637 115.061,99.513 114.982 C 99.210 114.790,99.218 114.402,99.551 112.957 C 99.705 112.287,99.950 111.230,100.094 110.609 C 100.646 108.230,101.069 106.318,101.211 105.565 C 101.292 105.135,101.473 104.313,101.614 103.739 C 101.755 103.165,102.005 102.070,102.171 101.304 C 102.336 100.539,102.621 99.248,102.804 98.435 C 102.988 97.622,103.258 96.409,103.406 95.739 C 103.554 95.070,103.787 94.033,103.924 93.435 C 104.433 91.220,105.392 86.963,105.489 86.489 C 105.594 85.972,105.315 85.843,104.739 86.143 C 102.268 87.435,100.631 87.739,96.137 87.739 C 91.898 87.739,92.265 87.621,91.819 89.130 C 90.421 93.864,84.742 96.670,80.424 94.760 C 79.609 94.400,77.487 92.757,76.609 91.808 C 76.004 91.153,75.794 91.445,76.244 92.316 C 77.633 95.002,78.412 98.276,78.406 101.412 C 78.403 103.558,78.452 104.046,78.722 104.542 C 79.837 106.590,78.793 110.267,76.848 111.141 C 75.566 111.717,66.952 111.798,65.526 111.248 C 64.612 110.896,64.291 110.942,63.652 111.520 C 63.413 111.736,62.552 112.451,61.739 113.108 C 60.690 113.955,60.046 114.643,59.523 115.475 C 57.194 119.175,52.424 119.568,49.284 116.318 C 45.047 111.933,42.881 106.358,44.599 104.261 L 45.198 103.530 43.183 103.422 C 40.777 103.294,40.871 103.251,40.991 104.412 C 41.111 105.572,40.861 106.362,39.912 107.826 C 38.591 109.862,38.435 110.282,38.435 111.788 C 38.435 114.397,37.538 116.121,35.818 116.821 C 34.772 117.246,31.595 117.385,30.699 117.045 C 30.448 116.950,29.837 116.801,29.339 116.716 C 28.842 116.630,27.809 116.387,27.043 116.176 C 26.278 115.965,25.339 115.714,24.957 115.618 C 24.574 115.522,24.014 115.334,23.713 115.200 C 23.411 115.066,23.093 114.957,23.005 114.957 C 22.587 114.957,20.819 113.821,20.347 113.250 C 19.348 112.040,19.270 110.646,20.098 108.774 C 20.642 107.545,20.634 107.478,19.950 107.478 C 15.230 107.478,9.217 101.195,9.217 96.263 L 9.217 95.112 11.627 92.634 C 13.403 90.808,14.093 89.976,14.251 89.469 C 14.369 89.092,14.584 88.518,14.729 88.195 C 15.072 87.435,15.082 86.837,14.799 84.040 C 14.599 82.055,14.608 79.084,14.821 77.224 C 14.866 76.826,14.792 76.783,13.739 76.596 C 11.315 76.165,9.257 74.060,9.222 71.976 C 9.220 71.819,8.952 71.305,8.628 70.834 C 6.358 67.535,8.925 62.911,14.491 60.270 C 17.139 59.013,17.759 59.479,16.637 61.883 C 16.480 62.220,16.534 62.437,16.963 63.187 C 17.446 64.031,17.478 64.203,17.475 65.936 C 17.471 68.338,17.408 68.366,19.475 65.043 C 22.477 60.219,28.238 55.919,34.435 53.878 C 36.972 53.042,40.410 52.231,42.754 51.914 C 43.604 51.800,43.802 51.677,45.102 50.460 C 48.556 47.228,50.022 46.261,51.465 46.261 C 51.906 46.261,52.148 46.047,53.120 44.803 C 55.595 41.633,58.650 39.249,62.000 37.874 C 68.258 35.305,73.289 34.575,77.391 35.640 M66.522 39.470 C 64.238 40.274,63.921 40.393,63.739 40.517 C 63.643 40.582,63.174 40.780,62.696 40.956 C 62.217 41.132,61.630 41.408,61.391 41.569 C 61.152 41.731,60.490 42.129,59.920 42.453 C 58.803 43.089,55.826 45.950,55.826 46.387 C 55.826 46.609,55.977 46.631,56.739 46.519 C 58.902 46.202,61.995 46.315,62.052 46.714 C 62.089 46.972,62.406 47.214,63.129 47.537 C 63.693 47.788,64.645 48.432,65.246 48.968 C 66.509 50.095,66.668 49.984,65.956 48.474 C 64.022 44.372,64.534 41.337,67.435 39.710 C 69.100 38.776,68.753 38.685,66.522 39.470 M51.043 49.330 C 50.054 49.847,46.544 53.485,42.174 58.523 C 41.600 59.185,40.700 60.205,40.174 60.790 C 37.714 63.526,36.572 65.210,35.166 68.174 C 33.846 70.956,33.816 71.946,34.997 73.749 C 35.663 74.767,35.873 74.762,36.026 73.725 C 36.190 72.613,36.762 71.235,37.700 69.695 C 39.911 66.066,42.909 61.046,43.283 60.348 C 43.646 59.670,44.059 59.017,45.096 57.478 C 45.225 57.287,45.615 56.700,45.963 56.174 C 47.543 53.787,48.363 52.752,50.348 50.639 C 51.273 49.653,51.772 49.030,51.617 49.050 C 51.589 49.054,51.330 49.180,51.043 49.330 M39.913 55.660 C 39.626 55.741,38.687 55.964,37.826 56.158 C 31.465 57.584,26.120 61.084,22.279 66.336 C 20.701 68.494,18.704 72.788,18.016 75.503 C 17.189 78.765,17.408 84.395,18.519 88.415 C 19.039 90.294,19.208 90.516,19.068 89.130 C 18.162 80.215,19.429 74.525,23.289 70.165 C 23.632 69.777,24.116 69.229,24.363 68.947 C 25.980 67.106,29.131 64.976,31.690 63.995 C 32.195 63.801,32.765 63.568,32.957 63.478 C 33.148 63.387,33.756 63.149,34.308 62.947 C 35.195 62.623,35.418 62.437,36.235 61.332 C 36.743 60.644,37.994 59.117,39.015 57.938 C 40.035 56.759,40.826 55.723,40.773 55.636 C 40.662 55.458,40.632 55.458,39.913 55.660 M93.331 57.188 C 92.684 57.903,93.211 58.390,94.193 57.983 C 95.037 57.633,95.011 57.662,94.874 57.230 C 94.724 56.760,93.743 56.733,93.331 57.188 M10.087 59.897 C 10.087 60.032,9.754 60.549,9.348 61.045 C 8.941 61.541,8.343 62.272,8.019 62.669 C 7.059 63.844,6.181 65.962,5.844 67.913 C 5.449 70.197,5.352 70.508,5.011 70.573 C 4.591 70.654,4.483 70.108,4.494 67.977 C 4.503 66.263,4.387 65.775,4.087 66.261 C 3.476 67.249,3.224 64.837,3.805 63.558 C 4.408 62.232,6.055 61.056,6.415 61.696 C 6.570 61.971,6.641 61.948,7.163 61.447 C 8.738 59.935,10.087 59.220,10.087 59.897 M77.826 61.947 C 77.170 62.319,76.912 63.894,77.471 64.108 C 77.753 64.217,79.478 62.824,79.478 62.488 C 79.478 61.936,78.443 61.597,77.826 61.947 M15.221 68.565 C 15.160 68.876,15.023 69.306,14.917 69.521 C 14.643 70.076,14.882 70.210,15.424 69.806 C 16.177 69.244,16.271 68.978,15.896 68.465 C 15.462 67.870,15.354 67.886,15.221 68.565 M222.271 85.207 C 221.914 85.564,221.772 86.011,221.299 88.261 C 221.138 89.026,220.864 90.278,220.690 91.043 C 220.517 91.809,220.244 93.061,220.085 93.826 C 219.926 94.591,219.685 95.598,219.550 96.063 C 218.891 98.336,219.040 98.435,223.123 98.435 C 226.757 98.435,226.369 98.660,226.866 96.261 C 227.140 94.936,227.295 94.235,227.888 91.652 C 228.031 91.030,228.317 89.739,228.525 88.783 C 228.733 87.826,229.020 86.635,229.162 86.137 C 229.304 85.638,229.370 85.149,229.308 85.050 C 229.077 84.676,222.659 84.820,222.271 85.207 M268.024 85.217 C 267.703 85.293,267.325 85.470,267.185 85.610 C 266.858 85.937,266.714 86.511,265.227 93.391 C 265.114 93.917,264.951 94.583,264.865 94.870 C 264.779 95.157,264.660 95.743,264.600 96.174 C 264.540 96.604,264.409 97.225,264.308 97.553 C 263.961 98.690,264.294 98.783,268.721 98.783 C 273.910 98.783,273.777 98.848,274.352 96.000 C 274.516 95.187,274.753 94.091,274.878 93.565 C 275.003 93.039,275.273 91.826,275.478 90.870 C 275.683 89.913,275.958 88.700,276.089 88.174 C 276.883 84.981,276.954 85.037,272.179 85.061 C 270.215 85.071,268.346 85.141,268.024 85.217 M315.217 85.279 C 314.462 85.506,314.118 86.198,313.732 88.261 C 313.642 88.739,313.415 89.835,313.228 90.696 C 312.577 93.682,312.004 96.265,311.829 97.002 C 311.412 98.751,311.490 98.783,316.243 98.783 C 321.583 98.783,321.225 99.073,322.182 93.954 C 322.312 93.259,322.465 92.614,322.522 92.521 C 322.579 92.429,322.700 91.941,322.790 91.437 C 322.880 90.934,323.116 89.817,323.313 88.957 C 324.135 85.371,324.101 85.720,323.661 85.364 C 323.177 84.971,316.466 84.904,315.217 85.279 M361.886 85.435 C 361.739 85.554,361.525 86.122,361.410 86.696 C 361.177 87.867,360.835 89.397,360.516 90.696 C 360.398 91.174,360.245 91.878,360.175 92.261 C 360.106 92.643,359.807 94.013,359.512 95.304 C 358.988 97.592,358.895 98.118,358.936 98.565 C 358.952 98.731,359.725 98.783,362.164 98.783 C 366.373 98.783,366.063 99.065,367.051 94.348 C 367.211 93.583,367.492 92.291,367.675 91.478 C 369.019 85.518,368.985 85.732,368.608 85.456 C 368.161 85.129,362.285 85.111,361.886 85.435 " stroke="none" fill="#fbfbfb" fill-rule="evenodd"></path><path id="path3" d="M72.261 38.102 C 71.591 38.178,70.691 38.328,70.261 38.435 C 69.830 38.542,69.263 38.673,69.000 38.726 C 68.737 38.779,68.522 38.885,68.522 38.961 C 68.522 39.038,68.033 39.375,67.435 39.710 C 64.534 41.337,64.022 44.372,65.956 48.474 C 66.667 49.981,66.509 50.095,65.259 48.980 C 63.212 47.153,61.818 46.778,59.591 47.455 C 59.290 47.547,58.615 47.673,58.091 47.735 C 57.567 47.798,56.824 47.919,56.439 48.005 C 56.054 48.091,54.854 48.334,53.772 48.545 C 52.425 48.807,51.739 49.022,51.594 49.229 C 51.478 49.395,50.915 50.030,50.344 50.640 C 48.350 52.769,47.539 53.794,45.963 56.174 C 45.615 56.700,45.225 57.287,45.096 57.478 C 44.059 59.017,43.646 59.670,43.283 60.348 C 43.053 60.778,41.887 62.753,40.693 64.737 C 39.499 66.720,38.112 69.029,37.612 69.867 C 36.669 71.446,36.000 73.126,36.000 73.912 C 36.000 74.161,35.921 74.444,35.825 74.540 C 35.708 74.657,35.981 75.200,36.651 76.186 C 37.202 76.994,37.748 77.871,37.866 78.132 C 38.197 78.870,38.445 78.724,39.649 77.087 C 40.709 75.644,41.600 74.523,43.174 72.652 C 43.853 71.845,44.221 71.653,44.432 71.996 C 44.490 72.089,44.000 73.008,43.345 74.039 C 40.345 78.756,38.261 83.119,38.261 84.684 C 38.261 85.992,41.380 88.694,42.894 88.697 C 43.167 88.697,43.687 88.780,44.048 88.880 C 44.926 89.124,46.912 88.584,48.693 87.617 C 49.412 87.226,50.430 86.672,50.957 86.385 C 54.064 84.691,56.783 83.621,58.569 83.389 C 59.363 83.287,59.524 83.198,59.763 82.737 C 61.208 79.942,61.333 76.565,60.271 69.043 C 59.669 64.783,60.124 58.783,61.049 58.783 C 61.432 58.783,61.500 59.102,61.663 61.652 C 61.724 62.609,61.967 64.526,62.202 65.913 C 62.436 67.300,62.743 69.217,62.883 70.174 C 63.023 71.130,63.209 72.304,63.297 72.783 C 63.783 75.417,63.361 80.150,62.352 83.391 C 61.696 85.499,61.677 85.511,58.367 85.992 C 57.900 86.060,57.274 86.220,56.976 86.347 C 56.678 86.475,56.004 86.749,55.478 86.956 C 54.389 87.386,53.056 88.053,50.435 89.479 C 46.854 91.428,46.980 91.387,44.435 91.389 C 41.328 91.392,39.896 90.677,36.978 87.668 L 35.608 86.255 35.728 85.034 C 35.794 84.363,35.973 83.366,36.125 82.820 C 36.579 81.183,36.261 80.239,34.382 77.652 C 31.377 73.517,30.877 72.123,31.587 69.859 C 32.046 68.395,34.148 64.346,35.230 62.842 C 35.500 62.466,34.666 62.701,32.957 63.483 C 32.765 63.571,32.195 63.801,31.690 63.995 C 29.131 64.976,25.980 67.106,24.363 68.947 C 24.116 69.229,23.632 69.777,23.289 70.165 C 19.343 74.622,18.195 79.977,19.112 89.652 C 19.311 91.758,20.657 95.043,22.796 98.645 C 23.363 99.599,23.826 100.442,23.826 100.517 C 23.826 100.592,23.956 100.760,24.114 100.892 C 25.066 101.681,24.718 105.198,23.307 109.041 C 22.382 111.559,23.278 112.264,28.957 113.488 C 34.275 114.635,35.304 114.264,35.304 111.199 C 35.304 110.021,35.365 109.765,35.826 109.017 C 36.113 108.550,36.348 108.132,36.348 108.086 C 36.348 108.041,36.685 107.474,37.098 106.828 C 38.150 105.179,38.125 105.309,38.110 101.652 C 38.094 97.748,38.231 96.261,38.606 96.261 C 38.984 96.261,39.272 96.988,39.498 98.506 C 39.608 99.244,39.795 99.944,39.914 100.063 C 40.549 100.698,48.267 100.712,51.237 100.083 C 51.531 100.021,51.714 99.658,52.159 98.255 C 52.652 96.699,53.028 96.101,53.326 96.399 C 53.585 96.657,53.451 103.740,53.187 103.791 C 53.040 103.819,52.789 103.643,52.630 103.399 C 52.222 102.776,52.097 102.811,49.887 104.175 C 47.806 105.460,47.130 106.060,47.130 106.623 C 47.130 108.443,50.588 113.796,52.479 114.905 C 54.162 115.891,55.813 115.280,57.152 113.177 C 57.506 112.621,58.724 111.599,64.309 107.168 C 67.425 104.696,72.407 93.980,72.732 89.053 L 72.783 88.279 71.577 87.615 C 70.914 87.250,70.249 86.839,70.099 86.702 C 69.949 86.566,69.468 86.139,69.031 85.755 C 67.215 84.159,67.210 82.853,69.025 84.132 C 70.305 85.035,72.382 86.084,74.087 86.687 C 75.259 87.103,75.638 87.369,77.826 89.313 C 81.111 92.232,82.354 92.862,84.565 92.725 C 85.262 92.682,85.152 92.348,84.441 92.348 C 81.274 92.348,79.901 89.323,81.403 85.652 C 81.524 85.356,81.624 84.271,81.634 83.145 C 81.656 80.785,81.626 80.809,83.364 81.747 C 86.414 83.392,93.056 84.965,96.870 84.945 C 107.515 84.890,113.418 75.228,111.418 61.130 C 110.626 55.544,109.005 50.839,108.335 52.184 C 108.266 52.322,107.950 52.974,107.632 53.632 C 106.998 54.946,105.883 56.299,105.107 56.697 C 104.833 56.837,104.410 57.092,104.166 57.265 C 103.191 57.955,101.944 58.121,100.713 57.727 C 99.162 57.229,99.082 57.331,99.328 59.480 C 99.753 63.188,98.795 69.361,97.624 70.461 C 96.970 71.075,96.823 70.705,97.124 69.206 C 98.000 64.848,98.018 61.913,97.167 61.913 C 95.938 61.913,95.053 63.189,94.011 66.463 C 93.375 68.462,92.871 69.289,92.511 68.929 C 92.399 68.816,92.393 68.599,92.494 68.333 C 92.581 68.102,92.706 67.483,92.771 66.957 C 93.025 64.913,93.428 63.045,93.754 62.406 C 94.048 61.829,94.057 61.739,93.821 61.739 C 92.969 61.739,92.113 62.567,91.214 64.261 C 90.504 65.598,89.976 66.261,89.622 66.261 C 89.351 66.261,89.321 65.861,89.559 65.432 C 89.651 65.266,89.930 64.545,90.178 63.829 C 91.210 60.859,93.482 59.384,96.173 59.935 C 97.117 60.129,97.441 59.900,96.937 59.396 C 96.658 59.118,96.151 59.075,93.783 59.128 C 92.232 59.163,91.989 58.988,92.696 58.348 C 93.106 57.976,93.152 57.565,92.783 57.565 C 92.599 57.565,92.522 57.380,92.522 56.941 C 92.522 56.406,92.447 56.289,91.993 56.118 C 90.995 55.741,91.368 55.331,93.478 54.484 C 95.290 53.757,95.671 53.694,96.391 53.996 C 96.938 54.226,96.732 53.670,95.673 52.059 C 93.878 49.331,91.939 47.927,89.654 47.702 C 88.070 47.546,87.683 47.165,88.730 46.793 L 89.304 46.589 88.870 46.238 C 88.630 46.045,87.626 45.208,86.638 44.378 C 82.199 40.650,80.690 39.656,78.174 38.806 C 77.180 38.470,74.156 37.885,73.696 37.939 C 73.576 37.953,72.930 38.026,72.261 38.102 M76.174 50.669 C 76.174 50.797,75.582 51.321,74.859 51.834 C 73.111 53.071,71.910 54.761,71.567 56.466 C 71.271 57.936,70.434 57.470,70.436 55.836 C 70.438 53.919,71.014 52.808,72.535 51.792 C 74.164 50.704,76.174 50.083,76.174 50.669 M61.043 50.780 C 61.675 51.183,58.955 52.473,57.391 52.512 C 56.065 52.546,53.565 56.062,53.565 57.894 C 53.565 58.452,53.372 58.783,53.046 58.783 C 52.439 58.783,52.267 58.292,52.277 56.590 C 52.285 55.288,52.242 55.002,52.064 55.150 C 51.770 55.394,50.528 57.666,50.108 58.726 C 49.926 59.188,49.572 60.010,49.323 60.554 C 49.074 61.098,48.870 61.628,48.870 61.731 C 48.870 62.112,47.950 63.664,47.761 63.602 C 46.858 63.306,49.117 56.218,51.035 53.328 C 52.188 51.592,52.919 51.315,57.288 50.957 C 58.426 50.863,59.398 50.747,59.447 50.698 C 59.600 50.545,60.769 50.605,61.043 50.780 M106.067 51.971 C 105.648 52.433,104.882 53.294,104.365 53.884 C 103.402 54.983,102.360 55.688,101.242 55.998 C 100.328 56.251,100.044 56.462,100.287 56.705 C 100.828 57.245,103.643 56.040,105.105 54.641 C 105.962 53.822,107.829 51.365,107.696 51.232 C 107.385 50.921,106.764 51.204,106.067 51.971 M82.783 56.975 C 82.783 57.129,82.587 57.408,82.348 57.596 C 81.798 58.029,81.801 58.269,82.363 58.796 C 82.610 59.028,82.919 59.471,83.049 59.781 L 83.285 60.345 84.625 60.303 C 86.312 60.250,86.519 60.537,85.189 61.085 C 82.372 62.246,79.851 63.893,78.160 65.677 C 77.278 66.607,76.987 66.766,76.780 66.431 C 76.618 66.168,77.193 64.568,77.491 64.454 C 77.834 64.322,77.212 63.673,76.781 63.712 C 76.532 63.735,75.992 63.018,75.782 62.388 C 75.755 62.307,75.363 62.447,74.912 62.699 C 73.323 63.587,73.021 63.068,74.300 61.646 C 77.650 57.920,77.801 57.808,80.348 57.135 C 82.216 56.642,82.783 56.604,82.783 56.975 M13.040 63.952 C 10.858 65.481,9.893 67.854,10.746 69.595 C 11.042 70.201,11.415 71.156,11.574 71.719 C 12.025 73.311,12.760 74.006,13.962 73.978 C 15.387 73.945,16.110 73.650,16.334 73.009 C 16.666 72.056,16.575 72.005,15.546 72.562 C 13.781 73.518,12.799 73.210,11.849 71.405 L 11.437 70.622 11.936 69.814 C 12.836 68.355,12.897 68.171,13.061 66.429 C 13.150 65.480,13.302 64.495,13.399 64.241 C 13.624 63.648,13.555 63.592,13.040 63.952 M83.478 78.944 C 83.478 79.220,83.002 79.599,82.136 80.012 C 80.830 80.634,80.503 80.966,79.905 82.280 C 78.892 84.500,78.416 84.395,78.769 82.028 C 79.065 80.032,79.377 79.565,80.645 79.212 C 81.199 79.057,81.730 78.904,81.826 78.871 C 82.210 78.737,83.478 78.793,83.478 78.944 M89.039 86.881 C 88.946 87.126,88.870 87.481,88.870 87.669 C 88.870 88.581,87.521 90.406,86.640 90.686 C 86.416 90.757,86.316 90.897,86.376 91.055 C 86.430 91.194,86.376 91.427,86.256 91.572 C 85.465 92.524,87.161 91.602,88.080 90.579 C 88.807 89.771,89.739 87.613,89.739 86.739 C 89.739 86.274,89.231 86.377,89.039 86.881 M16.522 91.799 C 16.522 91.879,15.618 92.837,14.515 93.928 C 12.225 96.189,12.171 96.305,12.681 97.858 C 13.903 101.583,19.362 105.506,21.248 104.015 C 22.288 103.193,22.248 102.653,20.988 100.474 C 19.553 97.992,17.831 94.398,17.338 92.855 C 17.024 91.871,16.522 91.221,16.522 91.799 M73.739 94.835 C 73.739 94.960,73.423 96.033,73.036 97.219 C 71.843 100.877,69.747 104.792,67.522 107.515 C 67.211 107.896,66.957 108.267,66.957 108.341 C 66.957 108.819,75.098 108.864,75.528 108.388 C 76.038 107.825,76.211 106.538,75.890 105.698 C 75.691 105.177,75.561 103.975,75.454 101.652 C 75.304 98.395,74.942 96.434,74.224 95.000 C 74.009 94.570,73.739 94.479,73.739 94.835 " stroke="none" fill="#eeee0f" fill-rule="evenodd"></path><path id="path4" d="M57.565 35.309 C 55.888 35.887,55.478 35.937,55.478 35.565 C 55.478 34.413,52.527 36.028,51.670 37.650 C 50.973 38.970,51.510 40.040,52.280 38.864 C 52.439 38.622,52.606 38.461,52.652 38.507 C 52.698 38.553,52.570 38.801,52.368 39.058 C 52.165 39.315,52.000 39.654,52.000 39.811 C 52.000 39.968,51.897 40.251,51.771 40.440 C 51.413 40.975,50.957 42.311,50.957 42.822 C 50.957 43.850,51.568 43.516,52.298 42.087 C 53.581 39.575,57.448 36.003,58.886 36.000 C 59.206 36.000,59.701 35.334,59.592 35.050 C 59.455 34.693,59.291 34.714,57.565 35.309 M71.130 35.309 C 68.177 35.648,65.788 36.319,62.000 37.874 C 58.650 39.249,55.595 41.633,53.120 44.803 C 52.148 46.047,51.906 46.261,51.465 46.261 C 50.022 46.261,48.556 47.228,45.102 50.460 C 43.802 51.677,43.604 51.800,42.754 51.914 C 32.381 53.313,23.742 58.186,19.475 65.043 C 17.408 68.366,17.471 68.338,17.475 65.936 C 17.478 64.203,17.446 64.031,16.963 63.187 C 16.534 62.437,16.480 62.220,16.637 61.883 C 17.759 59.479,17.139 59.013,14.491 60.270 C 8.925 62.911,6.358 67.535,8.628 70.834 C 8.952 71.305,9.220 71.819,9.222 71.976 C 9.257 74.060,11.315 76.165,13.739 76.596 C 14.792 76.783,14.866 76.826,14.821 77.224 C 14.608 79.084,14.599 82.055,14.799 84.040 C 15.082 86.837,15.072 87.435,14.729 88.195 C 14.584 88.518,14.369 89.092,14.251 89.469 C 14.093 89.976,13.403 90.808,11.627 92.634 L 9.217 95.112 9.217 96.263 C 9.217 101.195,15.230 107.478,19.950 107.478 C 20.634 107.478,20.642 107.545,20.098 108.774 C 19.270 110.646,19.348 112.040,20.347 113.250 C 20.819 113.821,22.587 114.957,23.005 114.957 C 23.093 114.957,23.411 115.066,23.713 115.200 C 24.014 115.334,24.574 115.522,24.957 115.618 C 25.339 115.714,26.278 115.965,27.043 116.176 C 27.809 116.387,28.842 116.630,29.339 116.716 C 29.837 116.801,30.448 116.950,30.699 117.045 C 31.595 117.385,34.772 117.246,35.818 116.821 C 37.538 116.121,38.435 114.397,38.435 111.788 C 38.435 110.282,38.591 109.862,39.912 107.826 C 40.861 106.362,41.111 105.572,40.991 104.412 C 40.871 103.251,40.777 103.294,43.183 103.422 L 45.198 103.530 44.599 104.261 C 42.881 106.358,45.047 111.933,49.284 116.318 C 52.424 119.568,57.194 119.175,59.523 115.475 C 60.046 114.643,60.690 113.955,61.739 113.108 C 62.552 112.451,63.413 111.736,63.652 111.520 C 64.291 110.942,64.612 110.896,65.526 111.248 C 66.952 111.798,75.566 111.717,76.848 111.141 C 78.793 110.267,79.837 106.590,78.722 104.542 C 78.452 104.046,78.403 103.558,78.406 101.412 C 78.412 98.276,77.633 95.002,76.244 92.316 C 75.794 91.445,76.004 91.153,76.609 91.808 C 77.487 92.757,79.609 94.400,80.424 94.760 C 84.742 96.670,90.421 93.864,91.819 89.130 C 92.265 87.621,91.898 87.739,96.137 87.739 C 100.631 87.739,102.268 87.435,104.739 86.143 C 105.315 85.843,105.594 85.972,105.489 86.489 C 105.392 86.963,104.433 91.220,103.924 93.435 C 103.787 94.033,103.554 95.070,103.406 95.739 C 103.258 96.409,102.988 97.622,102.804 98.435 C 102.621 99.248,102.336 100.539,102.171 101.304 C 102.005 102.070,101.755 103.165,101.614 103.739 C 101.473 104.313,101.292 105.135,101.211 105.565 C 101.069 106.318,100.646 108.230,100.094 110.609 C 99.950 111.230,99.705 112.287,99.551 112.957 C 99.218 114.402,99.210 114.790,99.513 114.982 C 99.637 115.061,104.789 115.126,110.961 115.128 C 123.099 115.131,122.957 115.141,122.957 114.219 C 122.957 114.016,123.103 113.257,123.283 112.534 C 123.463 111.810,123.740 110.630,123.899 109.913 C 124.518 107.130,124.706 106.309,124.977 105.217 C 125.132 104.596,125.323 103.713,125.402 103.257 C 125.481 102.801,125.621 102.175,125.713 101.866 C 125.805 101.557,126.000 100.757,126.146 100.087 C 126.928 96.494,127.194 95.310,127.395 94.522 C 127.516 94.043,127.746 93.026,127.906 92.261 C 128.066 91.496,128.304 90.478,128.436 90.000 C 128.567 89.522,128.725 88.817,128.788 88.435 C 128.850 88.052,129.007 87.309,129.136 86.783 C 129.266 86.257,129.417 85.611,129.472 85.348 L 129.572 84.870 133.384 84.870 C 137.758 84.870,137.490 84.740,137.036 86.631 C 136.501 88.858,135.881 91.568,135.211 94.609 C 134.373 98.412,133.909 100.492,133.503 102.261 C 133.361 102.883,133.126 103.939,132.982 104.609 C 132.487 106.911,131.740 110.194,131.108 112.844 C 130.827 114.025,130.770 114.550,130.901 114.757 C 131.114 115.095,279.885 115.303,283.826 114.971 C 285.789 114.806,286.652 114.594,288.480 113.827 L 289.395 113.444 290.798 114.136 C 293.309 115.375,292.559 115.338,312.802 115.205 C 323.155 115.137,330.948 115.151,331.001 115.239 C 331.118 115.431,330.815 117.015,330.074 120.087 C 329.959 120.565,329.805 121.309,329.731 121.739 C 329.658 122.170,329.432 123.265,329.229 124.174 C 328.549 127.216,328.477 127.632,328.581 127.904 C 328.750 128.345,351.742 128.312,351.974 127.870 C 352.062 127.702,352.382 126.391,352.686 124.957 C 352.990 123.522,353.343 121.917,353.471 121.391 C 353.840 119.869,354.230 118.089,354.453 116.900 C 354.779 115.160,353.813 115.304,365.104 115.304 C 375.410 115.304,377.182 115.213,378.925 114.589 C 382.574 113.285,385.803 110.721,387.503 107.778 C 388.781 105.567,389.196 104.109,391.134 95.043 C 391.339 94.087,391.588 92.952,391.688 92.522 C 391.989 91.222,392.353 89.528,392.520 88.638 C 392.608 88.176,392.792 87.393,392.929 86.899 C 393.067 86.405,393.230 85.648,393.292 85.217 C 393.354 84.787,393.475 84.200,393.561 83.913 C 396.111 75.366,393.475 69.663,386.522 68.680 C 384.096 68.338,305.849 68.311,303.863 68.652 C 302.487 68.889,301.080 69.326,299.624 69.969 L 298.696 70.378 297.317 69.677 C 294.895 68.445,295.348 68.471,275.087 68.402 C 259.664 68.350,257.043 68.306,257.043 68.095 C 257.043 67.960,257.128 67.628,257.232 67.359 C 257.336 67.090,257.496 66.400,257.588 65.826 C 257.679 65.252,257.822 64.548,257.905 64.261 C 257.987 63.974,258.182 63.152,258.338 62.435 C 258.769 60.457,259.304 58.115,259.577 57.009 C 259.856 55.883,259.789 55.556,259.249 55.411 C 258.599 55.237,236.872 55.291,236.542 55.468 C 236.200 55.651,236.024 56.184,235.480 58.696 C 235.273 59.652,234.997 60.904,234.866 61.478 C 234.736 62.052,234.504 63.109,234.352 63.826 C 233.809 66.384,233.526 67.569,233.397 67.826 C 233.284 68.052,231.793 68.100,222.155 68.184 C 212.278 68.270,210.959 68.313,210.282 68.575 C 209.864 68.737,209.398 68.870,209.247 68.870 C 209.096 68.870,208.240 69.226,207.344 69.662 L 205.715 70.454 204.814 69.955 C 201.952 68.369,204.111 68.456,166.286 68.397 C 134.749 68.347,133.014 68.328,133.125 68.042 C 133.189 67.875,133.304 67.426,133.380 67.043 C 133.457 66.661,133.654 65.800,133.820 65.130 C 134.311 63.144,134.559 62.080,134.874 60.609 C 135.038 59.843,135.319 58.649,135.499 57.955 C 135.886 56.462,135.912 55.766,135.592 55.501 C 135.427 55.364,132.129 55.294,124.347 55.262 L 113.336 55.217 112.767 53.599 C 111.603 50.284,110.596 49.097,108.373 48.423 C 106.306 47.795,105.115 48.281,103.691 50.335 C 102.490 52.065,100.825 53.575,100.134 53.560 C 100.012 53.558,99.727 53.186,99.500 52.734 C 98.002 49.755,96.338 48.094,91.624 44.870 C 91.274 44.631,89.985 43.574,88.759 42.522 C 81.479 36.270,77.376 34.591,71.130 35.309 M58.128 35.889 C 56.179 37.031,55.620 37.422,54.677 38.304 C 54.076 38.866,53.170 39.967,52.664 40.750 C 51.961 41.835,51.729 42.087,51.688 41.809 C 51.535 40.766,53.965 37.312,55.378 36.564 C 56.663 35.884,59.200 35.262,58.128 35.889 M75.913 35.749 C 80.058 36.463,83.075 38.103,87.887 42.258 C 90.331 44.369,91.465 45.253,93.565 46.683 C 96.086 48.399,97.833 50.324,99.138 52.826 C 100.091 54.653,101.551 53.984,103.920 50.634 C 105.167 48.871,105.590 48.632,107.297 48.731 C 110.042 48.890,111.055 49.961,112.610 54.348 C 112.780 54.826,112.995 55.315,113.089 55.435 C 113.223 55.605,115.673 55.652,124.288 55.652 C 136.804 55.652,135.688 55.488,135.245 57.262 C 134.898 58.650,134.599 59.943,133.826 63.391 C 133.484 64.922,133.082 66.593,132.935 67.105 C 132.787 67.616,132.713 68.221,132.770 68.447 L 132.874 68.859 167.176 68.910 L 201.478 68.961 202.824 69.452 C 203.564 69.722,204.448 70.132,204.788 70.363 C 205.593 70.909,205.796 70.895,207.136 70.197 C 207.755 69.875,208.652 69.489,209.130 69.340 C 209.609 69.190,210.313 68.971,210.696 68.852 C 211.209 68.693,214.224 68.621,222.174 68.576 C 228.104 68.543,233.124 68.479,233.329 68.433 C 233.778 68.334,233.846 68.170,234.264 66.174 C 234.445 65.313,234.759 63.865,234.963 62.957 C 235.460 60.743,235.576 60.207,235.987 58.194 C 236.181 57.248,236.461 56.287,236.611 56.059 L 236.882 55.645 247.992 55.692 C 254.102 55.718,259.154 55.792,259.218 55.856 C 259.283 55.920,259.202 56.586,259.039 57.334 C 258.875 58.083,258.644 59.165,258.523 59.739 C 258.403 60.313,257.938 62.413,257.490 64.405 C 257.042 66.398,256.699 68.198,256.729 68.405 L 256.783 68.783 275.652 68.870 L 294.522 68.957 295.753 69.414 C 296.430 69.665,297.309 70.076,297.706 70.327 C 298.607 70.896,298.693 70.894,299.939 70.285 C 300.498 70.011,301.543 69.600,302.261 69.372 L 303.565 68.957 345.043 68.957 C 390.846 68.957,387.200 68.871,389.675 70.003 C 393.050 71.547,395.047 76.423,393.911 80.349 C 393.815 80.683,393.661 81.387,393.569 81.913 C 393.343 83.216,392.158 88.726,391.568 91.217 C 391.432 91.791,391.155 93.043,390.953 94.000 C 390.751 94.957,390.475 96.209,390.339 96.783 C 390.203 97.357,389.886 98.765,389.634 99.913 C 388.565 104.795,388.355 105.471,387.352 107.271 C 385.916 109.850,383.095 112.392,380.295 113.630 C 377.464 114.882,377.946 114.839,365.827 114.913 C 353.601 114.988,354.377 114.900,354.179 116.233 C 354.120 116.631,353.960 117.426,353.824 118.000 C 353.587 118.999,353.155 120.954,352.594 123.565 C 351.881 126.880,351.748 127.407,351.573 127.606 C 351.349 127.860,329.262 127.940,329.009 127.688 C 328.928 127.606,328.972 127.078,329.107 126.509 C 329.243 125.942,329.485 124.852,329.644 124.087 C 329.804 123.322,330.081 122.030,330.259 121.217 C 330.437 120.404,330.698 119.191,330.838 118.522 C 330.978 117.852,331.191 116.861,331.310 116.319 C 331.699 114.550,333.760 114.716,313.257 114.862 C 292.677 115.007,292.996 115.027,290.289 113.450 C 289.475 112.976,289.468 112.977,287.913 113.628 C 285.134 114.792,292.560 114.688,208.087 114.743 C 128.126 114.795,131.030 114.815,131.205 114.210 C 131.266 113.999,131.476 113.122,131.671 112.261 C 131.867 111.400,132.145 110.187,132.289 109.565 C 132.665 107.946,133.225 105.421,133.388 104.609 C 133.464 104.226,133.735 103.013,133.989 101.913 C 134.244 100.813,134.519 99.600,134.601 99.217 C 134.682 98.835,134.918 97.778,135.124 96.870 C 135.519 95.128,135.678 94.414,136.420 91.043 C 136.673 89.896,137.032 88.330,137.217 87.565 C 138.030 84.212,138.410 84.492,133.138 84.560 L 129.319 84.609 129.090 85.391 C 128.964 85.822,128.749 86.683,128.612 87.304 C 127.882 90.611,127.447 92.542,127.221 93.478 C 126.974 94.496,126.653 95.892,126.261 97.652 C 126.154 98.130,125.914 99.187,125.728 100.000 C 125.541 100.813,125.278 101.987,125.143 102.609 C 125.008 103.230,124.780 104.248,124.637 104.870 C 124.493 105.491,124.206 106.743,124.000 107.652 C 123.794 108.561,123.518 109.774,123.388 110.348 C 123.257 110.922,123.000 112.085,122.815 112.932 C 122.630 113.780,122.372 114.542,122.240 114.625 C 121.804 114.901,100.075 114.822,99.844 114.543 C 99.650 114.309,99.827 113.285,100.617 110.087 C 100.747 109.561,101.018 108.387,101.221 107.478 C 101.423 106.570,101.693 105.357,101.822 104.783 C 101.950 104.209,102.189 103.113,102.353 102.348 C 102.728 100.599,103.040 99.207,103.407 97.652 C 103.565 96.983,103.754 96.122,103.827 95.739 C 104.066 94.478,105.254 89.268,105.860 86.814 C 106.247 85.249,106.131 85.202,103.970 86.065 C 100.902 87.290,95.065 87.898,92.923 87.216 C 92.400 87.050,91.712 87.760,91.551 88.633 C 90.922 92.043,87.154 94.957,83.371 94.957 C 81.052 94.957,79.745 94.279,76.953 91.627 C 76.263 90.971,75.610 90.435,75.502 90.435 C 75.262 90.435,75.237 91.242,75.472 91.387 C 75.564 91.444,75.715 91.742,75.808 92.050 C 75.902 92.357,76.325 93.522,76.749 94.638 C 77.685 97.099,77.867 98.105,77.989 101.478 C 78.065 103.557,78.159 104.281,78.452 105.043 C 79.384 107.463,78.404 110.169,76.335 110.888 C 74.927 111.378,67.855 111.374,65.846 110.882 C 64.241 110.489,64.517 110.379,61.950 112.435 C 60.737 113.406,59.986 114.167,59.459 114.957 C 56.910 118.781,52.820 119.254,49.641 116.091 C 45.182 111.655,43.148 106.012,45.288 104.013 C 46.068 103.284,45.900 103.132,44.304 103.120 C 43.515 103.114,42.508 103.050,42.067 102.977 C 40.648 102.743,40.522 102.880,40.521 104.647 C 40.519 106.168,40.516 106.179,39.721 107.391 C 38.405 109.400,38.091 110.192,38.089 111.513 C 38.081 116.687,35.498 117.792,27.739 115.941 C 20.422 114.195,18.850 112.620,20.530 108.714 C 21.058 107.488,20.963 107.241,19.911 107.107 C 14.805 106.457,10.259 101.841,9.623 96.662 C 9.462 95.352,9.622 95.087,12.061 92.631 C 14.993 89.679,15.719 88.157,15.321 85.792 C 15.181 84.959,15.119 83.088,15.147 80.512 C 15.195 75.935,15.334 76.320,13.537 76.063 C 11.418 75.760,10.525 74.881,9.748 72.332 C 9.555 71.702,9.251 70.998,9.072 70.767 C 6.826 67.886,9.096 63.383,14.036 60.918 C 16.487 59.696,17.149 59.753,16.538 61.134 C 16.089 62.149,16.078 62.693,16.496 63.224 C 17.068 63.952,17.303 65.575,17.043 67.010 C 16.744 68.660,16.630 68.754,15.935 67.927 C 15.292 67.161,14.959 67.204,14.953 68.054 C 14.951 68.359,14.794 68.950,14.605 69.367 C 14.182 70.299,14.171 70.609,14.562 70.609 C 15.035 70.609,16.522 69.520,16.631 69.093 C 16.686 68.880,17.011 68.569,17.359 68.397 C 17.854 68.153,18.300 67.594,19.449 65.779 C 24.051 58.509,30.562 54.638,41.800 52.489 L 43.861 52.095 45.713 50.374 C 48.773 47.529,49.497 47.077,51.855 46.541 C 52.166 46.470,52.688 45.963,53.440 45.000 C 56.085 41.618,59.011 39.440,62.957 37.916 C 63.483 37.713,64.070 37.477,64.261 37.392 C 65.099 37.019,68.701 36.026,69.652 35.906 C 70.226 35.834,71.126 35.719,71.652 35.652 C 73.267 35.445,74.283 35.468,75.913 35.749 M53.304 37.124 C 51.885 38.431,51.693 38.508,52.166 37.582 C 52.589 36.752,53.500 36.004,54.087 36.003 C 54.470 36.003,54.376 36.137,53.304 37.124 M72.348 37.746 C 66.297 38.343,59.542 41.413,56.430 44.981 C 54.854 46.788,54.903 46.884,57.372 46.813 C 58.937 46.768,59.326 46.804,59.266 46.984 C 59.178 47.248,58.811 47.345,56.435 47.735 C 50.803 48.658,51.088 48.537,48.472 51.105 C 45.782 53.745,37.784 62.858,36.724 64.491 C 33.163 69.975,32.993 71.714,35.668 75.285 C 36.429 76.300,37.254 77.541,37.503 78.043 C 38.160 79.374,38.322 79.295,40.327 76.652 C 42.682 73.548,43.466 72.672,43.473 73.139 C 43.476 73.335,43.400 73.574,43.305 73.669 C 42.466 74.508,38.379 82.340,38.083 83.677 C 37.784 85.029,37.937 85.444,39.234 86.787 C 42.301 89.964,44.776 90.006,50.434 86.975 C 54.113 85.005,55.844 84.264,57.614 83.903 C 59.626 83.493,59.698 83.450,60.224 82.377 C 61.421 79.932,61.621 75.930,60.810 70.638 C 60.091 65.945,60.193 59.965,60.997 59.697 C 61.111 59.659,61.223 60.308,61.297 61.427 C 61.409 63.127,61.770 65.843,62.345 69.304 C 62.487 70.165,62.723 71.585,62.867 72.460 C 63.417 75.781,63.072 79.941,61.977 83.205 C 61.314 85.183,61.339 85.158,59.853 85.317 C 57.562 85.563,54.846 86.661,50.174 89.231 C 44.826 92.173,41.760 91.876,37.709 88.025 L 35.965 86.367 36.035 85.140 C 36.074 84.465,36.287 83.349,36.509 82.660 L 36.913 81.406 36.349 80.225 C 36.038 79.575,35.227 78.261,34.545 77.304 C 32.270 74.111,32.004 73.655,31.654 72.355 C 31.373 71.312,31.750 69.918,32.996 67.391 C 34.742 63.848,35.831 62.245,38.947 58.620 C 42.320 54.698,42.319 54.701,39.613 55.304 C 28.474 57.786,21.922 63.368,18.178 73.565 C 16.443 78.288,16.895 86.114,19.240 91.965 C 20.406 94.877,22.275 98.472,24.140 101.391 C 24.568 102.062,24.555 102.871,24.083 104.957 C 23.952 105.530,23.792 106.272,23.727 106.605 C 23.661 106.938,23.383 107.877,23.110 108.692 C 22.129 111.618,22.797 112.287,28.000 113.589 C 33.972 115.084,35.408 114.691,35.631 111.501 L 35.748 109.826 36.972 107.739 C 38.644 104.891,38.608 105.043,38.616 100.800 C 38.623 96.900,38.848 96.384,39.335 99.149 C 39.583 100.558,39.695 100.609,43.105 100.851 C 46.121 101.066,50.791 100.748,51.543 100.277 C 51.723 100.165,52.075 99.506,52.326 98.812 C 53.018 96.898,53.130 97.117,53.132 100.391 C 53.133 103.439,53.117 103.518,52.609 102.957 C 52.163 102.465,52.011 102.503,50.534 103.482 C 49.809 103.962,48.910 104.514,48.536 104.709 C 47.181 105.415,46.907 105.809,46.992 106.923 C 47.176 109.309,50.671 114.467,52.773 115.456 C 54.501 116.268,55.531 115.773,57.674 113.101 C 57.972 112.729,59.817 111.156,61.773 109.607 C 65.566 106.603,65.970 106.164,68.136 102.680 C 70.208 99.347,72.604 92.856,73.124 89.163 C 73.268 88.144,73.192 88.042,71.758 87.314 C 70.703 86.778,68.174 84.676,68.174 84.334 C 68.174 84.036,68.543 84.172,69.801 84.936 C 71.316 85.856,73.166 86.734,74.288 87.068 C 75.181 87.333,75.450 87.530,77.837 89.669 C 80.868 92.385,81.867 92.930,83.826 92.942 C 86.609 92.958,88.966 90.940,89.854 87.782 C 90.227 86.452,90.220 86.382,89.695 86.192 C 89.052 85.960,88.931 86.112,88.504 87.681 C 87.899 89.909,87.082 90.522,84.718 90.522 C 82.741 90.522,82.490 90.770,83.992 91.238 C 85.463 91.697,85.187 92.165,83.586 91.925 C 81.347 91.589,80.569 89.624,81.461 86.556 C 81.869 85.151,82.065 83.352,81.917 82.373 C 81.759 81.333,81.972 81.205,82.897 81.787 C 85.693 83.544,92.575 85.295,96.696 85.298 C 104.293 85.303,109.275 81.074,111.500 72.729 C 113.227 66.254,111.370 53.304,108.430 51.320 C 107.099 50.421,106.823 50.577,104.158 53.746 C 103.385 54.665,102.878 54.987,100.652 55.976 C 100.198 56.178,99.826 56.419,99.826 56.512 C 99.826 56.605,99.623 56.870,99.374 57.100 C 99.109 57.347,98.932 57.690,98.945 57.934 C 99.256 63.690,99.114 65.508,98.102 68.780 C 97.724 70.001,97.283 70.337,97.441 69.284 C 98.497 62.237,98.268 60.814,96.266 61.988 C 95.303 62.552,94.723 63.380,94.249 64.864 C 93.700 66.584,93.539 66.957,93.346 66.957 C 92.868 66.957,93.604 63.081,94.297 61.947 C 94.732 61.236,94.651 61.146,93.791 61.377 C 92.833 61.635,91.809 62.579,91.155 63.807 C 90.223 65.555,89.886 65.192,90.670 63.286 C 91.652 60.900,94.275 59.547,96.460 60.298 C 97.142 60.532,97.391 60.406,97.391 59.824 C 97.391 59.078,96.982 58.783,95.944 58.780 C 94.757 58.776,94.373 58.549,94.913 58.169 C 96.122 57.318,94.642 55.959,93.195 56.593 C 92.987 56.684,92.884 56.602,92.804 56.283 C 92.744 56.044,92.534 55.798,92.338 55.736 C 91.911 55.600,91.981 55.240,92.449 55.162 C 92.633 55.131,93.364 54.869,94.075 54.578 C 95.218 54.112,95.441 54.073,96.008 54.243 C 97.497 54.689,97.528 54.499,96.304 52.440 C 94.788 49.889,92.439 47.830,90.719 47.545 C 89.418 47.330,89.367 47.306,89.479 46.954 C 89.634 46.466,89.463 46.256,87.913 45.031 C 87.148 44.426,86.436 43.849,86.331 43.748 C 85.436 42.886,82.343 40.448,81.777 40.158 C 81.517 40.025,80.949 39.712,80.515 39.463 C 79.163 38.686,74.533 37.403,73.760 37.591 C 73.701 37.606,73.065 37.676,72.348 37.746 M75.522 38.183 C 79.471 38.847,81.200 39.811,86.638 44.378 C 87.626 45.208,88.630 46.045,88.870 46.238 L 89.304 46.589 88.730 46.793 C 87.683 47.165,88.070 47.546,89.654 47.702 C 91.939 47.927,93.878 49.331,95.673 52.059 C 96.732 53.670,96.938 54.226,96.391 53.996 C 95.671 53.694,95.290 53.757,93.478 54.484 C 91.368 55.331,90.995 55.741,91.993 56.118 C 92.447 56.289,92.522 56.406,92.522 56.941 C 92.522 57.655,92.815 57.759,93.304 57.217 C 93.742 56.734,94.719 56.742,94.874 57.230 C 95.011 57.663,95.038 57.633,94.187 57.986 C 93.724 58.177,93.447 58.212,93.327 58.092 C 93.118 57.883,92.348 58.530,92.348 58.915 C 92.348 59.109,92.648 59.153,93.783 59.128 C 96.151 59.075,96.658 59.118,96.937 59.396 C 97.441 59.900,97.117 60.129,96.173 59.935 C 93.482 59.384,91.210 60.859,90.178 63.829 C 89.930 64.545,89.651 65.266,89.559 65.432 C 89.321 65.861,89.351 66.261,89.622 66.261 C 89.976 66.261,90.504 65.598,91.214 64.261 C 92.113 62.567,92.969 61.739,93.821 61.739 C 94.057 61.739,94.048 61.829,93.754 62.406 C 93.428 63.045,93.025 64.913,92.771 66.957 C 92.706 67.483,92.581 68.102,92.494 68.333 C 92.393 68.599,92.399 68.816,92.511 68.929 C 92.871 69.289,93.375 68.462,94.011 66.463 C 95.053 63.189,95.938 61.913,97.167 61.913 C 98.018 61.913,98.000 64.848,97.124 69.206 C 96.823 70.705,96.970 71.075,97.624 70.461 C 98.795 69.361,99.753 63.188,99.328 59.480 C 99.082 57.331,99.162 57.229,100.713 57.727 C 101.944 58.121,103.191 57.955,104.166 57.265 C 104.410 57.092,104.833 56.837,105.107 56.697 C 105.883 56.299,106.998 54.946,107.632 53.632 C 107.950 52.974,108.266 52.322,108.335 52.184 C 109.005 50.839,110.626 55.544,111.418 61.130 C 113.418 75.228,107.515 84.890,96.870 84.945 C 93.056 84.965,86.414 83.392,83.364 81.747 C 81.626 80.809,81.656 80.785,81.634 83.145 C 81.624 84.271,81.524 85.356,81.403 85.652 C 79.901 89.323,81.274 92.348,84.441 92.348 C 85.152 92.348,85.262 92.682,84.565 92.725 C 82.354 92.862,81.111 92.232,77.826 89.313 C 75.638 87.369,75.259 87.103,74.087 86.687 C 72.382 86.084,70.305 85.035,69.025 84.132 C 67.210 82.853,67.215 84.159,69.031 85.755 C 69.468 86.139,69.949 86.566,70.099 86.702 C 70.249 86.839,70.914 87.250,71.577 87.615 L 72.783 88.279 72.732 89.053 C 72.623 90.708,70.563 97.317,69.455 99.565 C 67.920 102.682,65.549 106.184,64.309 107.168 C 58.724 111.599,57.506 112.621,57.152 113.177 C 55.813 115.280,54.162 115.891,52.479 114.905 C 50.588 113.796,47.130 108.443,47.130 106.623 C 47.130 106.060,47.806 105.460,49.887 104.175 C 52.097 102.811,52.222 102.776,52.630 103.399 C 52.789 103.643,53.040 103.819,53.187 103.791 C 53.451 103.740,53.585 96.657,53.326 96.399 C 53.028 96.101,52.652 96.699,52.159 98.255 C 51.714 99.658,51.531 100.021,51.237 100.083 C 48.267 100.712,40.549 100.698,39.914 100.063 C 39.795 99.944,39.608 99.244,39.498 98.506 C 39.272 96.988,38.984 96.261,38.606 96.261 C 38.231 96.261,38.094 97.748,38.110 101.652 C 38.125 105.309,38.150 105.179,37.098 106.828 C 36.685 107.474,36.348 108.041,36.348 108.086 C 36.348 108.132,36.113 108.550,35.826 109.017 C 35.365 109.765,35.304 110.021,35.304 111.199 C 35.304 114.264,34.275 114.635,28.957 113.488 C 23.278 112.264,22.382 111.559,23.307 109.041 C 24.718 105.198,25.066 101.681,24.114 100.892 C 23.956 100.760,23.826 100.592,23.826 100.517 C 23.826 100.442,23.363 99.599,22.796 98.645 C 21.336 96.187,19.541 92.245,19.136 90.609 C 19.053 90.274,18.784 89.296,18.539 88.435 C 16.475 81.204,17.325 74.814,21.272 67.876 C 24.467 62.259,30.900 57.706,37.826 56.159 C 38.687 55.967,39.663 55.737,39.996 55.648 C 41.087 55.357,40.910 55.743,38.869 58.103 C 36.116 61.288,34.473 63.729,32.736 67.217 C 30.558 71.591,30.719 72.611,34.382 77.652 C 36.261 80.239,36.579 81.183,36.125 82.820 C 35.973 83.366,35.794 84.363,35.728 85.034 L 35.608 86.255 36.978 87.668 C 39.896 90.677,41.328 91.392,44.435 91.389 C 46.980 91.387,46.854 91.428,50.435 89.479 C 53.056 88.053,54.389 87.386,55.478 86.956 C 56.004 86.749,56.678 86.475,56.976 86.347 C 57.274 86.220,57.900 86.060,58.367 85.992 C 60.071 85.745,61.452 85.405,61.656 85.183 C 62.839 83.898,63.887 75.982,63.297 72.783 C 63.209 72.304,63.023 71.130,62.883 70.174 C 62.743 69.217,62.436 67.300,62.202 65.913 C 61.967 64.526,61.724 62.609,61.663 61.652 C 61.500 59.102,61.432 58.783,61.049 58.783 C 60.124 58.783,59.669 64.783,60.271 69.043 C 61.333 76.565,61.208 79.942,59.763 82.737 C 59.524 83.198,59.363 83.287,58.569 83.389 C 56.783 83.621,54.064 84.691,50.957 86.385 C 50.430 86.672,49.412 87.226,48.693 87.617 C 46.912 88.584,44.926 89.124,44.048 88.880 C 43.687 88.780,43.167 88.697,42.894 88.697 C 41.380 88.694,38.261 85.992,38.261 84.684 C 38.261 83.119,40.345 78.756,43.345 74.039 C 44.000 73.008,44.490 72.089,44.432 71.996 C 44.221 71.653,43.853 71.845,43.174 72.652 C 41.600 74.523,40.709 75.644,39.649 77.087 C 38.400 78.786,38.222 78.873,37.784 77.998 C 37.616 77.663,36.794 76.378,35.957 75.143 C 33.713 71.833,33.658 71.352,35.166 68.174 C 36.572 65.210,37.714 63.526,40.174 60.790 C 40.700 60.205,41.600 59.185,42.174 58.523 C 50.063 49.425,50.661 48.962,55.558 48.165 C 57.660 47.823,59.460 47.501,60.348 47.307 C 60.874 47.192,61.486 47.064,61.707 47.021 C 61.974 46.970,62.091 46.844,62.052 46.646 C 61.989 46.317,58.660 46.237,56.739 46.519 C 55.977 46.631,55.826 46.609,55.826 46.387 C 55.826 45.950,58.803 43.089,59.920 42.453 C 60.490 42.129,61.152 41.733,61.391 41.574 C 61.630 41.415,62.100 41.179,62.435 41.050 C 62.770 40.920,63.357 40.683,63.739 40.521 C 66.761 39.246,69.964 38.341,72.348 38.088 C 72.970 38.022,73.576 37.955,73.696 37.940 C 73.815 37.925,74.637 38.035,75.522 38.183 M74.357 50.810 C 71.637 51.884,70.438 53.421,70.436 55.836 C 70.434 57.470,71.271 57.936,71.567 56.466 C 71.910 54.761,73.111 53.071,74.859 51.834 C 76.726 50.512,76.464 49.978,74.357 50.810 M59.447 50.698 C 59.398 50.747,58.426 50.863,57.288 50.957 C 52.919 51.315,52.188 51.592,51.035 53.328 C 49.117 56.218,46.858 63.306,47.761 63.602 C 47.950 63.664,48.870 62.112,48.870 61.731 C 48.870 61.628,49.074 61.098,49.323 60.554 C 49.572 60.010,49.926 59.188,50.108 58.726 C 50.528 57.666,51.770 55.394,52.064 55.150 C 52.242 55.002,52.285 55.288,52.277 56.590 C 52.267 58.292,52.439 58.783,53.046 58.783 C 53.372 58.783,53.565 58.452,53.565 57.894 C 53.565 56.062,56.065 52.546,57.391 52.512 C 58.144 52.493,60.935 51.539,61.124 51.236 C 61.409 50.778,59.863 50.282,59.447 50.698 M59.980 51.114 C 60.294 51.313,59.953 51.487,58.435 51.901 C 56.113 52.533,55.940 52.631,55.097 53.785 C 54.134 55.103,53.461 56.408,53.299 57.272 C 52.992 58.909,52.410 57.510,52.687 55.802 C 52.920 54.366,52.916 54.261,52.624 54.261 C 52.063 54.261,50.559 56.735,49.293 59.739 C 47.980 62.855,47.688 62.276,48.859 58.880 C 50.982 52.723,51.804 51.856,55.946 51.407 C 57.458 51.243,58.852 51.086,59.043 51.057 C 59.690 50.959,59.739 50.962,59.980 51.114 M75.130 51.125 C 75.130 51.218,74.720 51.599,74.217 51.973 C 72.781 53.042,71.304 55.173,71.304 56.176 C 71.304 56.355,71.217 56.555,71.111 56.621 C 70.461 57.023,70.557 54.624,71.238 53.440 C 71.921 52.254,75.130 50.345,75.130 51.125 M107.696 51.232 C 107.829 51.365,105.962 53.822,105.105 54.641 C 103.643 56.040,100.828 57.245,100.287 56.705 C 100.044 56.462,100.328 56.251,101.242 55.998 C 102.360 55.688,103.402 54.983,104.365 53.884 C 106.787 51.119,107.230 50.766,107.696 51.232 M107.761 52.718 C 107.272 55.164,103.049 58.328,101.323 57.542 C 100.783 57.296,100.931 57.146,102.000 56.853 C 103.537 56.433,105.765 54.689,106.933 52.991 C 107.591 52.035,107.919 51.927,107.761 52.718 M80.348 57.135 C 77.801 57.808,77.649 57.922,74.304 61.641 C 73.025 63.064,73.221 63.554,74.758 62.769 C 75.202 62.542,75.615 62.331,75.676 62.300 C 75.737 62.270,75.866 62.464,75.963 62.731 C 76.410 63.961,77.217 64.158,77.217 63.037 C 77.217 62.031,78.228 61.450,79.045 61.985 C 79.676 62.399,79.597 62.592,78.358 63.652 C 77.506 64.381,77.173 64.804,76.955 65.431 C 76.446 66.899,76.911 66.994,78.160 65.677 C 79.851 63.893,82.372 62.246,85.189 61.085 C 86.519 60.537,86.312 60.250,84.625 60.303 L 83.285 60.345 83.049 59.781 C 82.919 59.471,82.610 59.028,82.363 58.796 C 81.801 58.269,81.798 58.029,82.348 57.596 C 83.501 56.689,82.719 56.509,80.348 57.135 M81.842 57.579 C 81.282 58.244,81.282 58.355,81.837 58.719 C 82.082 58.879,82.475 59.390,82.709 59.853 L 83.136 60.696 84.133 60.702 L 85.130 60.708 83.214 61.702 C 81.325 62.682,79.008 64.316,78.011 65.372 C 77.730 65.670,77.437 65.913,77.359 65.913 C 77.056 65.913,77.239 65.182,77.633 64.818 C 79.987 62.647,80.166 62.340,79.435 61.729 C 78.560 61.000,77.555 61.370,76.765 62.714 C 76.589 63.014,76.551 62.995,76.282 62.476 C 75.932 61.799,75.727 61.779,74.957 62.348 C 73.713 63.265,73.596 62.830,74.739 61.540 C 77.232 58.729,77.935 58.138,79.217 57.774 C 82.223 56.923,82.405 56.909,81.842 57.579 M8.522 60.282 C 8.091 60.618,7.480 61.143,7.163 61.447 C 6.641 61.948,6.570 61.971,6.415 61.696 C 6.055 61.056,4.408 62.232,3.805 63.558 C 3.224 64.837,3.476 67.249,4.087 66.261 C 4.387 65.775,4.503 66.263,4.494 67.977 C 4.483 70.108,4.591 70.654,5.011 70.573 C 5.352 70.508,5.449 70.197,5.844 67.913 C 6.181 65.962,7.059 63.844,8.019 62.669 C 8.343 62.272,8.941 61.541,9.348 61.045 C 10.555 59.572,10.039 59.096,8.522 60.282 M9.043 60.665 C 9.043 60.743,8.609 61.350,8.077 62.012 C 6.877 63.509,6.043 65.215,5.589 67.105 C 5.203 68.710,5.130 68.851,4.837 68.559 C 4.686 68.408,4.687 68.192,4.840 67.681 C 4.952 67.308,5.043 66.801,5.043 66.554 C 5.043 64.734,6.435 62.325,8.243 61.014 C 8.982 60.478,9.043 60.451,9.043 60.665 M5.536 62.391 C 5.035 63.507,4.277 64.870,4.156 64.870 C 3.936 64.870,3.962 64.051,4.195 63.597 C 4.556 62.894,5.820 61.757,5.536 62.391 M12.407 64.125 C 9.991 66.469,9.482 67.929,10.418 69.826 C 10.701 70.400,11.136 71.426,11.385 72.105 C 12.525 75.220,16.342 75.297,16.927 72.217 C 17.063 71.505,16.770 71.474,15.720 72.089 C 14.128 73.022,12.971 72.853,12.365 71.600 C 11.894 70.627,11.905 70.331,12.442 69.628 C 13.059 68.819,13.391 67.776,13.395 66.630 C 13.398 66.092,13.484 65.339,13.588 64.957 C 14.118 62.998,13.799 62.773,12.407 64.125 M13.399 64.241 C 13.302 64.495,13.150 65.480,13.061 66.429 C 12.897 68.171,12.836 68.355,11.936 69.814 L 11.437 70.622 11.849 71.405 C 12.799 73.210,13.781 73.518,15.546 72.562 C 16.575 72.005,16.666 72.056,16.334 73.009 C 16.110 73.650,15.387 73.945,13.962 73.978 C 12.760 74.006,12.025 73.311,11.574 71.719 C 11.415 71.156,11.042 70.201,10.746 69.595 C 10.110 68.296,10.208 67.332,11.103 66.097 C 12.507 64.159,13.840 63.082,13.399 64.241 M14.960 64.604 C 14.783 64.817,14.797 64.886,15.036 64.978 C 15.442 65.134,15.735 64.807,15.422 64.547 C 15.231 64.389,15.128 64.402,14.960 64.604 M15.896 68.465 C 16.271 68.978,16.177 69.244,15.424 69.806 C 14.882 70.210,14.643 70.076,14.917 69.521 C 15.023 69.306,15.160 68.876,15.221 68.565 C 15.354 67.886,15.462 67.870,15.896 68.465 M81.826 78.871 C 81.730 78.904,81.199 79.057,80.645 79.212 C 79.377 79.565,79.065 80.032,78.769 82.028 C 78.416 84.395,78.892 84.500,79.905 82.280 C 80.503 80.966,80.830 80.634,82.136 80.012 C 83.002 79.599,83.478 79.220,83.478 78.944 C 83.478 78.793,82.210 78.737,81.826 78.871 M82.392 79.348 C 82.353 79.467,81.896 79.800,81.377 80.087 C 80.542 80.549,80.365 80.751,79.826 81.860 C 79.114 83.323,78.870 83.455,79.006 82.301 C 79.144 81.141,79.575 79.972,79.947 79.751 C 80.773 79.261,82.515 78.974,82.392 79.348 M222.311 84.635 C 221.908 84.798,221.435 85.834,221.132 87.217 C 220.964 87.983,220.711 89.078,220.571 89.652 C 220.430 90.226,220.252 91.048,220.175 91.478 C 220.098 91.909,219.861 93.004,219.649 93.913 C 218.464 98.992,218.317 98.783,223.066 98.783 C 227.175 98.783,226.527 99.610,228.173 92.261 C 228.366 91.400,228.637 90.187,228.777 89.565 C 229.632 85.757,229.770 85.026,229.678 84.787 C 229.578 84.527,222.916 84.389,222.311 84.635 M267.739 84.820 C 266.782 85.052,266.432 85.804,265.739 89.130 C 265.539 90.087,265.264 91.339,265.127 91.913 C 264.990 92.487,264.716 93.739,264.517 94.696 C 264.319 95.652,264.082 96.718,263.991 97.064 C 263.473 99.040,263.653 99.118,268.762 99.125 C 274.384 99.132,274.030 99.398,275.128 94.348 C 275.336 93.391,275.616 92.139,275.751 91.565 C 277.106 85.773,277.148 85.298,276.355 84.874 C 276.024 84.696,268.445 84.649,267.739 84.820 M314.797 85.000 C 313.996 85.410,313.814 85.947,312.693 91.217 C 312.339 92.882,312.176 93.612,311.574 96.210 C 310.893 99.152,310.858 99.130,316.294 99.130 L 320.510 99.130 321.111 98.602 C 321.559 98.209,321.764 97.842,321.913 97.167 C 322.023 96.669,322.226 95.752,322.364 95.130 C 322.502 94.509,322.768 93.296,322.955 92.435 C 323.142 91.574,323.492 90.013,323.733 88.967 C 324.768 84.467,324.995 84.696,319.489 84.696 C 315.931 84.696,315.313 84.736,314.797 85.000 M229.308 85.050 C 229.370 85.149,229.304 85.638,229.162 86.137 C 229.020 86.635,228.733 87.826,228.525 88.783 C 228.317 89.739,228.031 91.030,227.888 91.652 C 227.295 94.235,227.140 94.936,226.866 96.261 C 226.369 98.660,226.757 98.435,223.123 98.435 C 219.040 98.435,218.891 98.336,219.550 96.063 C 219.685 95.598,219.926 94.591,220.085 93.826 C 220.244 93.061,220.517 91.809,220.690 91.043 C 220.864 90.278,221.138 89.026,221.299 88.261 C 222.062 84.633,221.741 84.870,225.903 84.870 C 227.989 84.870,229.238 84.936,229.308 85.050 M361.540 85.087 C 361.306 85.278,360.973 86.489,360.524 88.783 C 360.334 89.750,359.728 92.481,359.289 94.348 C 358.709 96.815,358.562 97.602,358.541 98.348 L 358.522 99.043 362.112 99.090 L 365.702 99.137 366.151 98.604 C 366.632 98.032,366.734 97.720,367.308 95.043 C 367.513 94.087,367.790 92.835,367.925 92.261 C 368.059 91.687,368.371 90.278,368.617 89.130 C 368.863 87.983,369.151 86.749,369.256 86.389 C 369.655 85.027,369.236 84.870,365.220 84.870 C 362.746 84.870,361.732 84.929,361.540 85.087 M276.152 85.326 C 276.598 85.638,276.586 86.177,276.089 88.174 C 275.958 88.700,275.683 89.913,275.478 90.870 C 275.273 91.826,275.003 93.039,274.878 93.565 C 274.753 94.091,274.516 95.187,274.352 96.000 C 273.777 98.848,273.910 98.783,268.721 98.783 C 264.294 98.783,263.961 98.690,264.308 97.553 C 264.409 97.225,264.540 96.604,264.600 96.174 C 264.660 95.743,264.779 95.157,264.865 94.870 C 264.951 94.583,265.114 93.917,265.227 93.391 C 266.714 86.511,266.858 85.937,267.185 85.610 C 267.800 84.995,275.338 84.756,276.152 85.326 M323.661 85.364 C 324.101 85.720,324.135 85.371,323.313 88.957 C 323.116 89.817,322.880 90.934,322.790 91.437 C 322.700 91.941,322.579 92.429,322.522 92.521 C 322.465 92.614,322.312 93.259,322.182 93.954 C 321.225 99.073,321.583 98.783,316.243 98.783 C 311.490 98.783,311.412 98.751,311.829 97.002 C 312.004 96.265,312.577 93.682,313.228 90.696 C 313.415 89.835,313.642 88.739,313.732 88.261 C 314.118 86.198,314.462 85.506,315.217 85.279 C 316.466 84.904,323.177 84.971,323.661 85.364 M368.608 85.456 C 368.985 85.732,369.019 85.518,367.675 91.478 C 367.492 92.291,367.211 93.583,367.051 94.348 C 366.063 99.065,366.373 98.783,362.164 98.783 C 359.725 98.783,358.952 98.731,358.936 98.565 C 358.895 98.118,358.988 97.592,359.512 95.304 C 359.807 94.013,360.106 92.643,360.175 92.261 C 360.245 91.878,360.398 91.174,360.516 90.696 C 360.835 89.397,361.177 87.867,361.410 86.696 C 361.525 86.122,361.739 85.554,361.886 85.435 C 362.285 85.111,368.161 85.129,368.608 85.456 M89.739 86.739 C 89.739 87.613,88.807 89.771,88.080 90.579 C 87.161 91.602,85.465 92.524,86.256 91.572 C 86.376 91.427,86.430 91.194,86.376 91.055 C 86.316 90.897,86.416 90.757,86.640 90.686 C 87.521 90.406,88.870 88.581,88.870 87.669 C 88.870 87.096,89.193 86.435,89.474 86.435 C 89.620 86.435,89.739 86.571,89.739 86.739 M16.269 91.508 C 16.133 91.827,15.156 92.946,14.098 93.997 C 11.916 96.163,11.829 96.397,12.526 98.229 C 14.349 103.026,20.424 106.399,22.045 103.515 C 22.582 102.559,22.557 102.428,21.516 100.722 C 19.965 98.181,18.024 94.070,17.399 92.000 C 17.047 90.836,16.632 90.655,16.269 91.508 M17.338 92.855 C 17.831 94.398,19.553 97.992,20.988 100.474 C 22.248 102.653,22.288 103.193,21.248 104.015 C 19.362 105.506,13.903 101.583,12.681 97.858 C 12.171 96.305,12.225 96.189,14.515 93.928 C 15.618 92.837,16.522 91.879,16.522 91.799 C 16.522 91.221,17.024 91.871,17.338 92.855 M73.651 94.130 C 73.609 94.250,73.255 95.365,72.863 96.608 C 71.671 100.397,69.829 103.986,67.623 106.821 C 66.960 107.673,66.483 108.445,66.535 108.581 C 66.785 109.232,75.087 109.277,75.733 108.631 C 76.481 107.883,76.722 106.372,76.236 105.478 C 76.020 105.082,75.917 104.165,75.806 101.652 C 75.725 99.835,75.572 98.035,75.466 97.652 C 74.666 94.782,73.928 93.348,73.651 94.130 M74.224 95.000 C 74.942 96.434,75.304 98.395,75.454 101.652 C 75.561 103.975,75.691 105.177,75.890 105.698 C 76.211 106.538,76.038 107.825,75.528 108.388 C 75.098 108.864,66.957 108.819,66.957 108.341 C 66.957 108.267,67.211 107.896,67.522 107.515 C 69.747 104.792,71.843 100.877,73.036 97.219 C 73.423 96.033,73.739 94.960,73.739 94.835 C 73.739 94.479,74.009 94.570,74.224 95.000 " stroke="none" fill="#9f9f9e" fill-rule="evenodd"></path></g></svg>