<?xml version="1.0" standalone="no"?>
<!DOCTYPE svg PUBLIC "-//W3C//DTD SVG 20010904//EN"
 "http://www.w3.org/TR/2001/REC-SVG-20010904/DTD/svg10.dtd">
<svg version="1.0" xmlns="http://www.w3.org/2000/svg"
 width="200.000000pt" height="94.000000pt" viewBox="0 0 200.000000 94.000000"
 preserveAspectRatio="xMidYMid meet">

<g transform="translate(0.000000,94.000000) scale(0.100000,-0.100000)"
fill="#000000" stroke="none">
<path d="M449 853 c-13 -17 -13 -17 6 -3 11 8 22 16 24 17 2 2 0 3 -6 3 -6 0
-17 -8 -24 -17z"/>
<path d="M419 803 c-13 -16 -12 -17 4 -4 9 7 17 15 17 17 0 8 -8 3 -21 -13z"/>
<path d="M510 816 c0 -2 8 -10 18 -17 15 -13 16 -12 3 4 -13 16 -21 21 -21 13z"/>
<path d="M448 778 c-3 -7 -2 -23 0 -35 3 -18 11 -23 33 -23 16 0 29 3 30 8 0
4 2 17 3 30 2 12 -2 22 -7 22 -5 0 -7 -9 -4 -20 3 -11 1 -20 -4 -20 -9 0 -13
14 -10 38 2 16 -36 16 -41 0z m32 -32 c0 -3 -4 -8 -10 -11 -5 -3 -10 -1 -10 4
0 6 5 11 10 11 6 0 10 -2 10 -4z"/>
<path d="M400 738 c0 -8 7 -21 15 -28 19 -16 19 -1 0 24 -12 16 -15 17 -15 4z"/>
<path d="M531 724 c-12 -27 -11 -28 4 -12 10 9 16 21 13 28 -2 7 -10 -1 -17
-16z"/>
<path d="M1000 645 c0 -63 4 -105 10 -105 6 0 10 35 10 86 l0 87 66 -87 c36
-47 72 -86 80 -86 11 0 14 21 12 108 -2 102 -2 103 -5 25 -2 -46 -7 -83 -11
-83 -4 1 -34 37 -67 80 -84 112 -95 109 -95 -25z"/>
<path d="M1440 730 c-11 -11 -20 -27 -20 -35 0 -18 34 -50 70 -65 16 -7 31
-18 34 -26 14 -38 -33 -66 -74 -44 -25 13 -42 4 -20 -10 27 -17 95 -12 114 9
30 33 17 71 -34 101 -34 20 -45 32 -45 51 0 22 4 24 43 22 24 -1 40 2 37 8
-11 17 -84 10 -105 -11z"/>
<path d="M1808 739 c-22 -12 -24 -62 -3 -79 8 -7 30 -20 48 -29 61 -31 31 -98
-33 -74 -24 9 -30 9 -27 0 4 -14 59 -21 92 -13 29 7 49 51 35 77 -6 10 -29 28
-51 39 -46 24 -57 43 -38 66 9 11 22 14 46 9 20 -4 33 -2 33 5 0 13 -79 13
-102 -1z"/>
<path d="M440 696 c0 -2 8 -10 18 -17 15 -13 16 -12 3 4 -13 16 -21 21 -21 13z"/>
<path d="M399 633 c-11 -15 -11 -16 1 -6 11 10 17 9 33 -5 18 -16 20 -16 33 3
14 19 14 19 29 -1 15 -19 15 -19 30 1 16 20 16 20 21 -2 5 -17 13 -21 39 -20
18 1 31 6 28 10 -3 5 -16 6 -29 3 -17 -5 -24 -2 -24 8 0 21 -28 27 -40 8 -9
-16 -11 -16 -20 1 -13 21 -40 23 -40 2 0 -19 -9 -19 -30 0 -15 14 -18 14 -31
-2z"/>
<path d="M340 596 c0 -21 -5 -24 -27 -23 -24 2 -28 -2 -25 -20 3 -18 -2 -23
-17 -23 -22 0 -29 -24 -11 -35 8 -5 7 -12 -2 -23 -12 -15 -11 -16 5 -3 12 10
15 17 7 25 -16 16 -12 24 13 28 17 2 21 8 19 27 -3 19 0 22 13 17 22 -8 46 11
38 30 -4 10 0 12 13 7 12 -4 15 -3 10 5 -13 21 -36 13 -36 -12z"/>
<path d="M510 581 c0 -6 4 -13 10 -16 6 -3 7 1 4 9 -7 18 -14 21 -14 7z"/>
<path d="M600 581 c0 -5 7 -12 16 -15 14 -5 15 -4 4 9 -14 17 -20 19 -20 6z"/>
<path d="M650 573 c5 -2 7 -16 4 -29 -5 -21 -3 -24 20 -24 26 0 35 -13 16 -25
-5 -3 -10 -11 -10 -18 0 -6 7 -1 16 11 18 25 11 42 -16 42 -14 0 -19 6 -17 21
1 12 -4 23 -11 25 -7 1 -8 0 -2 -3z"/>
<path d="M450 546 c0 -2 8 -10 18 -17 15 -13 16 -12 3 4 -13 16 -21 21 -21 13z"/>
<path d="M538 528 c27 -13 28 -25 5 -52 -18 -21 -18 -21 5 -2 12 11 22 25 22
32 0 13 -31 35 -47 33 -4 0 2 -5 15 -11z"/>
<path d="M391 516 c-9 -10 -7 -17 6 -27 16 -12 17 -12 6 2 -10 12 -10 18 -1
27 7 7 9 12 6 12 -3 0 -11 -6 -17 -14z"/>
<path d="M625 500 c-3 -6 1 -7 9 -4 18 7 21 14 7 14 -6 0 -13 -4 -16 -10z"/>
<path d="M340 469 c-7 -11 -10 -23 -7 -25 2 -2 9 7 15 21 14 30 7 33 -8 4z"/>
<path d="M384 473 c16 -20 36 -23 36 -6 0 4 -3 3 -7 0 -3 -4 -16 1 -27 10 -21
18 -21 18 -2 -4z"/>
<path d="M559 463 l-24 -28 26 23 c32 28 34 28 49 -9 11 -26 11 -32 -1 -40
-10 -6 -11 -9 -1 -9 21 0 24 26 7 59 -19 38 -25 38 -56 4z"/>
<path d="M226 461 c-3 -5 1 -15 10 -22 14 -12 14 -14 -2 -26 -20 -15 -7 -18
16 -3 12 8 12 11 -3 28 -9 10 -14 22 -10 25 3 4 4 7 0 7 -3 0 -8 -4 -11 -9z"/>
<path d="M712 465 c4 -4 3 -14 -4 -22 -8 -11 -7 -12 6 -7 19 7 21 20 4 30 -7
4 -10 4 -6 -1z"/>
<path d="M1008 459 c-21 -12 -24 -69 -6 -87 7 -7 23 -12 38 -11 l25 1 -24 7
c-13 3 -29 14 -35 23 -14 23 7 65 36 71 19 4 20 4 3 5 -11 1 -28 -3 -37 -9z"/>
<path d="M1107 452 c-28 -31 -14 -92 21 -92 16 1 16 1 0 11 -24 13 -25 77 -2
86 41 15 71 -49 39 -81 -9 -9 -13 -16 -8 -16 35 0 46 82 14 100 -28 15 -46 12
-64 -8z"/>
<path d="M1230 415 c0 -54 1 -55 28 -54 16 1 20 3 10 6 -14 3 -18 15 -18 54 0
27 -4 49 -10 49 -5 0 -10 -25 -10 -55z"/>
<path d="M1322 418 c-2 -57 -2 -58 26 -57 22 1 23 2 5 6 -19 4 -23 12 -26 56
l-3 52 -2 -57z"/>
<path d="M1400 415 c0 -54 1 -55 28 -54 23 2 24 2 5 6 -14 3 -23 12 -23 23 0
11 9 20 23 23 l22 4 -22 2 c-13 0 -23 8 -23 16 0 9 10 20 23 25 21 8 21 9 -5
9 -27 1 -28 -1 -28 -54z"/>
<path d="M1508 459 c-21 -12 -24 -69 -6 -87 7 -7 25 -12 40 -12 25 0 28 3 27
33 -2 30 -2 30 -6 5 -5 -32 -32 -38 -53 -12 -22 25 -1 69 32 69 15 -1 24 3 22
7 -7 11 -35 9 -56 -3z"/>
<path d="M1617 463 c-4 -3 -7 -28 -7 -55 0 -46 1 -48 28 -47 16 1 20 3 10 6
-10 2 -18 13 -18 23 0 10 8 21 18 23 16 4 16 5 0 6 -11 1 -18 9 -18 20 0 11 8
22 18 24 14 4 13 5 -4 6 -11 0 -24 -2 -27 -6z"/>
<path d="M1756 448 c-9 -12 -16 -30 -16 -40 0 -19 26 -48 43 -48 7 0 4 5 -5
11 -30 17 -21 89 11 89 40 0 58 -68 24 -90 -12 -8 -13 -10 -3 -7 8 2 21 15 29
29 32 55 -47 108 -83 56z"/>
<path d="M1887 463 c-11 -10 -8 -103 3 -103 10 0 14 32 11 77 -2 13 5 23 16
26 15 4 15 5 -3 6 -11 0 -24 -2 -27 -6z"/>
<path d="M713 406 c18 -14 18 -15 0 -25 -10 -6 -13 -11 -7 -11 6 0 17 6 23 14
10 12 8 17 -11 26 -21 10 -22 10 -5 -4z"/>
<path d="M348 403 c7 -3 16 -2 19 1 4 3 -2 6 -13 5 -11 0 -14 -3 -6 -6z"/>
<path d="M466 387 c3 -10 9 -15 12 -12 3 3 0 11 -7 18 -10 9 -11 8 -5 -6z"/>
<path d="M235 375 c18 -15 18 -17 4 -28 -21 -16 -13 -37 14 -36 17 1 18 2 5 6
-20 5 -23 18 -8 28 16 10 12 24 -12 35 -23 11 -23 11 -3 -5z"/>
<path d="M621 373 c-1 -6 -4 -20 -7 -30 -5 -17 -5 -17 6 0 6 10 9 23 6 30 -3
9 -5 9 -5 0z"/>
<path d="M703 347 c21 -17 22 -27 3 -27 -21 0 -30 -18 -17 -34 7 -9 7 -16 -2
-26 -10 -12 -9 -12 6 0 12 9 15 16 7 24 -15 15 -12 23 10 29 26 7 25 24 -2 37
-21 10 -21 10 -5 -3z"/>
<path d="M330 344 c0 -6 7 -19 16 -30 14 -18 14 -18 3 6 -14 31 -19 36 -19 24z"/>
<path d="M464 339 c-3 -6 -13 -9 -22 -7 -25 5 -68 -50 -53 -65 9 -9 11 -8 6 4
-8 22 28 52 54 44 11 -3 22 -16 24 -28 4 -21 4 -21 6 -1 0 12 11 24 27 30 l27
9 -32 12 c-19 7 -33 8 -37 2z"/>
<path d="M384 318 l-19 -23 23 19 c21 18 27 26 19 26 -2 0 -12 -10 -23 -22z"/>
<path d="M550 326 c0 -2 8 -10 18 -17 15 -13 16 -12 3 4 -13 16 -21 21 -21 13z"/>
<path d="M256 284 c-7 -19 0 -34 17 -34 8 0 7 4 -2 9 -12 8 -12 12 -2 25 8 9
9 16 3 16 -5 0 -13 -7 -16 -16z"/>
<path d="M554 280 c0 -13 4 -16 10 -10 7 7 7 13 0 20 -6 6 -10 3 -10 -10z"/>
<path d="M1007 283 c-4 -3 -7 -28 -7 -55 0 -48 0 -48 33 -47 23 1 26 3 10 6
-14 3 -23 12 -23 23 0 11 9 20 23 23 l22 4 -22 2 c-16 1 -23 7 -23 20 0 12 8
21 23 24 20 4 20 4 -4 6 -14 0 -29 -2 -32 -6z"/>
<path d="M1080 278 c0 -9 3 -18 8 -20 4 -1 20 -21 36 -42 17 -22 31 -35 33
-29 3 7 -5 22 -16 35 -11 13 -29 34 -40 48 -16 19 -20 21 -21 8z"/>
<path d="M1199 269 c-15 -15 -19 -28 -14 -47 8 -32 21 -42 58 -42 24 0 27 4
27 31 0 17 -4 28 -10 24 -5 -3 -10 -15 -10 -26 0 -34 -44 -21 -48 14 -5 38 15
60 46 52 15 -4 21 -2 17 5 -10 17 -44 11 -66 -11z"/>
<path d="M1297 283 c-11 -10 -8 -103 3 -103 6 0 10 25 10 55 0 56 -1 60 -13
48z"/>
<path d="M1340 278 c0 -10 3 -18 8 -18 4 0 18 -18 32 -40 24 -38 40 -51 40
-31 0 5 -9 20 -20 33 -11 12 -29 34 -39 48 -17 20 -20 22 -21 8z"/>
<path d="M1450 235 c0 -54 1 -55 28 -54 23 2 24 2 5 6 -14 3 -23 12 -23 23 0
11 9 20 23 23 l22 4 -22 2 c-31 1 -31 38 0 44 19 4 18 4 -5 6 -27 1 -28 0 -28
-54z"/>
<path d="M1527 283 c-4 -3 -7 -28 -7 -55 0 -46 1 -48 28 -47 16 1 20 3 10 6
-10 2 -18 13 -18 23 0 10 8 21 18 23 16 4 16 5 0 6 -11 1 -18 9 -18 20 0 11 8
22 18 24 14 4 13 5 -4 6 -11 0 -24 -2 -27 -6z"/>
<path d="M1601 233 c1 -32 4 -48 6 -35 5 27 14 28 31 2 7 -11 17 -20 24 -20 6
0 4 8 -6 19 -15 16 -15 22 -5 39 15 25 -2 52 -32 52 -17 0 -19 -7 -18 -57z
m42 33 c6 -16 -16 -40 -26 -29 -4 3 -7 15 -7 25 0 21 25 24 33 4z"/>
<path d="M1688 283 c-2 -5 -1 -30 3 -58 l6 -50 1 58 c2 52 -2 69 -10 50z"/>
<path d="M1730 278 c0 -9 3 -18 8 -20 4 -1 20 -21 36 -42 17 -22 31 -35 33
-29 2 6 -5 21 -16 34 -12 13 -30 35 -40 49 -16 19 -20 21 -21 8z"/>
<path d="M1850 270 c-38 -38 -15 -90 41 -90 26 0 29 3 29 31 0 17 -4 28 -10
24 -5 -3 -10 -15 -10 -26 0 -34 -44 -21 -48 14 -5 38 15 60 46 52 15 -4 21 -2
17 5 -10 16 -43 12 -65 -10z"/>
<path d="M1412 250 c0 -19 2 -27 5 -17 2 9 2 25 0 35 -3 9 -5 1 -5 -18z"/>
<path d="M1802 250 c0 -19 2 -27 5 -17 2 9 2 25 0 35 -3 9 -5 1 -5 -18z"/>
<path d="M654 256 c-3 -7 -4 -19 -2 -27 2 -10 -4 -13 -20 -11 -17 3 -25 -2
-29 -17 -4 -16 -11 -19 -29 -15 -20 5 -24 2 -24 -16 0 -22 -1 -22 -19 -6 -17
16 -20 16 -35 0 -9 -9 -14 -19 -11 -22 3 -3 11 3 19 13 13 18 14 18 23 0 11
-19 33 -13 33 10 0 9 10 13 28 12 21 -2 26 2 24 17 -3 15 1 18 17 13 24 -6 34
6 36 40 1 26 -3 29 -11 9z"/>
<path d="M294 252 c3 -6 2 -14 -4 -17 -18 -11 8 -34 30 -28 15 4 20 0 20 -17
0 -19 4 -21 29 -15 23 5 29 2 34 -14 7 -27 24 -27 37 2 10 20 10 20 -3 5 -18
-23 -23 -23 -30 3 -5 17 -11 20 -30 15 -19 -4 -26 -1 -30 15 -3 12 -13 20 -24
19 -31 -4 -36 -1 -24 14 9 11 9 16 0 22 -7 4 -9 3 -5 -4z"/>
<path d="M450 250 c-9 -6 -10 -10 -3 -10 6 0 15 5 18 10 8 12 4 12 -15 0z"/>
<path d="M488 248 c5 -5 16 -8 23 -6 8 3 3 7 -10 11 -17 4 -21 3 -13 -5z"/>
<path d="M385 231 c-3 -5 -2 -12 3 -15 5 -3 9 1 9 9 0 17 -3 19 -12 6z"/>
<path d="M553 225 c0 -8 4 -12 9 -9 5 3 6 10 3 15 -9 13 -12 11 -12 -6z"/>
<path d="M1082 210 c0 -19 2 -27 5 -17 2 9 2 25 0 35 -3 9 -5 1 -5 -18z"/>
<path d="M445 210 c-3 -5 -1 -10 4 -10 6 0 11 5 11 10 0 6 -2 10 -4 10 -3 0
-8 -4 -11 -10z"/>
<path d="M271 156 c-14 -15 -19 -26 -12 -31 6 -3 11 1 11 9 0 29 34 37 66 15
16 -10 34 -19 39 -19 10 0 -65 49 -76 50 -3 0 -16 -11 -28 -24z"/>
<path d="M631 160 c-13 -11 -20 -20 -15 -20 4 0 16 7 26 17 17 15 19 15 38 -2
11 -10 20 -22 20 -26 0 -4 -26 -20 -58 -36 l-58 -29 37 -12 c20 -6 92 -14 160
-17 120 -6 123 -5 94 11 -41 23 -41 22 -19 39 19 15 19 16 -1 14 -11 -2 -48 1
-83 5 -47 6 -62 12 -58 22 3 7 -7 22 -23 34 -35 24 -30 24 -60 0z m188 -80 c9
-5 12 -10 7 -10 -6 0 -1 -7 10 -16 18 -14 14 -15 -45 -10 -35 3 -80 6 -99 6
l-35 0 24 26 c22 23 29 25 73 19 28 -3 57 -10 65 -15z"/>
<path d="M461 154 c0 -11 3 -14 6 -6 3 7 2 16 -1 19 -3 4 -6 -2 -5 -13z"/>
<path d="M235 109 c-22 -4 -59 -9 -83 -10 -34 -1 -40 -4 -31 -15 6 -7 8 -18 4
-24 -8 -13 5 -13 25 0 8 5 11 10 5 10 -25 1 26 19 71 25 42 6 52 4 68 -14 11
-12 17 -23 14 -26 -2 -3 -53 -7 -113 -10 -59 -2 -110 -7 -114 -11 -10 -10 240
6 275 18 l31 11 -56 28 c-31 16 -56 28 -56 28 0 -1 -18 -5 -40 -10z"/>
<path d="M428 113 c7 -3 16 -2 19 1 4 3 -2 6 -13 5 -11 0 -14 -3 -6 -6z"/>
<path d="M528 113 c7 -3 16 -2 19 1 4 3 -2 6 -13 5 -11 0 -14 -3 -6 -6z"/>
<path d="M485 80 c3 -5 8 -10 11 -10 2 0 4 5 4 10 0 6 -5 10 -11 10 -5 0 -7
-4 -4 -10z"/>
<path d="M525 80 c3 -5 8 -10 11 -10 2 0 4 5 4 10 0 6 -5 10 -11 10 -5 0 -7
-4 -4 -10z"/>
<path d="M1545 79 c-4 -6 -5 -12 -2 -15 2 -3 7 2 10 11 7 17 1 20 -8 4z"/>
<path d="M408 53 c7 -3 16 -2 19 1 4 3 -2 6 -13 5 -11 0 -14 -3 -6 -6z"/>
<path d="M468 43 c12 -2 32 -2 45 0 12 2 2 4 -23 4 -25 0 -35 -2 -22 -4z"/>
</g>
</svg>
