<svg id="svg" version="1.1" xmlns="http://www.w3.org/2000/svg" xmlns:xlink="http://www.w3.org/1999/xlink" width="400" height="209.52380952380952" viewBox="0, 0, 400,209.52380952380952"><g id="svgg"><path id="path0" d="M243.373 4.609 C 242.452 4.705,240.397 4.883,238.807 5.004 C 237.218 5.125,235.831 5.278,235.727 5.342 C 235.622 5.407,234.707 5.549,233.693 5.659 C 232.679 5.768,231.331 5.961,230.697 6.087 C 227.724 6.679,226.311 6.980,225.235 7.250 C 224.594 7.411,223.862 7.543,223.608 7.543 C 223.355 7.543,222.984 7.634,222.784 7.744 C 222.584 7.855,221.996 8.036,221.477 8.147 C 220.959 8.259,220.016 8.505,219.382 8.695 C 218.748 8.885,217.852 9.136,217.391 9.253 C 216.930 9.369,216.365 9.543,216.134 9.638 C 215.904 9.733,215.008 10.026,214.144 10.288 C 213.279 10.550,212.482 10.842,212.373 10.935 C 212.263 11.029,212.028 11.106,211.849 11.107 C 211.671 11.107,211.254 11.249,210.924 11.421 C 210.594 11.593,210.205 11.734,210.060 11.734 C 209.915 11.734,209.337 11.929,208.775 12.166 C 208.213 12.404,207.517 12.696,207.229 12.814 C 206.941 12.933,206.438 13.163,206.112 13.325 C 205.786 13.487,205.357 13.620,205.159 13.620 C 204.960 13.620,204.709 13.705,204.599 13.810 C 204.490 13.914,203.787 14.253,203.038 14.562 C 200.364 15.667,192.959 19.413,190.466 20.923 C 190.063 21.167,189.544 21.464,189.314 21.582 C 189.083 21.701,188.612 21.984,188.266 22.211 C 187.920 22.438,187.449 22.721,187.218 22.839 C 186.988 22.958,186.550 23.219,186.246 23.419 C 185.941 23.618,185.093 24.156,184.360 24.613 C 183.154 25.366,178.930 28.234,178.418 28.648 C 177.985 28.998,177.088 29.660,176.636 29.963 C 176.378 30.136,176.060 30.376,175.930 30.495 C 175.800 30.615,174.893 31.317,173.913 32.055 C 172.933 32.793,172.085 33.452,172.027 33.521 C 171.970 33.589,171.451 34.018,170.875 34.475 C 170.299 34.932,169.780 35.354,169.722 35.413 C 169.665 35.472,168.863 36.179,167.942 36.985 C 162.074 42.114,156.874 47.493,153.521 51.900 C 152.978 52.614,152.418 53.323,152.276 53.477 C 151.456 54.360,146.400 62.138,145.768 63.489 C 145.687 63.662,145.376 64.227,145.076 64.746 C 142.868 68.573,139.948 75.075,137.972 80.566 C 137.433 82.064,136.921 83.478,136.833 83.709 C 136.746 83.939,136.508 84.694,136.304 85.385 C 136.100 86.076,135.757 87.185,135.541 87.848 C 135.326 88.511,135.149 89.226,135.149 89.437 C 135.149 89.648,135.080 89.889,134.995 89.974 C 134.911 90.059,134.731 90.617,134.596 91.214 C 134.461 91.811,134.196 92.913,134.006 93.662 C 133.817 94.411,133.586 95.448,133.493 95.966 C 133.401 96.485,133.225 97.334,133.103 97.852 C 132.476 100.514,131.756 104.364,131.573 106.024 C 131.490 106.773,131.326 108.046,131.207 108.853 C 130.739 112.027,130.494 114.205,130.312 116.815 C 130.207 118.313,130.030 120.765,129.919 122.263 C 129.662 125.723,129.655 135.526,129.907 138.816 C 130.012 140.199,130.153 142.226,130.220 143.321 C 130.348 145.424,130.830 149.909,131.210 152.541 C 131.334 153.405,131.501 154.678,131.581 155.369 C 131.660 156.061,131.841 157.239,131.983 157.988 C 132.465 160.540,132.863 162.492,133.093 163.436 C 133.219 163.955,133.394 164.804,133.483 165.322 C 133.571 165.841,133.853 167.019,134.108 167.941 C 134.363 168.863,134.619 169.900,134.677 170.246 C 134.735 170.592,134.857 170.969,134.947 171.084 C 135.038 171.200,135.180 171.671,135.263 172.132 C 135.346 172.593,135.485 173.064,135.571 173.180 C 135.658 173.295,135.796 173.702,135.878 174.084 C 135.960 174.467,136.159 175.032,136.320 175.342 C 136.481 175.651,136.614 176.070,136.615 176.273 C 136.615 176.476,136.702 176.806,136.808 177.007 C 136.913 177.207,137.201 177.889,137.447 178.523 C 137.694 179.157,137.976 179.864,138.075 180.094 C 138.361 180.766,140.394 184.873,140.667 185.333 C 142.265 188.022,144.184 190.235,145.908 191.377 C 147.530 192.452,151.692 194.501,152.804 194.772 C 153.123 194.849,153.435 194.997,153.498 195.099 C 153.561 195.202,153.758 195.285,153.936 195.285 C 154.113 195.285,154.555 195.415,154.919 195.574 C 155.818 195.967,161.076 197.590,162.389 197.879 C 162.677 197.943,163.478 198.135,164.170 198.305 C 164.861 198.476,165.851 198.717,166.370 198.841 C 166.888 198.965,167.737 199.173,168.256 199.302 C 168.774 199.432,169.670 199.611,170.246 199.702 C 170.822 199.792,171.812 199.966,172.446 200.088 C 173.080 200.210,174.494 200.455,175.589 200.631 C 176.684 200.808,178.161 201.053,178.872 201.176 C 180.240 201.414,181.388 201.543,187.428 202.140 C 192.986 202.689,215.265 202.689,220.639 202.139 C 227.298 201.459,227.739 201.407,228.750 201.184 C 229.302 201.063,230.461 200.858,231.325 200.728 C 233.979 200.331,235.078 200.147,236.103 199.926 C 236.644 199.810,237.842 199.555,238.764 199.361 C 239.686 199.166,240.759 198.912,241.149 198.797 C 241.539 198.682,242.435 198.454,243.140 198.292 C 245.357 197.780,247.583 197.186,248.507 196.858 C 248.910 196.715,249.806 196.433,250.498 196.232 C 251.189 196.030,251.943 195.785,252.174 195.686 C 252.404 195.588,253.206 195.308,253.955 195.064 C 254.704 194.820,255.614 194.487,255.977 194.324 C 256.340 194.161,256.769 194.028,256.931 194.028 C 257.092 194.028,257.313 193.953,257.423 193.861 C 257.532 193.768,258.188 193.477,258.879 193.214 C 260.534 192.583,260.722 192.504,262.441 191.719 C 264.971 190.563,269.303 188.403,270.613 187.643 C 271.304 187.243,272.059 186.817,272.289 186.697 C 272.520 186.577,272.991 186.293,273.337 186.066 C 273.683 185.839,274.154 185.558,274.384 185.441 C 274.884 185.188,275.600 184.746,275.746 184.599 C 275.975 184.370,277.204 183.552,277.318 183.552 C 277.385 183.552,277.554 183.455,277.693 183.336 C 277.833 183.218,278.748 182.544,279.728 181.840 C 285.968 177.352,293.400 170.222,298.418 163.908 C 298.735 163.509,299.046 162.839,299.110 162.419 C 299.174 161.999,299.310 161.372,299.413 161.027 C 299.515 160.681,299.661 160.093,299.737 159.720 C 299.813 159.346,299.962 158.987,300.069 158.921 C 300.175 158.856,300.262 158.661,300.262 158.488 C 300.262 158.316,300.456 157.732,300.692 157.191 C 300.929 156.650,301.199 156.019,301.293 155.788 C 301.615 154.993,303.641 150.967,304.034 150.340 C 304.251 149.995,304.571 149.449,304.743 149.127 C 304.916 148.805,305.259 148.216,305.506 147.817 C 306.084 146.882,306.029 146.884,303.510 147.911 C 302.865 148.174,300.870 148.740,300.052 148.892 C 299.189 149.053,298.167 149.543,298.167 149.795 C 298.167 150.913,292.090 158.428,287.937 162.448 C 286.958 163.395,285.725 164.588,285.195 165.100 C 283.807 166.442,278.738 170.769,277.371 171.778 C 271.905 175.817,267.016 175.788,263.824 171.700 C 262.901 170.517,261.708 165.470,261.708 162.747 C 261.708 161.349,261.559 161.415,259.998 163.497 C 259.202 164.558,257.917 166.125,257.143 166.978 C 256.369 167.831,255.595 168.687,255.422 168.881 C 255.126 169.212,253.600 170.568,252.470 171.503 C 249.216 174.198,243.082 175.633,240.650 174.268 C 240.304 174.074,239.903 173.915,239.759 173.914 C 239.615 173.914,239.497 173.819,239.497 173.704 C 239.497 173.588,239.360 173.494,239.193 173.494 C 238.334 173.494,235.221 169.740,234.329 167.627 C 234.207 167.339,233.953 166.746,233.764 166.310 C 233.575 165.874,233.419 165.309,233.418 165.053 C 233.408 163.497,232.935 163.245,231.839 164.213 C 231.384 164.615,230.456 165.430,229.777 166.024 C 229.098 166.617,228.391 167.245,228.205 167.417 C 226.068 169.409,219.450 173.494,218.362 173.494 C 218.228 173.494,217.955 173.584,217.755 173.695 C 217.328 173.931,215.842 174.275,213.934 174.578 C 212.024 174.882,207.404 174.680,205.972 174.230 C 204.451 173.752,201.991 172.627,201.991 172.409 C 201.991 172.314,201.842 172.237,201.661 172.237 C 201.311 172.237,197.800 168.820,197.800 168.479 C 197.800 168.368,197.517 167.858,197.171 167.345 C 196.826 166.833,196.543 166.281,196.543 166.118 C 196.543 165.955,196.404 165.638,196.235 165.415 C 196.066 165.191,195.924 164.791,195.921 164.526 C 195.917 164.261,195.768 163.762,195.590 163.418 L 195.267 162.792 194.700 163.237 C 194.088 163.717,192.114 165.427,190.902 166.526 C 190.489 166.900,190.088 167.206,190.010 167.207 C 189.932 167.208,189.743 167.329,189.591 167.476 C 188.990 168.059,186.714 169.722,186.518 169.722 C 186.404 169.722,186.279 169.793,186.241 169.880 C 186.179 170.018,184.621 171.072,183.447 171.769 C 182.540 172.308,180.037 173.494,179.808 173.494 C 179.674 173.494,179.401 173.583,179.201 173.691 C 177.583 174.568,170.980 175.094,170.121 174.413 C 169.959 174.285,169.556 174.115,169.224 174.036 C 166.530 173.391,163.095 169.390,162.029 165.656 C 160.771 161.251,160.959 153.447,162.496 146.255 C 162.656 145.506,162.835 144.610,162.893 144.264 C 163.057 143.292,163.554 141.157,163.699 140.807 C 163.770 140.634,163.924 140.068,164.042 139.550 C 164.505 137.507,164.806 136.434,164.956 136.284 C 165.042 136.198,165.113 135.937,165.113 135.705 C 165.113 135.253,165.861 132.768,166.178 132.166 C 166.283 131.966,166.370 131.636,166.371 131.433 C 166.372 131.230,166.513 130.793,166.685 130.463 C 166.858 130.133,166.998 129.723,166.998 129.552 C 166.998 129.381,167.124 128.944,167.278 128.581 C 167.707 127.570,168.076 126.509,168.203 125.930 C 168.265 125.642,168.444 125.220,168.600 124.993 C 168.757 124.765,168.884 124.370,168.884 124.115 C 168.884 123.859,168.968 123.598,169.071 123.535 C 169.173 123.471,169.318 123.159,169.392 122.841 C 169.466 122.523,169.657 121.980,169.815 121.634 C 169.973 121.289,170.264 120.581,170.462 120.063 C 170.853 119.034,170.951 118.793,171.608 117.234 C 172.297 115.602,172.367 115.441,173.080 113.882 C 174.245 111.333,175.610 108.445,175.804 108.119 C 175.907 107.947,176.225 107.328,176.511 106.744 C 177.031 105.683,177.516 105.313,178.837 104.967 C 179.183 104.877,179.984 104.598,180.618 104.348 C 181.252 104.098,181.959 103.846,182.190 103.788 C 182.420 103.729,182.892 103.559,183.237 103.408 C 184.707 102.769,184.959 102.667,185.856 102.349 C 186.375 102.165,186.988 101.965,187.218 101.903 C 187.668 101.784,188.813 101.319,189.570 100.949 C 191.460 100.025,192.954 100.997,193.989 103.824 C 194.716 105.808,194.720 112.961,193.996 116.082 C 193.876 116.600,193.700 117.496,193.606 118.072 C 193.387 119.404,193.004 120.907,192.771 121.347 C 192.672 121.534,192.526 122.030,192.447 122.449 C 192.369 122.868,192.221 123.262,192.119 123.325 C 192.017 123.388,191.932 123.600,191.932 123.794 C 191.931 123.989,191.790 124.419,191.617 124.749 C 191.445 125.079,191.304 125.453,191.304 125.579 C 191.304 125.790,189.641 129.386,189.204 130.120 C 189.101 130.293,188.774 130.906,188.477 131.482 C 188.180 132.059,187.753 132.813,187.528 133.159 C 187.302 133.504,187.052 133.929,186.970 134.102 C 186.492 135.116,182.592 140.626,182.249 140.772 C 182.159 140.810,182.085 140.931,182.085 141.041 C 182.085 141.287,179.457 144.537,176.787 147.595 L 174.792 149.878 174.639 153.148 C 174.464 156.867,174.618 160.872,174.948 161.202 C 175.070 161.325,175.170 161.598,175.170 161.810 C 175.170 162.425,175.987 163.891,176.816 164.764 C 179.624 167.718,183.758 166.658,189.733 161.453 C 194.713 157.113,195.285 156.458,195.285 155.100 C 195.285 154.040,195.683 151.970,196.159 150.550 C 196.275 150.204,196.450 149.639,196.547 149.293 C 196.867 148.154,197.307 147.083,197.555 146.835 C 197.690 146.700,197.800 146.481,197.800 146.347 C 197.800 146.079,198.819 144.115,199.639 142.801 C 201.109 140.448,204.776 136.287,206.568 134.940 C 206.952 134.652,207.377 134.313,207.514 134.187 C 208.184 133.569,211.473 131.724,212.769 131.240 C 213.588 130.934,213.907 130.854,216.448 130.320 C 221.986 129.156,229.439 132.564,229.439 136.260 C 229.439 136.442,229.534 136.650,229.649 136.721 C 229.999 136.937,229.906 141.057,229.531 141.986 C 228.365 144.873,227.258 146.380,224.932 148.245 C 223.839 149.122,223.580 149.333,223.065 149.764 C 222.893 149.908,222.699 150.026,222.634 150.026 C 222.570 150.026,222.135 150.267,221.670 150.561 C 220.220 151.476,216.829 153.169,216.446 153.169 C 216.245 153.169,215.963 153.311,215.820 153.483 C 215.676 153.656,215.350 153.798,215.096 153.798 C 214.841 153.798,214.572 153.858,214.498 153.933 C 214.266 154.165,211.961 155.053,211.589 155.054 C 211.394 155.055,211.183 155.139,211.120 155.241 C 211.057 155.343,210.662 155.491,210.244 155.569 C 209.825 155.648,209.329 155.794,209.141 155.895 C 208.954 155.995,208.560 156.127,208.266 156.188 C 207.653 156.316,207.621 157.287,208.188 158.544 C 208.352 158.907,208.486 159.293,208.486 159.402 C 208.486 159.510,208.721 160.014,209.007 160.522 C 209.294 161.030,209.590 161.587,209.666 161.760 C 209.904 162.306,212.143 164.365,212.896 164.730 C 215.165 165.832,215.203 165.840,218.054 165.831 C 219.747 165.826,220.920 165.734,221.092 165.591 C 221.246 165.464,221.726 165.294,222.158 165.213 C 222.590 165.132,222.944 164.992,222.944 164.902 C 222.944 164.813,223.202 164.674,223.518 164.595 C 223.834 164.516,224.140 164.387,224.199 164.308 C 224.258 164.230,224.683 163.921,225.144 163.623 C 225.605 163.324,226.642 162.523,227.448 161.844 C 232.113 157.910,233.152 156.659,233.424 154.645 C 233.511 154.006,233.679 153.201,233.798 152.855 C 233.917 152.509,234.126 151.849,234.264 151.388 C 234.493 150.619,234.778 149.935,235.703 147.936 C 237.422 144.222,241.940 138.576,245.052 136.254 C 247.213 134.642,248.265 133.892,248.368 133.892 C 248.433 133.892,248.892 133.626,249.387 133.302 C 249.883 132.977,250.948 132.398,251.755 132.016 C 252.562 131.633,253.472 131.191,253.778 131.034 C 254.084 130.877,254.560 130.749,254.836 130.749 C 255.112 130.749,255.436 130.651,255.557 130.530 C 255.953 130.134,259.608 129.842,261.316 130.070 C 264.021 130.432,267.079 132.446,267.898 134.406 C 268.371 135.538,268.682 135.666,269.602 135.105 C 270.043 134.836,270.828 134.398,271.346 134.132 C 271.865 133.865,272.823 133.349,273.476 132.984 C 274.129 132.619,275.072 132.098,275.572 131.826 C 276.071 131.554,276.970 131.059,277.569 130.726 C 278.674 130.111,281.410 129.831,281.701 130.302 C 281.809 130.477,281.555 131.534,280.865 133.787 C 280.689 134.364,280.468 135.165,280.375 135.568 C 280.281 135.972,280.110 136.537,279.994 136.826 C 279.877 137.114,279.617 137.915,279.415 138.607 C 278.591 141.434,278.427 141.987,278.230 142.588 C 277.926 143.515,277.428 145.208,277.213 146.045 C 277.110 146.448,276.869 147.297,276.677 147.931 C 276.486 148.565,276.187 149.555,276.013 150.131 C 274.759 154.296,273.994 158.717,274.128 161.027 C 274.332 164.527,276.268 165.595,279.359 163.912 C 280.821 163.117,287.855 156.429,289.890 153.900 C 290.351 153.327,290.940 152.623,291.200 152.335 C 291.459 152.047,291.671 151.754,291.671 151.684 C 291.671 151.614,291.871 151.330,292.115 151.054 C 292.589 150.516,293.557 149.057,293.557 148.881 C 293.557 148.822,293.156 148.526,292.666 148.223 C 291.546 147.530,290.414 146.467,290.414 146.109 C 290.414 145.958,290.337 145.836,290.243 145.836 C 289.248 145.836,289.225 141.300,290.206 138.607 C 290.600 137.527,291.373 135.876,291.514 135.813 C 291.600 135.774,291.671 135.616,291.671 135.460 C 291.671 134.992,293.845 132.252,294.735 131.597 C 297.569 129.512,301.873 129.539,303.166 131.650 C 304.030 133.061,303.810 137.673,302.778 139.766 C 302.691 139.943,302.550 140.414,302.464 140.814 C 302.379 141.213,302.239 141.634,302.154 141.750 C 301.029 143.270,302.429 143.363,305.500 141.971 C 308.648 140.545,311.759 137.382,314.583 132.740 C 316.116 130.219,316.178 130.174,318.194 130.141 C 319.602 130.118,319.504 130.208,320.373 128.130 C 320.614 127.554,320.902 126.919,321.013 126.718 C 321.124 126.518,321.215 126.224,321.215 126.064 C 321.215 125.811,321.376 125.386,322.259 123.311 C 322.357 123.080,322.599 122.373,322.796 121.739 C 323.134 120.655,323.293 120.185,323.930 118.387 C 324.073 117.983,324.266 117.323,324.358 116.920 C 324.451 116.517,324.624 115.904,324.744 115.558 C 324.863 115.212,325.116 114.364,325.307 113.672 C 325.498 112.981,325.739 112.127,325.843 111.775 C 326.141 110.766,326.966 106.923,327.393 104.557 C 327.549 103.693,327.731 102.844,327.796 102.672 C 328.150 101.738,328.940 93.932,329.158 89.230 C 329.474 82.399,328.805 72.312,327.716 67.470 C 327.599 66.951,327.405 66.056,327.285 65.479 C 327.164 64.903,326.925 63.866,326.754 63.174 C 326.582 62.483,326.356 61.535,326.252 61.067 C 326.148 60.599,325.974 59.986,325.866 59.705 C 325.758 59.424,325.509 58.628,325.312 57.936 C 325.115 57.245,324.820 56.412,324.656 56.086 C 324.492 55.759,324.358 55.362,324.358 55.202 C 324.358 55.043,324.226 54.602,324.065 54.224 C 323.904 53.846,323.609 53.112,323.410 52.593 C 322.436 50.054,320.244 45.424,319.096 43.478 C 318.756 42.902,318.364 42.195,318.227 41.907 C 318.089 41.619,317.920 41.336,317.852 41.278 C 317.783 41.221,317.663 41.032,317.583 40.859 C 317.504 40.686,317.253 40.262,317.025 39.916 C 316.797 39.570,316.500 39.075,316.365 38.816 C 316.230 38.557,316.040 38.345,315.943 38.345 C 315.847 38.345,315.767 38.246,315.767 38.126 C 315.767 37.882,312.468 33.432,310.967 31.651 C 308.364 28.563,304.610 24.809,302.252 22.937 C 301.676 22.480,301.111 21.998,300.995 21.865 C 300.880 21.733,299.796 20.910,298.586 20.036 C 297.376 19.162,296.291 18.372,296.176 18.279 C 296.061 18.187,295.589 17.884,295.128 17.605 C 294.667 17.327,294.243 17.040,294.185 16.968 C 294.128 16.896,293.939 16.769,293.766 16.687 C 293.442 16.532,293.200 16.387,291.776 15.497 C 291.315 15.208,290.513 14.759,289.995 14.498 C 289.050 14.022,288.636 13.801,287.952 13.410 C 287.750 13.294,287.374 13.108,287.117 12.997 C 286.859 12.885,286.246 12.599,285.755 12.361 C 285.263 12.122,284.060 11.591,283.080 11.181 C 282.101 10.770,281.002 10.302,280.639 10.141 C 280.276 9.980,279.874 9.848,279.745 9.848 C 279.617 9.848,279.349 9.759,279.149 9.651 C 278.071 9.066,272.305 7.390,268.727 6.623 C 267.920 6.449,266.742 6.195,266.108 6.057 C 265.474 5.919,264.390 5.738,263.698 5.656 C 263.007 5.573,261.734 5.402,260.870 5.275 C 256.194 4.589,246.953 4.237,243.373 4.609 M187.524 107.543 C 186.490 108.641,184.706 112.231,183.439 115.767 C 183.232 116.344,182.985 116.905,182.888 117.014 C 182.792 117.124,182.713 117.345,182.713 117.506 C 182.713 117.668,182.585 118.097,182.429 118.460 C 182.272 118.823,181.935 119.827,181.681 120.691 C 181.426 121.556,181.141 122.408,181.048 122.585 C 180.955 122.763,180.812 123.304,180.731 123.789 C 180.649 124.274,180.496 124.724,180.390 124.789 C 180.285 124.854,180.199 125.190,180.199 125.537 C 180.199 125.883,180.092 126.366,179.962 126.610 C 179.736 127.033,179.320 128.639,178.972 130.435 C 178.883 130.896,178.698 131.479,178.561 131.731 C 178.425 131.982,178.313 132.445,178.313 132.760 C 178.313 133.074,178.180 133.811,178.017 134.398 C 177.561 136.040,177.223 137.466,177.044 138.502 C 176.955 139.020,176.790 139.794,176.679 140.220 C 176.268 141.792,176.657 141.454,179.331 137.913 C 180.381 136.523,181.684 134.648,182.226 133.748 C 182.769 132.848,183.265 132.064,183.330 132.006 C 183.394 131.949,183.805 131.194,184.242 130.330 C 184.679 129.466,185.118 128.617,185.219 128.444 C 185.617 127.759,186.846 124.986,187.541 123.206 C 187.788 122.572,188.089 121.818,188.208 121.530 C 188.327 121.241,188.502 120.723,188.597 120.377 C 188.691 120.031,188.966 119.089,189.207 118.282 C 190.051 115.459,190.608 109.225,190.064 108.681 C 189.940 108.557,189.838 108.300,189.838 108.110 C 189.838 107.130,188.274 106.747,187.524 107.543 M258.565 134.727 C 256.754 135.117,254.155 137.403,252.366 140.178 C 250.985 142.322,248.298 147.704,248.298 148.327 C 248.298 148.429,248.157 148.782,247.985 149.112 C 247.812 149.442,247.671 149.908,247.670 150.148 C 247.670 150.389,247.598 150.656,247.512 150.742 C 247.165 151.089,246.697 153.455,246.240 157.169 C 245.342 164.466,251.064 167.303,256.092 162.054 C 258.157 159.898,260.127 156.650,261.925 152.436 C 262.469 151.163,262.960 149.778,263.264 148.664 C 263.453 147.973,263.699 147.115,263.811 146.759 C 266.207 139.162,263.782 133.602,258.565 134.727 M214.256 135.116 C 213.348 135.624,211.953 136.950,211.276 137.947 C 210.952 138.425,210.616 138.848,210.529 138.886 C 210.443 138.924,210.372 139.083,210.372 139.238 C 210.372 139.393,210.254 139.646,210.110 139.800 C 208.840 141.158,207.228 147.271,207.229 150.731 L 207.229 152.379 207.805 152.270 C 209.092 152.027,212.238 150.643,213.577 149.730 C 214.014 149.432,214.445 149.188,214.534 149.188 C 214.810 149.188,217.496 146.566,217.496 146.297 C 217.496 146.159,217.579 146.045,217.681 146.045 C 217.783 146.045,217.922 145.880,217.989 145.678 C 218.057 145.477,218.204 145.170,218.315 144.997 C 219.398 143.315,220.283 138.214,219.635 137.389 C 219.528 137.252,219.372 136.859,219.290 136.516 C 218.901 134.894,216.063 134.104,214.256 135.116 " stroke="none" fill="#fb9d3f" fill-rule="evenodd"></path><path id="path1" d="M48.821 85.617 C 48.649 85.661,47.517 85.833,46.307 86.000 C 40.866 86.753,35.980 88.285,31.221 90.729 C 30.817 90.937,30.157 91.303,29.754 91.544 C 29.350 91.785,28.879 92.047,28.706 92.128 C 24.716 93.978,17.254 101.356,14.336 106.334 C 13.389 107.950,13.297 108.120,12.470 109.796 C 11.371 112.020,11.199 112.418,10.513 114.301 C 9.501 117.084,9.345 117.638,8.365 121.949 C 7.197 127.089,7.203 139.488,8.375 142.572 C 8.494 142.884,8.591 143.392,8.591 143.702 C 8.591 144.012,8.834 145.208,9.131 146.360 C 9.429 147.512,9.754 148.785,9.854 149.188 C 10.254 150.800,11.475 154.536,11.942 155.579 C 12.045 155.809,12.481 156.847,12.910 157.884 C 13.684 159.755,16.284 164.962,17.146 166.370 C 17.393 166.773,17.691 167.292,17.808 167.522 C 18.245 168.385,22.189 174.206,22.783 174.866 C 22.987 175.092,23.697 175.956,24.361 176.787 C 25.025 177.617,25.802 178.560,26.087 178.881 C 30.321 183.646,33.264 186.378,36.983 188.995 C 37.789 189.563,38.563 190.126,38.703 190.247 C 38.842 190.368,39.009 190.466,39.073 190.466 C 39.138 190.466,39.590 190.724,40.078 191.038 C 40.565 191.353,41.152 191.723,41.383 191.861 C 42.135 192.310,47.259 194.866,47.408 194.866 C 47.487 194.866,48.050 195.091,48.658 195.366 C 50.620 196.251,53.904 197.389,56.574 198.108 C 60.992 199.298,62.616 199.686,63.181 199.686 C 63.476 199.686,64.302 199.818,65.017 199.980 C 67.829 200.618,71.422 200.963,78.549 201.283 C 85.471 201.593,96.642 200.401,102.672 198.710 C 106.600 197.608,108.286 197.013,111.053 195.754 C 114.472 194.199,116.399 192.013,117.964 187.917 C 118.331 186.957,118.765 185.861,118.928 185.483 C 119.091 185.104,119.225 184.645,119.225 184.463 C 119.225 184.281,119.362 183.695,119.529 183.161 C 120.328 180.612,121.326 175.779,121.741 172.446 C 122.548 165.971,122.884 160.259,122.715 155.891 C 122.539 151.364,122.266 147.598,121.964 145.521 C 121.517 142.455,121.082 139.873,120.869 139.026 C 120.753 138.565,120.586 137.810,120.498 137.349 C 120.410 136.888,120.224 136.087,120.084 135.568 C 119.173 132.194,118.699 130.588,118.289 129.492 C 117.576 127.586,117.334 126.966,116.693 125.406 C 116.313 124.484,115.879 123.544,115.728 123.316 C 115.577 123.089,115.453 122.794,115.453 122.661 C 115.453 122.451,114.753 121.117,113.209 118.387 C 110.608 113.786,106.029 108.393,101.414 104.492 C 100.435 103.664,99.586 102.936,99.529 102.874 C 99.471 102.813,98.952 102.388,98.376 101.931 C 97.800 101.474,97.297 101.029,97.259 100.943 C 97.220 100.856,97.055 100.786,96.892 100.786 C 96.729 100.786,96.594 100.715,96.594 100.629 C 96.593 100.542,96.239 100.237,95.808 99.949 C 95.377 99.662,94.976 99.376,94.919 99.313 C 94.709 99.083,90.576 96.401,88.738 95.302 C 86.275 93.831,80.017 90.746,78.582 90.297 C 78.290 90.206,77.533 89.930,76.899 89.684 C 76.265 89.438,75.134 89.043,74.384 88.805 C 73.635 88.568,72.859 88.291,72.659 88.189 C 72.459 88.087,72.155 88.004,71.985 88.004 C 71.815 88.004,71.271 87.873,70.777 87.713 C 69.945 87.443,66.957 86.755,64.746 86.323 C 61.237 85.639,50.612 85.168,48.821 85.617 " stroke="none" fill="#2c9ccc" fill-rule="evenodd"></path><path id="path2" d="M0.000 104.767 L 0.000 209.534 200.000 209.534 L 400.000 209.534 400.000 104.767 L 400.000 0.000 200.000 0.000 L 0.000 0.000 0.000 104.767 M257.750 4.421 C 258.371 4.547,259.775 4.724,260.870 4.813 C 262.884 4.977,264.807 5.277,266.527 5.696 C 267.046 5.822,267.894 6.002,268.413 6.096 C 270.334 6.443,271.671 6.755,272.024 6.937 C 272.225 7.040,272.515 7.124,272.670 7.124 C 273.032 7.124,275.744 7.929,276.192 8.170 C 276.380 8.270,276.876 8.417,277.294 8.496 C 277.713 8.574,278.108 8.722,278.171 8.824 C 278.234 8.926,278.498 9.010,278.757 9.010 C 279.016 9.010,279.411 9.148,279.635 9.318 C 279.859 9.487,280.236 9.628,280.473 9.632 C 280.711 9.636,281.088 9.777,281.311 9.946 C 281.535 10.115,281.919 10.257,282.164 10.260 C 282.409 10.264,282.727 10.409,282.871 10.581 C 283.014 10.754,283.344 10.896,283.604 10.896 C 283.864 10.896,284.194 11.037,284.337 11.210 C 284.481 11.383,284.737 11.524,284.907 11.524 C 285.077 11.524,285.466 11.658,285.772 11.822 C 286.078 11.986,286.469 12.174,286.642 12.240 C 286.815 12.306,287.122 12.455,287.323 12.571 C 287.932 12.921,288.374 13.158,289.471 13.723 C 290.047 14.019,290.849 14.457,291.252 14.696 C 294.287 16.490,295.557 17.286,295.617 17.432 C 295.656 17.525,295.824 17.601,295.991 17.601 C 296.157 17.601,296.348 17.742,296.415 17.915 C 296.481 18.088,296.625 18.229,296.735 18.229 C 296.975 18.229,299.779 20.283,300.491 20.980 C 300.682 21.167,300.931 21.355,301.044 21.399 C 301.284 21.490,302.908 22.840,304.006 23.861 C 305.847 25.573,308.015 27.679,308.015 27.756 C 308.015 27.802,308.557 28.394,309.219 29.072 C 310.534 30.417,311.044 30.996,312.311 32.582 C 312.772 33.158,313.263 33.751,313.403 33.899 C 313.543 34.048,313.822 34.449,314.024 34.790 C 314.226 35.132,314.465 35.411,314.555 35.411 C 314.646 35.411,314.720 35.556,314.720 35.732 C 314.720 35.909,314.861 36.107,315.034 36.174 C 315.207 36.240,315.348 36.388,315.348 36.504 C 315.348 36.619,315.616 37.056,315.942 37.476 C 316.269 37.896,316.598 38.381,316.674 38.554 C 316.831 38.910,317.286 39.653,317.444 39.811 C 317.699 40.067,318.430 41.244,318.810 42.012 C 319.038 42.472,319.279 42.897,319.346 42.954 C 319.413 43.012,319.696 43.531,319.975 44.107 C 320.254 44.683,320.553 45.186,320.639 45.224 C 320.726 45.263,320.796 45.394,320.796 45.515 C 320.796 45.637,321.231 46.643,321.762 47.750 C 322.293 48.858,322.912 50.189,323.137 50.707 C 323.362 51.226,323.635 51.814,323.743 52.014 C 323.851 52.214,323.942 52.544,323.946 52.747 C 323.950 52.951,324.091 53.300,324.260 53.524 C 324.429 53.747,324.568 54.110,324.568 54.329 C 324.568 54.549,324.696 54.979,324.853 55.285 C 325.293 56.142,325.657 57.233,325.774 58.041 C 325.832 58.444,326.009 58.960,326.167 59.188 C 326.325 59.415,326.457 59.886,326.461 60.235 C 326.465 60.584,326.603 61.105,326.768 61.393 C 326.933 61.682,327.071 62.165,327.075 62.468 C 327.079 62.771,327.224 63.357,327.397 63.771 C 327.569 64.184,327.712 64.832,327.714 65.211 C 327.716 65.589,327.853 66.276,328.019 66.737 C 328.185 67.197,328.325 67.982,328.330 68.479 C 328.335 68.976,328.434 69.560,328.549 69.775 C 328.665 69.991,328.852 71.092,328.967 72.223 C 329.081 73.354,329.267 74.893,329.381 75.642 C 329.648 77.391,329.651 92.498,329.386 94.290 C 329.275 95.039,329.090 96.670,328.974 97.914 C 328.858 99.158,328.681 100.337,328.580 100.533 C 328.479 100.730,328.341 101.589,328.273 102.442 C 328.205 103.295,328.050 104.092,327.930 104.213 C 327.809 104.333,327.711 104.887,327.711 105.444 C 327.711 106.001,327.569 106.795,327.397 107.209 C 327.224 107.623,327.082 108.256,327.081 108.616 C 327.080 108.977,326.939 109.542,326.767 109.872 C 326.594 110.202,326.453 110.768,326.452 111.129 C 326.452 111.491,326.310 112.056,326.138 112.386 C 325.966 112.717,325.822 113.235,325.818 113.539 C 325.814 113.843,325.675 114.327,325.511 114.615 C 325.346 114.903,325.208 115.395,325.204 115.708 C 325.200 116.021,325.067 116.587,324.910 116.965 C 324.472 118.013,324.118 119.063,324.004 119.644 C 323.947 119.932,323.768 120.465,323.606 120.828 C 323.443 121.191,323.311 121.620,323.311 121.781 C 323.311 121.942,323.231 122.164,323.134 122.273 C 323.037 122.383,322.744 123.133,322.483 123.939 C 322.221 124.746,321.923 125.496,321.821 125.605 C 321.718 125.715,321.634 125.932,321.634 126.088 C 321.634 126.244,321.441 126.815,321.204 127.356 C 320.002 130.102,319.931 130.330,320.277 130.330 C 320.447 130.330,320.587 130.425,320.587 130.541 C 320.587 130.852,318.701 136.056,317.946 137.828 C 317.785 138.206,317.650 138.678,317.647 138.876 C 317.643 139.073,317.501 139.418,317.332 139.642 C 317.163 139.866,317.025 140.248,317.025 140.491 C 317.025 140.734,316.939 141.022,316.835 141.131 C 316.730 141.241,316.546 141.661,316.426 142.064 C 316.124 143.076,315.167 145.850,314.944 146.359 C 314.843 146.590,314.554 147.391,314.301 148.140 C 314.048 148.889,313.768 149.691,313.679 149.921 C 313.540 150.280,313.103 151.665,311.761 155.998 C 310.954 158.602,311.531 162.701,312.858 163.784 C 313.849 164.594,316.987 164.553,317.677 163.723 C 317.807 163.565,318.008 163.436,318.123 163.436 C 318.392 163.436,319.243 162.696,322.551 159.583 C 324.035 158.188,325.313 156.998,325.392 156.941 C 325.845 156.609,326.244 155.693,326.244 154.986 C 326.244 153.705,327.195 149.621,328.496 145.312 C 328.799 144.311,329.027 143.654,329.681 141.907 C 329.843 141.475,330.272 140.320,330.635 139.340 C 330.998 138.360,331.369 137.417,331.460 137.245 C 331.551 137.072,331.984 136.082,332.422 135.045 C 333.491 132.516,333.685 132.328,335.523 132.044 C 336.961 131.822,337.854 131.655,341.959 130.841 C 345.355 130.167,346.150 130.180,345.737 130.901 C 345.491 131.330,345.268 131.967,343.809 136.406 C 343.221 138.193,342.667 139.843,342.577 140.073 C 342.487 140.304,342.305 140.917,342.171 141.435 C 342.038 141.954,341.784 142.897,341.608 143.531 C 340.764 146.571,340.933 146.648,343.112 144.212 C 355.576 130.280,364.718 126.500,368.202 133.838 C 368.745 134.983,368.888 139.331,368.434 140.911 C 368.302 141.372,368.087 142.174,367.957 142.693 C 367.828 143.211,367.578 144.107,367.404 144.683 C 367.229 145.259,366.991 146.104,366.874 146.561 C 366.758 147.017,366.585 147.489,366.492 147.608 C 366.398 147.728,366.269 148.062,366.206 148.350 C 366.088 148.881,365.564 150.412,365.237 151.179 C 365.138 151.409,364.916 151.975,364.742 152.436 C 364.000 154.407,363.691 155.200,363.415 155.848 C 363.254 156.226,363.122 156.671,363.122 156.836 C 363.122 157.001,362.990 157.446,362.828 157.824 C 362.548 158.481,362.148 159.809,361.667 161.680 C 361.149 163.696,361.715 165.521,362.990 165.942 C 365.138 166.651,367.432 165.264,372.374 160.272 C 376.324 156.282,376.113 156.316,376.113 159.666 C 376.113 162.387,376.158 162.324,370.770 167.283 C 368.364 169.497,363.031 172.945,361.021 173.586 C 351.793 176.527,346.430 171.316,348.739 161.655 C 349.712 157.585,350.610 154.792,352.782 149.083 C 353.176 148.046,353.576 147.009,353.669 146.778 C 357.347 137.738,353.559 137.693,345.544 146.680 C 340.237 152.632,340.000 152.941,338.975 155.265 C 338.244 156.923,337.349 164.271,337.349 168.619 L 337.349 171.998 336.249 172.298 C 335.644 172.463,333.829 172.901,332.216 173.271 C 330.602 173.641,328.756 174.089,328.113 174.265 C 325.869 174.882,325.915 175.000,325.697 167.985 C 325.615 165.359,325.476 163.165,325.388 163.111 C 325.300 163.056,324.528 163.649,323.674 164.429 C 317.575 169.992,313.397 172.842,309.341 174.207 C 303.919 176.032,299.227 172.356,299.142 166.216 C 299.110 163.877,299.104 163.848,298.726 164.320 C 298.515 164.583,297.760 165.452,297.049 166.250 C 296.339 167.049,295.333 168.180,294.814 168.765 C 293.084 170.714,288.025 175.726,286.328 177.171 C 285.406 177.956,284.605 178.659,284.547 178.733 C 284.368 178.961,278.492 183.342,278.364 183.342 C 278.298 183.342,278.129 183.438,277.990 183.555 C 276.985 184.403,276.698 184.599,276.465 184.599 C 276.320 184.599,276.169 184.676,276.131 184.769 C 276.045 184.976,270.769 188.161,270.512 188.161 C 270.411 188.161,270.204 188.279,270.052 188.423 C 269.695 188.760,264.612 191.308,264.300 191.306 C 264.170 191.305,263.947 191.446,263.803 191.619 C 263.660 191.792,263.318 191.933,263.044 191.933 C 262.770 191.933,262.546 192.027,262.546 192.142 C 262.546 192.258,262.427 192.352,262.281 192.352 C 262.135 192.352,261.664 192.541,261.234 192.771 C 260.804 193.002,260.263 193.190,260.032 193.190 C 259.801 193.190,259.612 193.277,259.612 193.383 C 259.612 193.489,259.323 193.639,258.970 193.717 C 258.616 193.795,258.074 193.990,257.765 194.152 C 257.456 194.313,257.057 194.445,256.878 194.446 C 256.699 194.447,256.464 194.531,256.354 194.634 C 256.245 194.736,255.495 195.034,254.688 195.295 C 253.882 195.557,253.132 195.850,253.023 195.947 C 252.913 196.044,252.644 196.124,252.426 196.124 C 252.207 196.124,251.731 196.250,251.367 196.405 C 251.004 196.560,250.141 196.849,249.450 197.047 C 248.759 197.245,247.910 197.506,247.564 197.626 C 247.218 197.746,246.558 197.912,246.097 197.993 C 245.636 198.075,245.053 198.253,244.802 198.390 C 244.550 198.526,244.031 198.641,243.649 198.645 C 243.267 198.648,242.771 198.790,242.548 198.959 C 242.324 199.128,241.793 199.267,241.368 199.267 C 240.944 199.267,240.257 199.408,239.844 199.581 C 239.430 199.754,238.770 199.895,238.377 199.895 C 237.984 199.895,237.324 200.037,236.910 200.210 C 236.497 200.382,235.702 200.524,235.146 200.524 C 234.589 200.524,234.040 200.616,233.927 200.730 C 233.814 200.843,233.017 201.025,232.157 201.135 C 231.296 201.245,230.168 201.431,229.649 201.549 C 229.130 201.666,228.205 201.767,227.592 201.772 C 226.980 201.777,226.299 201.877,226.079 201.995 C 225.860 202.112,224.428 202.308,222.898 202.430 C 221.367 202.552,219.267 202.730,218.229 202.825 C 215.806 203.048,192.909 203.047,190.152 202.824 C 188.999 202.731,186.847 202.557,185.368 202.438 C 183.890 202.319,182.381 202.131,182.016 202.020 C 181.650 201.909,180.563 201.765,179.598 201.700 C 178.634 201.634,177.550 201.490,177.189 201.380 C 176.583 201.194,175.390 200.999,172.132 200.552 C 171.440 200.457,170.545 200.278,170.141 200.153 C 169.225 199.871,167.443 199.502,166.003 199.297 C 165.397 199.210,164.789 199.027,164.651 198.889 C 164.513 198.751,164.125 198.638,163.789 198.638 C 163.240 198.638,162.246 198.379,160.398 197.755 C 160.052 197.638,159.487 197.498,159.141 197.444 C 158.795 197.390,158.215 197.212,157.852 197.049 C 157.489 196.886,156.999 196.752,156.764 196.752 C 156.529 196.752,156.283 196.665,156.217 196.559 C 156.152 196.452,155.793 196.298,155.420 196.217 C 154.783 196.077,153.736 195.678,152.910 195.260 C 152.710 195.159,152.437 195.076,152.304 195.076 C 152.170 195.076,151.375 194.746,150.536 194.343 C 149.697 193.939,148.910 193.609,148.785 193.609 C 148.661 193.609,148.558 193.539,148.557 193.452 C 148.556 193.366,148.038 193.065,147.405 192.783 C 146.772 192.502,146.255 192.196,146.255 192.102 C 146.255 192.009,146.110 191.933,145.934 191.933 C 145.757 191.933,145.559 191.792,145.492 191.619 C 145.426 191.446,145.255 191.304,145.112 191.304 C 144.396 191.304,139.969 185.816,139.969 184.929 C 139.969 184.776,139.827 184.533,139.654 184.390 C 139.481 184.246,139.340 183.992,139.340 183.825 C 139.340 183.658,139.199 183.380,139.026 183.207 C 138.853 183.034,138.711 182.723,138.711 182.515 C 138.711 182.306,138.570 182.019,138.397 181.875 C 138.224 181.732,138.080 181.461,138.076 181.273 C 138.072 181.086,137.931 180.749,137.762 180.526 C 137.593 180.302,137.454 179.901,137.454 179.635 C 137.454 179.369,137.367 179.151,137.261 179.151 C 137.155 179.151,137.005 178.862,136.927 178.509 C 136.850 178.155,136.654 177.613,136.493 177.304 C 136.332 176.995,136.199 176.530,136.198 176.270 C 136.198 176.011,136.111 175.799,136.006 175.799 C 135.901 175.799,135.751 175.422,135.673 174.962 C 135.596 174.501,135.454 174.077,135.359 174.018 C 135.264 173.959,135.120 173.511,135.039 173.021 C 134.958 172.532,134.820 172.038,134.731 171.922 C 134.578 171.725,134.329 170.781,133.886 168.724 C 133.781 168.233,133.597 167.650,133.479 167.428 C 133.360 167.207,133.263 166.743,133.263 166.397 C 133.263 166.051,133.158 165.503,133.029 165.179 C 132.758 164.498,132.278 162.221,132.022 160.398 C 131.925 159.707,131.740 158.875,131.611 158.551 C 131.483 158.227,131.377 157.519,131.375 156.980 C 131.374 156.440,131.233 155.535,131.061 154.969 C 130.889 154.404,130.749 153.349,130.749 152.626 C 130.749 151.902,130.644 151.045,130.516 150.721 C 130.387 150.396,130.205 148.952,130.112 147.512 C 130.018 146.071,129.835 144.138,129.705 143.216 C 129.379 140.906,129.379 120.098,129.705 117.968 C 129.837 117.103,130.021 115.217,130.114 113.777 C 130.206 112.336,130.387 110.892,130.516 110.568 C 130.644 110.243,130.750 109.395,130.751 108.682 C 130.753 107.969,130.894 106.923,131.066 106.357 C 131.237 105.792,131.378 104.935,131.378 104.453 C 131.378 103.971,131.518 103.113,131.690 102.548 C 131.861 101.982,132.003 101.159,132.004 100.720 C 132.005 100.280,132.101 99.743,132.217 99.526 C 132.333 99.309,132.516 98.585,132.623 97.916 C 132.864 96.418,133.215 94.842,133.523 93.871 C 133.652 93.468,133.829 92.761,133.917 92.300 C 134.194 90.855,134.619 89.303,134.783 89.139 C 134.869 89.053,134.940 88.825,134.940 88.633 C 134.940 88.207,135.727 85.524,136.000 85.021 C 136.108 84.821,136.198 84.491,136.198 84.288 C 136.199 84.085,136.340 83.648,136.513 83.318 C 136.685 82.988,136.826 82.564,136.827 82.375 C 136.828 82.187,136.969 81.762,137.141 81.432 C 137.313 81.102,137.454 80.672,137.454 80.477 C 137.454 80.282,137.593 79.939,137.762 79.715 C 137.931 79.492,138.072 79.135,138.076 78.922 C 138.080 78.709,138.214 78.285,138.374 77.979 C 138.535 77.673,138.826 76.998,139.022 76.480 C 139.484 75.257,140.092 73.848,141.236 71.346 C 142.585 68.396,144.298 65.068,145.388 63.279 C 145.634 62.876,145.939 62.287,146.065 61.970 C 146.192 61.653,146.381 61.393,146.485 61.393 C 146.589 61.393,146.674 61.297,146.674 61.179 C 146.674 60.787,150.556 54.905,151.384 54.042 C 151.559 53.860,151.702 53.643,151.702 53.562 C 151.702 53.480,151.795 53.300,151.907 53.160 C 152.020 53.021,152.468 52.469,152.903 51.934 C 153.337 51.399,154.164 50.366,154.741 49.640 C 155.317 48.914,156.236 47.862,156.784 47.303 C 157.331 46.744,157.779 46.236,157.779 46.175 C 157.779 46.018,163.173 40.709,165.522 38.554 C 168.004 36.276,167.771 36.480,168.989 35.514 C 169.565 35.057,170.225 34.491,170.456 34.257 C 170.968 33.736,174.142 31.262,174.981 30.730 C 175.315 30.518,175.589 30.258,175.589 30.154 C 175.589 30.049,175.731 29.963,175.904 29.963 C 176.076 29.963,176.219 29.893,176.219 29.806 C 176.220 29.720,176.574 29.413,177.005 29.125 C 177.436 28.837,177.884 28.529,177.999 28.441 C 179.386 27.380,183.456 24.655,185.965 23.107 C 186.193 22.966,187.148 22.377,188.086 21.797 C 189.024 21.218,189.896 20.744,190.024 20.744 C 190.152 20.744,190.257 20.659,190.257 20.555 C 190.257 20.451,190.516 20.259,190.833 20.129 C 191.150 19.999,191.975 19.571,192.666 19.178 C 195.218 17.729,201.874 14.513,205.238 13.105 C 205.584 12.961,206.224 12.687,206.660 12.498 C 207.096 12.308,207.583 12.153,207.743 12.153 C 207.902 12.153,208.324 12.012,208.679 11.839 C 209.034 11.666,209.615 11.383,209.970 11.210 C 210.325 11.037,210.820 10.893,211.070 10.889 C 211.320 10.885,211.707 10.744,211.931 10.575 C 212.155 10.406,212.498 10.267,212.693 10.267 C 212.888 10.267,213.318 10.126,213.648 9.954 C 213.978 9.782,214.437 9.637,214.667 9.632 C 214.898 9.628,215.322 9.489,215.610 9.324 C 215.898 9.160,216.388 9.021,216.698 9.017 C 217.008 9.013,217.312 8.928,217.374 8.828 C 217.436 8.728,217.870 8.585,218.339 8.510 C 218.807 8.435,219.352 8.285,219.548 8.176 C 219.745 8.068,220.377 7.874,220.953 7.745 C 221.530 7.616,222.567 7.370,223.258 7.198 C 223.950 7.025,224.751 6.839,225.039 6.783 C 225.327 6.728,226.176 6.552,226.925 6.393 C 231.580 5.407,233.617 5.073,236.668 4.795 C 237.821 4.691,239.188 4.523,239.707 4.424 C 241.139 4.149,256.405 4.147,257.750 4.421 M61.184 85.813 C 62.624 85.993,64.227 86.222,64.746 86.323 C 66.957 86.755,69.945 87.443,70.777 87.713 C 71.271 87.873,71.815 88.004,71.985 88.004 C 72.155 88.004,72.459 88.087,72.659 88.189 C 72.859 88.291,73.635 88.568,74.384 88.805 C 75.134 89.043,76.265 89.438,76.899 89.684 C 77.533 89.930,78.290 90.206,78.582 90.297 C 80.017 90.746,86.275 93.831,88.738 95.302 C 90.576 96.401,94.709 99.083,94.919 99.313 C 94.976 99.376,95.377 99.662,95.808 99.949 C 96.239 100.237,96.593 100.542,96.594 100.629 C 96.594 100.715,96.729 100.786,96.892 100.786 C 97.055 100.786,97.220 100.856,97.259 100.943 C 97.297 101.029,97.800 101.474,98.376 101.931 C 98.952 102.388,99.471 102.813,99.529 102.874 C 99.586 102.936,100.435 103.664,101.414 104.492 C 106.029 108.393,110.608 113.786,113.209 118.387 C 114.753 121.117,115.453 122.451,115.453 122.661 C 115.453 122.794,115.577 123.089,115.728 123.316 C 115.879 123.544,116.313 124.484,116.693 125.406 C 117.334 126.966,117.576 127.586,118.289 129.492 C 118.699 130.588,119.173 132.194,120.084 135.568 C 120.224 136.087,120.410 136.888,120.498 137.349 C 120.586 137.810,120.753 138.565,120.869 139.026 C 121.082 139.873,121.517 142.455,121.964 145.521 C 122.266 147.598,122.539 151.364,122.715 155.891 C 122.884 160.259,122.548 165.971,121.741 172.446 C 121.326 175.779,120.328 180.612,119.529 183.161 C 119.362 183.695,119.225 184.281,119.225 184.463 C 119.225 184.645,119.091 185.104,118.928 185.483 C 118.765 185.861,118.331 186.957,117.964 187.917 C 116.399 192.013,114.472 194.199,111.053 195.754 C 108.286 197.013,106.600 197.608,102.672 198.710 C 96.642 200.401,85.471 201.593,78.549 201.283 C 71.422 200.963,67.829 200.618,65.017 199.980 C 64.302 199.818,63.476 199.686,63.181 199.686 C 62.616 199.686,60.992 199.298,56.574 198.108 C 53.904 197.389,50.620 196.251,48.658 195.366 C 48.050 195.091,47.487 194.866,47.408 194.866 C 47.259 194.866,42.135 192.310,41.383 191.861 C 41.152 191.723,40.565 191.353,40.078 191.038 C 39.590 190.724,39.138 190.466,39.073 190.466 C 39.009 190.466,38.842 190.368,38.703 190.247 C 38.563 190.126,37.789 189.563,36.983 188.995 C 33.264 186.378,30.321 183.646,26.087 178.881 C 25.802 178.560,25.025 177.617,24.361 176.787 C 23.697 175.956,22.987 175.092,22.783 174.866 C 22.189 174.206,18.245 168.385,17.808 167.522 C 17.691 167.292,17.393 166.773,17.146 166.370 C 16.284 164.962,13.684 159.755,12.910 157.884 C 12.481 156.847,12.045 155.809,11.942 155.579 C 11.475 154.536,10.254 150.800,9.854 149.188 C 9.754 148.785,9.429 147.512,9.131 146.360 C 8.834 145.208,8.591 144.012,8.591 143.702 C 8.591 143.392,8.494 142.884,8.375 142.572 C 7.203 139.488,7.197 127.089,8.365 121.949 C 9.345 117.638,9.501 117.084,10.513 114.301 C 11.199 112.418,11.371 112.020,12.470 109.796 C 15.210 104.246,18.886 99.634,23.782 95.599 C 25.022 94.577,28.095 92.411,28.706 92.128 C 28.879 92.047,29.350 91.785,29.754 91.544 C 34.253 88.858,40.307 86.831,46.307 86.000 C 47.517 85.833,48.649 85.661,48.821 85.617 C 49.785 85.376,58.818 85.519,61.184 85.813 " stroke="none" fill="#2c5c84" fill-rule="evenodd"></path><path id="path3" d="M190.571 100.955 C 190.340 101.000,190.062 101.121,189.953 101.225 C 189.843 101.329,189.608 101.415,189.429 101.416 C 189.250 101.416,188.834 101.558,188.504 101.730 C 188.174 101.902,187.811 102.043,187.698 102.043 C 187.584 102.043,187.194 102.173,186.831 102.331 C 186.468 102.489,185.322 102.923,184.285 103.295 C 182.011 104.111,181.208 104.409,178.245 105.535 L 177.235 105.919 175.560 109.377 C 174.639 111.278,173.736 113.164,173.554 113.567 C 173.372 113.971,173.146 114.459,173.052 114.652 C 172.958 114.845,172.402 116.165,171.817 117.585 C 171.232 119.006,170.674 120.356,170.577 120.587 C 170.480 120.817,170.259 121.383,170.085 121.844 C 169.370 123.743,169.038 124.601,168.786 125.197 C 168.640 125.543,168.454 126.132,168.372 126.504 C 168.290 126.877,168.136 127.236,168.030 127.302 C 167.924 127.367,167.837 127.601,167.837 127.821 C 167.837 128.041,167.704 128.530,167.543 128.909 C 167.381 129.287,167.087 130.162,166.888 130.854 C 166.690 131.545,166.446 132.273,166.346 132.471 C 166.247 132.668,166.074 133.187,165.962 133.623 C 165.850 134.059,165.604 134.935,165.415 135.568 C 165.002 136.953,164.528 138.719,164.262 139.864 C 164.155 140.325,163.974 141.032,163.860 141.435 C 163.236 143.646,162.947 145.098,162.277 149.398 C 161.522 154.236,161.328 162.386,161.925 164.170 C 162.041 164.515,162.342 165.441,162.594 166.227 C 164.869 173.315,171.677 176.224,179.359 173.389 C 183.120 172.002,188.464 168.392,193.583 163.781 C 195.543 162.015,195.663 162.018,196.080 163.855 C 196.415 165.336,196.772 166.154,197.769 167.732 C 198.711 169.221,201.407 172.027,201.897 172.027 C 202.044 172.027,202.197 172.110,202.235 172.211 C 202.346 172.503,205.051 173.698,206.137 173.934 C 213.144 175.462,219.599 173.774,226.039 168.730 C 227.428 167.642,229.563 165.845,230.497 164.978 C 233.021 162.634,233.304 162.547,233.504 164.053 C 233.969 167.554,237.292 172.484,239.918 173.568 C 240.436 173.781,241.018 174.037,241.211 174.137 C 241.831 174.455,244.174 174.583,245.364 174.365 C 249.360 173.630,252.143 171.926,255.851 167.941 C 257.698 165.956,258.240 165.312,259.766 163.279 C 261.884 160.457,262.026 160.470,262.207 163.500 C 262.561 169.419,263.891 172.485,266.693 173.841 C 269.101 175.007,273.148 174.414,275.680 172.525 C 276.047 172.251,276.411 172.027,276.488 172.027 C 276.616 172.027,278.220 170.839,278.470 170.559 C 278.528 170.494,279.047 170.068,279.623 169.611 C 280.199 169.154,281.142 168.343,281.718 167.808 C 282.294 167.273,283.093 166.565,283.492 166.236 C 288.457 162.139,294.358 155.469,297.322 150.606 C 298.259 149.067,298.496 148.877,299.742 148.663 C 301.017 148.444,304.336 147.398,304.767 147.079 C 305.900 146.241,306.401 147.083,305.539 148.376 C 304.499 149.937,302.411 153.893,301.515 155.998 C 301.270 156.574,300.935 157.343,300.771 157.706 C 300.606 158.069,300.471 158.498,300.471 158.659 C 300.471 158.820,300.387 159.042,300.284 159.151 C 300.181 159.261,299.998 159.775,299.878 160.293 C 299.758 160.812,299.543 161.661,299.401 162.179 C 297.674 168.474,301.109 174.572,306.381 174.572 C 310.781 174.572,315.747 171.659,323.674 164.429 C 324.528 163.649,325.300 163.056,325.388 163.111 C 325.476 163.165,325.615 165.359,325.697 167.985 C 325.915 175.000,325.869 174.882,328.113 174.265 C 328.756 174.089,330.602 173.641,332.216 173.271 C 333.829 172.901,335.644 172.463,336.249 172.298 L 337.349 171.998 337.349 168.619 C 337.349 164.271,338.244 156.923,338.975 155.265 C 340.000 152.941,340.237 152.632,345.544 146.680 C 353.559 137.693,357.347 137.738,353.669 146.778 C 353.576 147.009,353.176 148.046,352.782 149.083 C 350.610 154.792,349.712 157.585,348.739 161.655 C 346.430 171.316,351.793 176.527,361.021 173.586 C 363.031 172.945,368.364 169.497,370.770 167.283 C 376.158 162.324,376.113 162.387,376.113 159.666 C 376.113 156.316,376.324 156.282,372.374 160.272 C 367.432 165.264,365.138 166.651,362.990 165.942 C 361.715 165.521,361.149 163.696,361.667 161.680 C 362.148 159.809,362.548 158.481,362.828 157.824 C 362.990 157.446,363.122 157.001,363.122 156.836 C 363.122 156.671,363.254 156.226,363.415 155.848 C 363.576 155.469,363.849 154.783,364.020 154.322 C 364.484 153.075,365.034 151.653,365.237 151.179 C 365.564 150.412,366.088 148.881,366.206 148.350 C 366.269 148.062,366.398 147.728,366.492 147.608 C 366.585 147.489,366.758 147.017,366.874 146.561 C 366.991 146.104,367.229 145.259,367.404 144.683 C 367.578 144.107,367.828 143.211,367.957 142.693 C 368.087 142.174,368.302 141.372,368.434 140.911 C 368.888 139.331,368.745 134.983,368.202 133.838 C 364.718 126.500,355.576 130.280,343.112 144.212 C 340.933 146.648,340.764 146.571,341.608 143.531 C 341.784 142.897,342.038 141.954,342.171 141.435 C 342.305 140.917,342.487 140.304,342.577 140.073 C 342.667 139.843,343.221 138.193,343.809 136.406 C 345.268 131.967,345.491 131.330,345.737 130.901 C 346.150 130.180,345.355 130.167,341.959 130.841 C 337.854 131.655,336.961 131.822,335.523 132.044 C 333.685 132.328,333.491 132.516,332.422 135.045 C 331.984 136.082,331.551 137.072,331.460 137.245 C 331.369 137.417,330.998 138.360,330.635 139.340 C 330.272 140.320,329.843 141.475,329.681 141.907 C 329.027 143.654,328.799 144.311,328.496 145.312 C 327.195 149.621,326.244 153.705,326.244 154.986 C 326.244 155.693,325.845 156.609,325.392 156.941 C 325.313 156.998,324.035 158.188,322.551 159.583 C 319.243 162.696,318.392 163.436,318.123 163.436 C 318.008 163.436,317.807 163.565,317.677 163.723 C 316.987 164.553,313.849 164.594,312.858 163.784 C 311.531 162.701,310.954 158.602,311.761 155.998 C 313.103 151.665,313.540 150.280,313.679 149.921 C 313.768 149.691,314.048 148.889,314.301 148.140 C 314.554 147.391,314.843 146.590,314.944 146.359 C 315.167 145.850,316.124 143.076,316.426 142.064 C 316.546 141.661,316.730 141.241,316.835 141.131 C 316.939 141.022,317.025 140.734,317.025 140.491 C 317.025 140.248,317.163 139.866,317.332 139.642 C 317.501 139.418,317.643 139.073,317.647 138.876 C 317.650 138.678,317.785 138.206,317.946 137.828 C 318.737 135.972,320.587 130.847,320.587 130.512 C 320.587 130.339,320.030 130.313,318.577 130.420 C 316.113 130.601,316.160 130.583,315.655 131.538 C 315.188 132.422,314.011 134.289,313.682 134.669 C 313.561 134.808,313.463 135.003,313.463 135.102 C 313.463 135.461,309.964 139.249,308.664 140.297 C 306.007 142.442,301.973 143.991,301.597 143.012 C 301.496 142.750,301.989 140.978,302.588 139.445 C 303.996 135.845,303.577 131.692,301.711 130.740 C 298.430 129.066,293.903 131.519,291.619 136.207 C 288.746 142.105,289.282 146.084,293.243 148.267 C 293.727 148.533,293.897 149.264,293.567 149.654 C 293.442 149.801,292.851 150.581,292.253 151.388 C 291.656 152.195,291.068 152.957,290.947 153.082 C 290.827 153.207,290.310 153.820,289.799 154.444 C 287.800 156.887,281.662 162.737,279.804 163.970 C 277.868 165.255,275.461 165.164,274.445 163.768 C 273.666 162.695,273.570 158.152,274.277 155.788 C 274.381 155.443,274.668 154.264,274.916 153.169 C 275.407 151.001,275.445 150.865,276.353 147.916 C 276.693 146.812,277.036 145.562,277.116 145.137 C 277.195 144.712,277.344 144.312,277.446 144.249 C 277.549 144.186,277.632 143.950,277.632 143.724 C 277.632 143.370,278.445 140.597,279.133 138.607 C 279.252 138.261,279.422 137.648,279.509 137.245 C 279.597 136.841,279.764 136.276,279.881 135.987 C 279.997 135.699,280.253 134.898,280.449 134.206 C 280.645 133.515,280.940 132.525,281.105 132.006 C 281.627 130.369,281.600 130.330,279.950 130.330 C 279.150 130.330,278.437 130.424,278.366 130.539 C 278.295 130.654,277.747 130.989,277.149 131.284 C 276.550 131.579,275.731 132.016,275.327 132.256 C 274.924 132.495,273.981 133.020,273.232 133.423 C 272.483 133.825,271.776 134.223,271.661 134.307 C 269.533 135.860,268.524 135.988,267.831 134.794 C 264.896 129.736,258.983 128.843,251.755 132.366 C 250.948 132.759,250.100 133.193,249.870 133.329 C 249.124 133.772,246.520 135.457,246.412 135.567 C 246.354 135.625,245.836 136.043,245.259 136.496 C 241.593 139.375,238.048 143.825,235.900 148.245 C 235.103 149.887,234.750 150.858,233.844 153.903 C 233.741 154.248,233.592 155.003,233.514 155.579 C 233.320 156.992,227.581 162.722,224.995 164.085 C 224.731 164.224,224.468 164.398,224.411 164.472 C 223.158 166.084,216.139 166.666,213.515 165.377 C 210.423 163.858,207.959 160.495,207.535 157.214 L 207.405 156.207 208.312 155.870 C 208.811 155.684,209.927 155.317,210.791 155.054 C 211.655 154.791,212.452 154.495,212.562 154.396 C 212.671 154.298,212.954 154.214,213.190 154.210 C 213.426 154.207,213.803 154.065,214.026 153.896 C 214.250 153.727,214.556 153.588,214.707 153.588 C 215.204 153.588,221.301 150.650,221.687 150.225 C 221.744 150.161,222.169 149.882,222.630 149.604 C 223.091 149.326,223.576 149.001,223.709 148.882 C 223.841 148.762,224.508 148.193,225.190 147.617 C 233.330 140.742,229.731 130.330,219.215 130.330 C 217.819 130.330,214.593 130.896,213.515 131.330 C 213.227 131.446,212.567 131.714,212.048 131.925 C 207.141 133.922,201.152 139.930,198.389 145.629 C 196.865 148.771,195.486 153.520,195.492 155.601 C 195.495 156.402,195.380 156.572,193.793 158.115 C 191.447 160.396,191.589 160.265,189.838 161.771 C 188.973 162.514,188.219 163.181,188.161 163.252 C 186.260 165.611,179.950 167.359,177.942 166.082 C 174.838 164.107,173.934 160.982,174.337 153.606 C 174.570 149.336,174.388 149.841,176.575 147.376 C 178.359 145.365,179.165 144.410,179.997 143.321 C 180.393 142.803,180.853 142.237,181.019 142.065 C 181.712 141.344,186.695 134.257,186.695 133.992 C 186.695 133.956,187.120 133.207,187.640 132.327 C 188.753 130.446,191.095 125.643,191.095 125.243 C 191.095 125.091,191.177 124.876,191.279 124.767 C 191.736 124.271,193.284 118.556,193.858 115.244 C 194.311 112.627,194.227 105.593,193.723 103.968 C 193.070 101.864,191.859 100.707,190.571 100.955 M189.199 106.857 C 190.891 107.762,191.063 112.679,189.591 118.072 C 189.113 119.824,187.916 123.319,187.728 123.510 C 187.621 123.619,187.533 123.831,187.533 123.981 C 187.533 125.084,181.595 135.948,180.398 137.035 C 180.335 137.093,179.745 137.847,179.088 138.711 C 177.120 141.301,176.672 141.764,176.398 141.489 C 176.150 141.241,176.175 141.065,176.979 137.454 C 177.146 136.705,177.365 135.658,177.466 135.127 C 177.567 134.596,177.759 133.747,177.893 133.241 C 178.026 132.735,178.280 131.755,178.457 131.063 C 178.634 130.372,178.901 129.335,179.051 128.759 C 179.201 128.182,179.483 127.098,179.678 126.349 C 179.872 125.600,180.163 124.607,180.325 124.142 C 180.486 123.677,180.618 123.146,180.618 122.961 C 180.618 122.776,180.759 122.355,180.931 122.025 C 181.103 121.695,181.245 121.254,181.245 121.044 C 181.246 120.835,181.356 120.460,181.489 120.211 C 181.622 119.962,181.803 119.473,181.890 119.125 C 182.066 118.425,183.018 115.798,183.335 115.139 C 183.446 114.908,183.876 113.886,184.290 112.868 C 186.262 108.020,187.816 106.117,189.199 106.857 M261.579 134.359 C 262.428 134.613,264.222 136.155,264.222 136.631 C 264.222 136.761,264.371 137.180,264.552 137.563 C 265.179 138.883,264.765 144.684,263.806 148.036 C 262.938 151.067,260.707 156.165,259.376 158.156 C 259.045 158.652,258.774 159.107,258.774 159.167 C 258.774 159.810,255.799 162.977,254.268 163.964 C 247.001 168.650,243.325 159.344,248.019 148.140 C 248.188 147.737,248.402 147.218,248.494 146.988 C 248.587 146.757,248.911 146.032,249.214 145.376 C 249.518 144.719,249.860 143.965,249.976 143.699 C 252.741 137.347,257.840 133.242,261.579 134.359 M218.576 134.975 C 220.881 136.733,220.359 143.347,217.659 146.604 C 215.106 149.684,207.965 153.621,207.093 152.429 C 206.601 151.756,207.246 146.033,208.096 143.531 C 208.409 142.610,208.875 141.428,209.088 141.016 C 209.553 140.116,210.286 138.793,210.423 138.608 C 213.408 134.561,216.327 133.260,218.576 134.975 " stroke="none" fill="#090806" fill-rule="evenodd"></path><path id="path4" d="M239.707 4.424 C 239.188 4.523,237.821 4.691,236.668 4.795 C 233.617 5.073,231.580 5.407,226.925 6.393 C 226.176 6.552,225.327 6.728,225.039 6.783 C 224.751 6.839,223.950 7.025,223.258 7.198 C 222.567 7.370,221.530 7.616,220.953 7.745 C 220.377 7.874,219.745 8.068,219.548 8.176 C 219.352 8.285,218.807 8.435,218.339 8.510 C 217.870 8.585,217.436 8.728,217.374 8.828 C 217.312 8.928,217.008 9.013,216.698 9.017 C 216.388 9.021,215.898 9.160,215.610 9.324 C 215.322 9.489,214.898 9.628,214.667 9.632 C 214.437 9.637,213.978 9.782,213.648 9.954 C 213.318 10.126,212.888 10.267,212.693 10.267 C 212.498 10.267,212.155 10.406,211.931 10.575 C 211.707 10.744,211.320 10.885,211.070 10.889 C 210.820 10.893,210.325 11.037,209.970 11.210 C 209.615 11.383,209.034 11.666,208.679 11.839 C 208.324 12.012,207.902 12.153,207.743 12.153 C 207.583 12.153,207.096 12.308,206.660 12.498 C 206.224 12.687,205.584 12.961,205.238 13.105 C 201.874 14.513,195.218 17.729,192.666 19.178 C 191.975 19.571,191.150 19.999,190.833 20.129 C 190.516 20.259,190.257 20.451,190.257 20.555 C 190.257 20.659,190.152 20.744,190.024 20.744 C 189.896 20.744,189.024 21.218,188.086 21.797 C 187.148 22.377,186.193 22.966,185.965 23.107 C 183.456 24.655,179.386 27.380,177.999 28.441 C 177.884 28.529,177.436 28.837,177.005 29.125 C 176.574 29.413,176.220 29.720,176.219 29.806 C 176.219 29.893,176.076 29.963,175.904 29.963 C 175.731 29.963,175.589 30.049,175.589 30.154 C 175.589 30.258,175.315 30.518,174.981 30.730 C 174.142 31.262,170.968 33.736,170.456 34.257 C 170.225 34.491,169.565 35.057,168.989 35.514 C 167.771 36.480,168.004 36.276,165.522 38.554 C 163.173 40.709,157.779 46.018,157.779 46.175 C 157.779 46.236,157.331 46.744,156.784 47.303 C 156.236 47.862,155.317 48.914,154.741 49.640 C 154.164 50.366,153.337 51.399,152.903 51.934 C 152.468 52.469,152.020 53.021,151.907 53.160 C 151.795 53.300,151.702 53.480,151.702 53.562 C 151.702 53.643,151.559 53.860,151.384 54.042 C 150.556 54.905,146.674 60.787,146.674 61.179 C 146.674 61.297,146.589 61.393,146.485 61.393 C 146.381 61.393,146.192 61.653,146.065 61.970 C 145.939 62.287,145.634 62.876,145.388 63.279 C 144.298 65.068,142.585 68.396,141.236 71.346 C 140.092 73.848,139.484 75.257,139.022 76.480 C 138.826 76.998,138.535 77.673,138.374 77.979 C 138.214 78.285,138.080 78.709,138.076 78.922 C 138.072 79.135,137.931 79.492,137.762 79.715 C 137.593 79.939,137.454 80.282,137.454 80.477 C 137.454 80.672,137.313 81.102,137.141 81.432 C 136.969 81.762,136.828 82.187,136.827 82.375 C 136.826 82.564,136.685 82.988,136.513 83.318 C 136.340 83.648,136.199 84.085,136.198 84.288 C 136.198 84.491,136.108 84.821,136.000 85.021 C 135.727 85.524,134.940 88.207,134.940 88.633 C 134.940 88.825,134.869 89.053,134.783 89.139 C 134.619 89.303,134.194 90.855,133.917 92.300 C 133.829 92.761,133.652 93.468,133.523 93.871 C 133.215 94.842,132.864 96.418,132.623 97.916 C 132.516 98.585,132.333 99.309,132.217 99.526 C 132.101 99.743,132.005 100.280,132.004 100.720 C 132.003 101.159,131.861 101.982,131.690 102.548 C 131.518 103.113,131.378 103.971,131.378 104.453 C 131.378 104.935,131.237 105.792,131.066 106.357 C 130.894 106.923,130.753 107.969,130.751 108.682 C 130.750 109.395,130.644 110.243,130.516 110.568 C 130.387 110.892,130.206 112.336,130.114 113.777 C 130.021 115.217,129.837 117.103,129.705 117.968 C 129.379 120.098,129.379 140.906,129.705 143.216 C 129.835 144.138,130.018 146.071,130.112 147.512 C 130.205 148.952,130.387 150.396,130.516 150.721 C 130.644 151.045,130.749 151.902,130.749 152.626 C 130.749 153.349,130.889 154.404,131.061 154.969 C 131.233 155.535,131.374 156.440,131.375 156.980 C 131.377 157.519,131.483 158.227,131.611 158.551 C 131.740 158.875,131.925 159.707,132.022 160.398 C 132.278 162.221,132.758 164.498,133.029 165.179 C 133.158 165.503,133.263 166.051,133.263 166.397 C 133.263 166.743,133.360 167.207,133.479 167.428 C 133.597 167.650,133.781 168.233,133.886 168.724 C 134.329 170.781,134.578 171.725,134.731 171.922 C 134.820 172.038,134.958 172.532,135.039 173.021 C 135.120 173.511,135.264 173.959,135.359 174.018 C 135.454 174.077,135.596 174.501,135.673 174.962 C 135.751 175.422,135.901 175.799,136.006 175.799 C 136.111 175.799,136.198 176.011,136.198 176.270 C 136.199 176.530,136.332 176.995,136.493 177.304 C 136.654 177.613,136.850 178.155,136.927 178.509 C 137.005 178.862,137.155 179.151,137.261 179.151 C 137.367 179.151,137.454 179.369,137.454 179.635 C 137.454 179.901,137.593 180.302,137.762 180.526 C 137.931 180.749,138.072 181.086,138.076 181.273 C 138.080 181.461,138.224 181.732,138.397 181.875 C 138.570 182.019,138.711 182.306,138.711 182.515 C 138.711 182.723,138.853 183.034,139.026 183.207 C 139.199 183.380,139.340 183.658,139.340 183.825 C 139.340 183.992,139.481 184.246,139.654 184.390 C 139.827 184.533,139.969 184.776,139.969 184.929 C 139.969 185.816,144.396 191.304,145.112 191.304 C 145.255 191.304,145.426 191.446,145.492 191.619 C 145.559 191.792,145.757 191.933,145.934 191.933 C 146.110 191.933,146.255 192.009,146.255 192.102 C 146.255 192.196,146.772 192.502,147.405 192.783 C 148.038 193.065,148.556 193.366,148.557 193.452 C 148.558 193.539,148.661 193.609,148.785 193.609 C 148.910 193.609,149.697 193.939,150.536 194.343 C 151.375 194.746,152.170 195.076,152.304 195.076 C 152.437 195.076,152.710 195.159,152.910 195.260 C 153.736 195.678,154.783 196.077,155.420 196.217 C 155.793 196.298,156.152 196.452,156.217 196.559 C 156.283 196.665,156.529 196.752,156.764 196.752 C 156.999 196.752,157.489 196.886,157.852 197.049 C 158.215 197.212,158.795 197.390,159.141 197.444 C 159.487 197.498,160.052 197.638,160.398 197.755 C 162.246 198.379,163.240 198.638,163.789 198.638 C 164.125 198.638,164.513 198.751,164.651 198.889 C 164.789 199.027,165.397 199.210,166.003 199.297 C 167.443 199.502,169.225 199.871,170.141 200.153 C 170.545 200.278,171.440 200.457,172.132 200.552 C 175.390 200.999,176.583 201.194,177.189 201.380 C 177.550 201.490,178.634 201.634,179.598 201.700 C 180.563 201.765,181.650 201.909,182.016 202.020 C 182.381 202.131,183.890 202.319,185.368 202.438 C 186.847 202.557,188.999 202.731,190.152 202.824 C 192.909 203.047,215.806 203.048,218.229 202.825 C 219.267 202.730,221.367 202.552,222.898 202.430 C 224.428 202.308,225.860 202.112,226.079 201.995 C 226.299 201.877,226.980 201.777,227.592 201.772 C 228.205 201.767,229.130 201.666,229.649 201.549 C 230.168 201.431,231.296 201.245,232.157 201.135 C 233.017 201.025,233.814 200.843,233.927 200.730 C 234.040 200.616,234.589 200.524,235.146 200.524 C 235.702 200.524,236.497 200.382,236.910 200.210 C 237.324 200.037,237.984 199.895,238.377 199.895 C 238.770 199.895,239.430 199.754,239.844 199.581 C 240.257 199.408,240.944 199.267,241.368 199.267 C 241.793 199.267,242.324 199.128,242.548 198.959 C 242.771 198.790,243.267 198.648,243.649 198.645 C 244.031 198.641,244.550 198.526,244.802 198.390 C 245.053 198.253,245.636 198.075,246.097 197.993 C 246.558 197.912,247.218 197.746,247.564 197.626 C 247.910 197.506,248.759 197.245,249.450 197.047 C 250.141 196.849,251.004 196.560,251.367 196.405 C 251.731 196.250,252.207 196.124,252.426 196.124 C 252.644 196.124,252.913 196.044,253.023 195.947 C 253.132 195.850,253.882 195.557,254.688 195.295 C 255.495 195.034,256.245 194.736,256.354 194.634 C 256.464 194.531,256.699 194.447,256.878 194.446 C 257.057 194.445,257.456 194.313,257.765 194.152 C 258.074 193.990,258.616 193.795,258.970 193.717 C 259.323 193.639,259.612 193.489,259.612 193.383 C 259.612 193.277,259.801 193.190,260.032 193.190 C 260.263 193.190,260.804 193.002,261.234 192.771 C 261.664 192.541,262.135 192.352,262.281 192.352 C 262.427 192.352,262.546 192.258,262.546 192.142 C 262.546 192.027,262.770 191.933,263.044 191.933 C 263.318 191.933,263.660 191.792,263.803 191.619 C 263.947 191.446,264.170 191.305,264.300 191.306 C 264.612 191.308,269.695 188.760,270.052 188.423 C 270.204 188.279,270.411 188.161,270.512 188.161 C 270.769 188.161,276.045 184.976,276.131 184.769 C 276.169 184.676,276.320 184.599,276.465 184.599 C 276.698 184.599,276.985 184.403,277.990 183.555 C 278.129 183.438,278.298 183.342,278.364 183.342 C 278.492 183.342,284.368 178.961,284.547 178.733 C 284.605 178.659,285.406 177.956,286.328 177.171 C 288.229 175.552,293.145 170.646,295.339 168.179 C 296.145 167.273,297.074 166.236,297.403 165.875 C 298.688 164.461,299.119 163.743,299.356 162.617 C 299.839 160.321,300.099 159.348,300.284 159.151 C 300.387 159.042,300.471 158.825,300.471 158.668 C 300.471 158.512,300.667 157.942,300.906 157.401 C 301.144 156.860,301.481 156.087,301.653 155.684 C 302.449 153.820,304.574 149.825,305.539 148.376 C 306.401 147.083,305.900 146.241,304.767 147.079 C 304.336 147.398,301.017 148.444,299.742 148.663 C 298.496 148.877,298.259 149.067,297.322 150.606 C 295.163 154.148,293.024 156.854,289.580 160.398 C 287.512 162.527,284.579 165.338,283.492 166.236 C 283.093 166.565,282.294 167.273,281.718 167.808 C 281.142 168.343,280.199 169.154,279.623 169.611 C 279.047 170.068,278.528 170.494,278.470 170.559 C 278.220 170.839,276.616 172.027,276.488 172.027 C 276.411 172.027,276.047 172.251,275.680 172.525 C 273.148 174.414,269.101 175.007,266.693 173.841 C 263.891 172.485,262.561 169.419,262.207 163.500 C 262.026 160.470,261.884 160.457,259.766 163.279 C 258.879 164.460,257.811 165.804,257.392 166.265 C 252.280 171.896,249.833 173.544,245.364 174.365 C 244.174 174.583,241.831 174.455,241.211 174.137 C 241.018 174.037,240.436 173.781,239.918 173.568 C 237.292 172.484,233.969 167.554,233.504 164.053 C 233.304 162.547,233.021 162.634,230.497 164.978 C 223.684 171.304,218.266 174.080,212.024 174.441 C 208.392 174.652,202.666 173.348,202.235 172.211 C 202.197 172.110,202.044 172.027,201.897 172.027 C 201.407 172.027,198.711 169.221,197.769 167.732 C 196.772 166.154,196.415 165.336,196.080 163.855 C 195.663 162.018,195.543 162.015,193.583 163.781 C 182.815 173.480,174.913 176.433,168.290 173.233 C 162.332 170.354,160.278 162.210,162.277 149.398 C 162.947 145.098,163.236 143.646,163.860 141.435 C 163.974 141.032,164.155 140.325,164.262 139.864 C 164.528 138.719,165.002 136.953,165.415 135.568 C 165.604 134.935,165.850 134.059,165.962 133.623 C 166.074 133.187,166.247 132.668,166.346 132.471 C 166.446 132.273,166.690 131.545,166.888 130.854 C 167.087 130.162,167.381 129.287,167.543 128.909 C 167.704 128.530,167.837 128.041,167.837 127.821 C 167.837 127.601,167.924 127.367,168.030 127.302 C 168.136 127.236,168.290 126.877,168.372 126.504 C 168.454 126.132,168.640 125.543,168.786 125.197 C 168.932 124.851,169.202 124.167,169.387 123.677 C 170.033 121.963,170.403 121.002,170.577 120.587 C 170.674 120.356,171.232 119.006,171.817 117.585 C 172.402 116.165,172.958 114.845,173.052 114.652 C 173.146 114.459,173.372 113.971,173.554 113.567 C 173.736 113.164,174.639 111.278,175.560 109.377 L 177.235 105.919 178.245 105.535 C 178.801 105.324,179.586 105.028,179.990 104.878 C 180.393 104.728,181.100 104.462,181.561 104.288 C 182.022 104.114,183.248 103.668,184.285 103.295 C 185.322 102.923,186.468 102.489,186.831 102.331 C 187.194 102.173,187.584 102.043,187.698 102.043 C 187.811 102.043,188.174 101.902,188.504 101.730 C 188.834 101.558,189.250 101.416,189.429 101.416 C 189.608 101.415,189.858 101.311,189.984 101.184 C 191.025 100.143,192.989 101.600,193.719 103.954 C 194.227 105.593,194.313 112.614,193.858 115.244 C 193.284 118.556,191.736 124.271,191.279 124.767 C 191.177 124.876,191.095 125.091,191.095 125.243 C 191.095 125.643,188.753 130.446,187.640 132.327 C 187.120 133.207,186.695 133.956,186.695 133.992 C 186.695 134.257,181.712 141.344,181.019 142.065 C 180.853 142.237,180.393 142.803,179.997 143.321 C 179.165 144.410,178.359 145.365,176.575 147.376 C 174.388 149.841,174.570 149.336,174.337 153.606 C 173.934 160.982,174.838 164.107,177.942 166.082 C 179.950 167.359,186.260 165.611,188.161 163.252 C 188.219 163.181,188.973 162.514,189.838 161.771 C 191.589 160.265,191.447 160.396,193.793 158.115 C 195.380 156.572,195.495 156.402,195.492 155.601 C 195.486 153.520,196.865 148.771,198.389 145.629 C 201.152 139.930,207.141 133.922,212.048 131.925 C 212.567 131.714,213.227 131.446,213.515 131.330 C 214.593 130.896,217.819 130.330,219.215 130.330 C 229.731 130.330,233.330 140.742,225.190 147.617 C 224.508 148.193,223.841 148.762,223.709 148.882 C 223.576 149.001,223.091 149.326,222.630 149.604 C 222.169 149.882,221.744 150.161,221.687 150.225 C 221.301 150.650,215.204 153.588,214.707 153.588 C 214.556 153.588,214.250 153.727,214.026 153.896 C 213.803 154.065,213.426 154.207,213.190 154.210 C 212.954 154.214,212.671 154.298,212.562 154.396 C 212.452 154.495,211.655 154.791,210.791 155.054 C 209.927 155.317,208.811 155.684,208.312 155.870 L 207.405 156.207 207.535 157.214 C 207.723 158.663,208.617 160.689,209.784 162.311 C 210.775 163.688,211.812 164.540,213.515 165.377 C 216.139 166.666,223.158 166.084,224.411 164.472 C 224.468 164.398,224.731 164.224,224.995 164.085 C 227.581 162.722,233.320 156.992,233.514 155.579 C 233.592 155.003,233.741 154.248,233.844 153.903 C 234.750 150.858,235.103 149.887,235.900 148.245 C 238.048 143.825,241.593 139.375,245.259 136.496 C 245.836 136.043,246.354 135.625,246.412 135.567 C 246.520 135.457,249.124 133.772,249.870 133.329 C 256.393 129.457,262.727 129.232,266.212 132.751 C 266.788 133.333,267.517 134.253,267.831 134.794 C 268.524 135.988,269.533 135.860,271.661 134.307 C 271.776 134.223,272.483 133.825,273.232 133.423 C 273.981 133.020,274.924 132.495,275.327 132.256 C 275.731 132.016,276.550 131.579,277.149 131.284 C 277.747 130.989,278.295 130.654,278.366 130.539 C 278.437 130.424,279.150 130.330,279.950 130.330 C 281.600 130.330,281.627 130.369,281.105 132.006 C 280.940 132.525,280.645 133.515,280.449 134.206 C 280.253 134.898,279.997 135.699,279.881 135.987 C 279.764 136.276,279.597 136.841,279.509 137.245 C 279.422 137.648,279.252 138.261,279.133 138.607 C 278.445 140.597,277.632 143.370,277.632 143.724 C 277.632 143.950,277.549 144.186,277.446 144.249 C 277.344 144.312,277.195 144.712,277.116 145.137 C 277.036 145.562,276.693 146.812,276.353 147.916 C 275.445 150.865,275.407 151.001,274.916 153.169 C 274.668 154.264,274.381 155.443,274.277 155.788 C 273.570 158.152,273.666 162.695,274.445 163.768 C 275.461 165.164,277.868 165.255,279.804 163.970 C 281.662 162.737,287.800 156.887,289.799 154.444 C 290.310 153.820,290.827 153.207,290.947 153.082 C 291.068 152.957,291.656 152.195,292.253 151.388 C 292.851 150.581,293.442 149.801,293.567 149.654 C 293.897 149.264,293.727 148.533,293.243 148.267 C 289.282 146.084,288.746 142.105,291.619 136.207 C 293.903 131.519,298.430 129.066,301.711 130.740 C 303.577 131.692,303.996 135.845,302.588 139.445 C 301.101 143.248,301.282 143.793,303.764 143.001 C 306.930 141.992,313.463 136.606,313.463 135.006 C 313.463 134.854,313.533 134.730,313.620 134.730 C 313.763 134.730,314.024 134.320,315.537 131.718 C 316.190 130.594,316.160 130.609,318.219 130.437 C 319.875 130.299,319.999 130.255,320.207 129.734 C 320.586 128.784,320.759 128.373,321.204 127.356 C 321.441 126.815,321.634 126.244,321.634 126.088 C 321.634 125.932,321.718 125.715,321.821 125.605 C 321.923 125.496,322.221 124.746,322.483 123.939 C 322.744 123.133,323.037 122.383,323.134 122.273 C 323.231 122.164,323.311 121.942,323.311 121.781 C 323.311 121.620,323.443 121.191,323.606 120.828 C 323.768 120.465,323.947 119.932,324.004 119.644 C 324.118 119.063,324.472 118.013,324.910 116.965 C 325.067 116.587,325.200 116.021,325.204 115.708 C 325.208 115.395,325.346 114.903,325.511 114.615 C 325.675 114.327,325.814 113.843,325.818 113.539 C 325.822 113.235,325.966 112.717,326.138 112.386 C 326.310 112.056,326.452 111.491,326.452 111.129 C 326.453 110.768,326.594 110.202,326.767 109.872 C 326.939 109.542,327.080 108.977,327.081 108.616 C 327.082 108.256,327.224 107.623,327.397 107.209 C 327.569 106.795,327.711 106.001,327.711 105.444 C 327.711 104.887,327.809 104.333,327.930 104.213 C 328.050 104.092,328.205 103.295,328.273 102.442 C 328.341 101.589,328.479 100.730,328.580 100.533 C 328.681 100.337,328.858 99.158,328.974 97.914 C 329.090 96.670,329.275 95.039,329.386 94.290 C 329.651 92.498,329.648 77.391,329.381 75.642 C 329.267 74.893,329.081 73.354,328.967 72.223 C 328.852 71.092,328.665 69.991,328.549 69.775 C 328.434 69.560,328.335 68.976,328.330 68.479 C 328.325 67.982,328.185 67.197,328.019 66.737 C 327.853 66.276,327.716 65.589,327.714 65.211 C 327.712 64.832,327.569 64.184,327.397 63.771 C 327.224 63.357,327.079 62.771,327.075 62.468 C 327.071 62.165,326.933 61.682,326.768 61.393 C 326.603 61.105,326.465 60.584,326.461 60.235 C 326.457 59.886,326.325 59.415,326.167 59.188 C 326.009 58.960,325.832 58.444,325.774 58.041 C 325.657 57.233,325.293 56.142,324.853 55.285 C 324.696 54.979,324.568 54.549,324.568 54.329 C 324.568 54.110,324.429 53.747,324.260 53.524 C 324.091 53.300,323.950 52.951,323.946 52.747 C 323.942 52.544,323.851 52.214,323.743 52.014 C 323.635 51.814,323.362 51.226,323.137 50.707 C 322.912 50.189,322.293 48.858,321.762 47.750 C 321.231 46.643,320.796 45.637,320.796 45.515 C 320.796 45.394,320.726 45.263,320.639 45.224 C 320.553 45.186,320.254 44.683,319.975 44.107 C 319.696 43.531,319.413 43.012,319.346 42.954 C 319.279 42.897,319.038 42.472,318.810 42.012 C 318.430 41.244,317.699 40.067,317.444 39.811 C 317.286 39.653,316.831 38.910,316.674 38.554 C 316.598 38.381,316.269 37.896,315.942 37.476 C 315.616 37.056,315.348 36.619,315.348 36.504 C 315.348 36.388,315.207 36.240,315.034 36.174 C 314.861 36.107,314.720 35.909,314.720 35.732 C 314.720 35.556,314.646 35.411,314.555 35.411 C 314.465 35.411,314.226 35.132,314.024 34.790 C 313.822 34.449,313.543 34.048,313.403 33.899 C 313.263 33.751,312.772 33.158,312.311 32.582 C 311.044 30.996,310.534 30.417,309.219 29.072 C 308.557 28.394,308.015 27.802,308.015 27.756 C 308.015 27.679,305.847 25.573,304.006 23.861 C 302.908 22.840,301.284 21.490,301.044 21.399 C 300.931 21.355,300.682 21.167,300.491 20.980 C 299.779 20.283,296.975 18.229,296.735 18.229 C 296.625 18.229,296.481 18.088,296.415 17.915 C 296.348 17.742,296.157 17.601,295.991 17.601 C 295.824 17.601,295.656 17.525,295.617 17.432 C 295.557 17.286,294.287 16.490,291.252 14.696 C 290.849 14.457,290.047 14.019,289.471 13.723 C 288.374 13.158,287.932 12.921,287.323 12.571 C 287.122 12.455,286.815 12.306,286.642 12.240 C 286.469 12.174,286.078 11.986,285.772 11.822 C 285.466 11.658,285.077 11.524,284.907 11.524 C 284.737 11.524,284.481 11.383,284.337 11.210 C 284.194 11.037,283.864 10.896,283.604 10.896 C 283.344 10.896,283.014 10.754,282.871 10.581 C 282.727 10.409,282.409 10.264,282.164 10.260 C 281.919 10.257,281.535 10.115,281.311 9.946 C 281.088 9.777,280.711 9.636,280.473 9.632 C 280.236 9.628,279.859 9.487,279.635 9.318 C 279.411 9.148,279.016 9.010,278.757 9.010 C 278.498 9.010,278.234 8.926,278.171 8.824 C 278.108 8.722,277.713 8.574,277.294 8.496 C 276.876 8.417,276.380 8.270,276.192 8.170 C 275.744 7.929,273.032 7.124,272.670 7.124 C 272.515 7.124,272.225 7.040,272.024 6.937 C 271.671 6.755,270.334 6.443,268.413 6.096 C 267.894 6.002,267.046 5.822,266.527 5.696 C 264.807 5.277,262.884 4.977,260.870 4.813 C 259.775 4.724,258.371 4.547,257.750 4.421 C 256.405 4.147,241.139 4.149,239.707 4.424 M256.888 4.807 C 258.214 4.938,260.005 5.148,260.870 5.275 C 261.734 5.402,263.007 5.573,263.698 5.656 C 264.390 5.738,265.474 5.919,266.108 6.057 C 266.742 6.195,267.920 6.449,268.727 6.623 C 272.305 7.390,278.071 9.066,279.149 9.651 C 279.349 9.759,279.617 9.848,279.745 9.848 C 279.874 9.848,280.276 9.980,280.639 10.141 C 281.002 10.302,282.101 10.770,283.080 11.181 C 284.060 11.591,285.263 12.122,285.755 12.361 C 286.246 12.599,286.859 12.885,287.117 12.997 C 287.374 13.108,287.750 13.294,287.952 13.410 C 288.636 13.801,289.050 14.022,289.995 14.498 C 290.513 14.759,291.315 15.208,291.776 15.497 C 293.200 16.387,293.442 16.532,293.766 16.687 C 293.939 16.769,294.128 16.896,294.185 16.968 C 294.243 17.040,294.667 17.327,295.128 17.605 C 295.589 17.884,296.061 18.187,296.176 18.279 C 296.291 18.372,297.376 19.162,298.586 20.036 C 299.796 20.910,300.880 21.733,300.995 21.865 C 301.111 21.998,301.676 22.480,302.252 22.937 C 304.610 24.809,308.364 28.563,310.967 31.651 C 312.468 33.432,315.767 37.882,315.767 38.126 C 315.767 38.246,315.847 38.345,315.943 38.345 C 316.040 38.345,316.230 38.557,316.365 38.816 C 316.500 39.075,316.797 39.570,317.025 39.916 C 317.253 40.262,317.504 40.686,317.583 40.859 C 317.663 41.032,317.783 41.221,317.852 41.278 C 317.920 41.336,318.089 41.619,318.227 41.907 C 318.364 42.195,318.756 42.902,319.096 43.478 C 320.244 45.424,322.436 50.054,323.410 52.593 C 323.609 53.112,323.904 53.846,324.065 54.224 C 324.226 54.602,324.358 55.043,324.358 55.202 C 324.358 55.362,324.492 55.759,324.656 56.086 C 324.820 56.412,325.115 57.245,325.312 57.936 C 325.509 58.628,325.758 59.424,325.866 59.705 C 325.974 59.986,326.148 60.599,326.252 61.067 C 326.356 61.535,326.582 62.483,326.754 63.174 C 326.925 63.866,327.164 64.903,327.285 65.479 C 327.405 66.056,327.599 66.951,327.716 67.470 C 328.805 72.312,329.474 82.399,329.158 89.230 C 328.940 93.932,328.150 101.738,327.796 102.672 C 327.731 102.844,327.549 103.693,327.393 104.557 C 326.966 106.923,326.141 110.766,325.843 111.775 C 325.739 112.127,325.498 112.981,325.307 113.672 C 325.116 114.364,324.863 115.212,324.744 115.558 C 324.624 115.904,324.451 116.517,324.358 116.920 C 324.266 117.323,324.073 117.983,323.930 118.387 C 323.293 120.185,323.134 120.655,322.796 121.739 C 322.599 122.373,322.357 123.080,322.259 123.311 C 321.376 125.386,321.215 125.811,321.215 126.064 C 321.215 126.224,321.124 126.518,321.013 126.718 C 320.902 126.919,320.614 127.554,320.373 128.130 C 319.504 130.208,319.602 130.118,318.194 130.141 C 316.178 130.174,316.116 130.219,314.583 132.740 C 311.759 137.382,308.648 140.545,305.500 141.971 C 302.429 143.363,301.029 143.270,302.154 141.750 C 302.239 141.634,302.379 141.213,302.464 140.814 C 302.550 140.414,302.691 139.943,302.778 139.766 C 303.810 137.673,304.030 133.061,303.166 131.650 C 301.873 129.539,297.569 129.512,294.735 131.597 C 293.845 132.252,291.671 134.992,291.671 135.460 C 291.671 135.616,291.600 135.774,291.514 135.813 C 291.373 135.876,290.600 137.527,290.206 138.607 C 289.225 141.300,289.248 145.836,290.243 145.836 C 290.337 145.836,290.414 145.958,290.414 146.109 C 290.414 146.467,291.546 147.530,292.666 148.223 C 293.156 148.526,293.557 148.822,293.557 148.881 C 293.557 149.057,292.589 150.516,292.115 151.054 C 291.871 151.330,291.671 151.614,291.671 151.684 C 291.671 151.754,291.459 152.047,291.200 152.335 C 290.940 152.623,290.351 153.327,289.890 153.900 C 287.855 156.429,280.821 163.117,279.359 163.912 C 276.268 165.595,274.332 164.527,274.128 161.027 C 273.994 158.717,274.759 154.296,276.013 150.131 C 276.187 149.555,276.486 148.565,276.677 147.931 C 276.869 147.297,277.110 146.448,277.213 146.045 C 277.428 145.208,277.926 143.515,278.230 142.588 C 278.427 141.987,278.591 141.434,279.415 138.607 C 279.617 137.915,279.877 137.114,279.994 136.826 C 280.110 136.537,280.281 135.972,280.375 135.568 C 280.468 135.165,280.689 134.364,280.865 133.787 C 281.555 131.534,281.809 130.477,281.701 130.302 C 281.410 129.831,278.674 130.111,277.569 130.726 C 276.970 131.059,276.071 131.554,275.572 131.826 C 275.072 132.098,274.129 132.619,273.476 132.984 C 272.823 133.349,271.865 133.865,271.346 134.132 C 270.828 134.398,270.043 134.836,269.602 135.105 C 268.682 135.666,268.371 135.538,267.898 134.406 C 267.079 132.446,264.021 130.432,261.316 130.070 C 259.608 129.842,255.953 130.134,255.557 130.530 C 255.436 130.651,255.112 130.749,254.836 130.749 C 254.560 130.749,254.084 130.877,253.778 131.034 C 253.472 131.191,252.562 131.633,251.755 132.016 C 250.948 132.398,249.883 132.977,249.387 133.302 C 248.892 133.626,248.433 133.892,248.368 133.892 C 248.265 133.892,247.213 134.642,245.052 136.254 C 241.940 138.576,237.422 144.222,235.703 147.936 C 234.778 149.935,234.493 150.619,234.264 151.388 C 234.126 151.849,233.917 152.509,233.798 152.855 C 233.679 153.201,233.511 154.006,233.424 154.645 C 233.185 156.410,232.246 157.675,229.152 160.398 C 227.751 161.631,225.820 163.185,225.144 163.623 C 224.683 163.921,224.258 164.230,224.199 164.308 C 224.140 164.387,223.834 164.516,223.518 164.595 C 223.202 164.674,222.944 164.813,222.944 164.902 C 222.944 164.992,222.590 165.132,222.158 165.213 C 221.726 165.294,221.246 165.464,221.092 165.591 C 220.920 165.734,219.747 165.826,218.054 165.831 C 215.203 165.840,215.165 165.832,212.896 164.730 C 212.143 164.365,209.904 162.306,209.666 161.760 C 209.590 161.587,209.294 161.030,209.007 160.522 C 208.721 160.014,208.486 159.510,208.486 159.402 C 208.486 159.293,208.352 158.907,208.188 158.544 C 207.621 157.287,207.653 156.316,208.266 156.188 C 208.560 156.127,208.954 155.995,209.141 155.895 C 209.329 155.794,209.825 155.648,210.244 155.569 C 210.662 155.491,211.057 155.343,211.120 155.241 C 211.183 155.139,211.394 155.055,211.589 155.054 C 211.961 155.053,214.266 154.165,214.498 153.933 C 214.572 153.858,214.841 153.798,215.096 153.798 C 215.350 153.798,215.676 153.656,215.820 153.483 C 215.963 153.311,216.245 153.169,216.446 153.169 C 216.829 153.169,220.220 151.476,221.670 150.561 C 222.135 150.267,222.570 150.026,222.634 150.026 C 222.699 150.026,222.893 149.908,223.065 149.764 C 223.580 149.333,223.839 149.122,224.932 148.245 C 227.258 146.380,228.365 144.873,229.531 141.986 C 229.906 141.057,229.999 136.937,229.649 136.721 C 229.534 136.650,229.439 136.442,229.439 136.260 C 229.439 134.415,226.477 131.721,223.153 130.543 C 222.101 130.170,217.836 130.028,216.448 130.320 C 213.907 130.854,213.588 130.934,212.769 131.240 C 211.473 131.724,208.184 133.569,207.514 134.187 C 207.377 134.313,206.952 134.652,206.568 134.940 C 204.776 136.287,201.109 140.448,199.639 142.801 C 198.819 144.115,197.800 146.079,197.800 146.347 C 197.800 146.481,197.690 146.700,197.555 146.835 C 197.307 147.083,196.867 148.154,196.547 149.293 C 196.450 149.639,196.275 150.204,196.159 150.550 C 195.683 151.970,195.285 154.040,195.285 155.100 C 195.285 156.458,194.713 157.113,189.733 161.453 C 183.758 166.658,179.624 167.718,176.816 164.764 C 175.987 163.891,175.170 162.425,175.170 161.810 C 175.170 161.598,175.070 161.325,174.948 161.202 C 174.618 160.872,174.464 156.867,174.639 153.148 L 174.792 149.878 176.787 147.595 C 179.457 144.537,182.085 141.287,182.085 141.041 C 182.085 140.931,182.159 140.810,182.249 140.772 C 182.592 140.626,186.492 135.116,186.970 134.102 C 187.052 133.929,187.302 133.504,187.528 133.159 C 187.753 132.813,188.180 132.059,188.477 131.482 C 188.774 130.906,189.101 130.293,189.204 130.120 C 189.641 129.386,191.304 125.790,191.304 125.579 C 191.304 125.453,191.445 125.079,191.617 124.749 C 191.790 124.419,191.931 123.989,191.932 123.794 C 191.932 123.600,192.017 123.388,192.119 123.325 C 192.221 123.262,192.369 122.868,192.447 122.449 C 192.526 122.030,192.672 121.534,192.771 121.347 C 193.004 120.907,193.387 119.404,193.606 118.072 C 193.700 117.496,193.876 116.600,193.996 116.082 C 194.116 115.563,194.323 113.673,194.455 111.882 C 195.056 103.739,193.050 99.248,189.570 100.949 C 188.813 101.319,187.668 101.784,187.218 101.903 C 186.988 101.965,186.375 102.165,185.856 102.349 C 184.959 102.667,184.707 102.769,183.237 103.408 C 182.892 103.559,182.420 103.729,182.190 103.788 C 181.959 103.846,181.252 104.098,180.618 104.348 C 179.984 104.598,179.183 104.877,178.837 104.967 C 177.516 105.313,177.031 105.683,176.511 106.744 C 176.225 107.328,175.907 107.947,175.804 108.119 C 175.610 108.445,174.245 111.333,173.080 113.882 C 172.367 115.441,172.297 115.602,171.608 117.234 C 170.951 118.793,170.853 119.034,170.462 120.063 C 170.264 120.581,169.973 121.289,169.815 121.634 C 169.657 121.980,169.466 122.523,169.392 122.841 C 169.318 123.159,169.173 123.471,169.071 123.535 C 168.968 123.598,168.884 123.859,168.884 124.115 C 168.884 124.370,168.757 124.765,168.600 124.993 C 168.444 125.220,168.265 125.642,168.203 125.930 C 168.076 126.509,167.707 127.570,167.278 128.581 C 167.124 128.944,166.998 129.381,166.998 129.552 C 166.998 129.723,166.858 130.133,166.685 130.463 C 166.513 130.793,166.372 131.230,166.371 131.433 C 166.370 131.636,166.283 131.966,166.178 132.166 C 165.861 132.768,165.113 135.253,165.113 135.705 C 165.113 135.937,165.042 136.198,164.956 136.284 C 164.806 136.434,164.505 137.507,164.042 139.550 C 163.924 140.068,163.770 140.634,163.699 140.807 C 163.554 141.157,163.057 143.292,162.893 144.264 C 162.835 144.610,162.656 145.506,162.496 146.255 C 160.959 153.447,160.771 161.251,162.029 165.656 C 163.095 169.390,166.530 173.391,169.224 174.036 C 169.556 174.115,169.959 174.285,170.121 174.413 C 170.980 175.094,177.583 174.568,179.201 173.691 C 179.401 173.583,179.674 173.494,179.808 173.494 C 180.037 173.494,182.540 172.308,183.447 171.769 C 184.621 171.072,186.179 170.018,186.241 169.880 C 186.279 169.793,186.404 169.722,186.518 169.722 C 186.714 169.722,188.990 168.059,189.591 167.476 C 189.743 167.329,189.932 167.208,190.010 167.207 C 190.088 167.206,190.489 166.900,190.902 166.526 C 192.114 165.427,194.088 163.717,194.700 163.237 L 195.267 162.792 195.590 163.418 C 195.768 163.762,195.917 164.261,195.921 164.526 C 195.924 164.791,196.066 165.191,196.235 165.415 C 196.404 165.638,196.543 165.955,196.543 166.118 C 196.543 166.281,196.826 166.833,197.171 167.345 C 197.517 167.858,197.800 168.368,197.800 168.479 C 197.800 168.820,201.311 172.237,201.661 172.237 C 201.842 172.237,201.991 172.314,201.991 172.409 C 201.991 172.627,204.451 173.752,205.972 174.230 C 207.404 174.680,212.024 174.882,213.934 174.578 C 215.842 174.275,217.328 173.931,217.755 173.695 C 217.955 173.584,218.228 173.494,218.362 173.494 C 219.450 173.494,226.068 169.409,228.205 167.417 C 228.391 167.245,229.098 166.617,229.777 166.024 C 230.456 165.430,231.384 164.615,231.839 164.213 C 232.935 163.245,233.408 163.497,233.418 165.053 C 233.419 165.309,233.575 165.874,233.764 166.310 C 233.953 166.746,234.207 167.339,234.329 167.627 C 235.221 169.740,238.334 173.494,239.193 173.494 C 239.360 173.494,239.497 173.588,239.497 173.704 C 239.497 173.819,239.615 173.914,239.759 173.914 C 239.903 173.915,240.304 174.074,240.650 174.268 C 243.082 175.633,249.216 174.198,252.470 171.503 C 253.600 170.568,255.126 169.212,255.422 168.881 C 255.595 168.687,256.369 167.831,257.143 166.978 C 257.917 166.125,259.202 164.558,259.998 163.497 C 261.559 161.415,261.708 161.349,261.708 162.747 C 261.708 165.470,262.901 170.517,263.824 171.700 C 267.016 175.788,271.905 175.817,277.371 171.778 C 278.738 170.769,283.807 166.442,285.195 165.100 C 285.725 164.588,286.958 163.395,287.937 162.448 C 292.090 158.428,298.167 150.913,298.167 149.795 C 298.167 149.543,299.189 149.053,300.052 148.892 C 300.870 148.740,302.865 148.174,303.510 147.911 C 306.029 146.884,306.084 146.882,305.506 147.817 C 305.259 148.216,304.916 148.805,304.743 149.127 C 304.571 149.449,304.251 149.995,304.034 150.340 C 303.641 150.967,301.615 154.993,301.293 155.788 C 301.199 156.019,300.929 156.650,300.692 157.191 C 300.456 157.732,300.262 158.316,300.262 158.488 C 300.262 158.661,300.175 158.856,300.069 158.921 C 299.962 158.987,299.813 159.346,299.737 159.720 C 299.661 160.093,299.515 160.681,299.413 161.027 C 299.310 161.372,299.174 161.999,299.110 162.419 C 299.046 162.839,298.735 163.509,298.418 163.908 C 293.400 170.222,285.968 177.352,279.728 181.840 C 278.748 182.544,277.833 183.218,277.693 183.336 C 277.554 183.455,277.385 183.552,277.318 183.552 C 277.204 183.552,275.975 184.370,275.746 184.599 C 275.600 184.746,274.884 185.188,274.384 185.441 C 274.154 185.558,273.683 185.839,273.337 186.066 C 272.991 186.293,272.520 186.577,272.289 186.697 C 272.059 186.817,271.304 187.243,270.613 187.643 C 269.303 188.403,264.971 190.563,262.441 191.719 C 260.722 192.504,260.534 192.583,258.879 193.214 C 258.188 193.477,257.532 193.768,257.423 193.861 C 257.313 193.953,257.092 194.028,256.931 194.028 C 256.769 194.028,256.340 194.161,255.977 194.324 C 255.614 194.487,254.704 194.820,253.955 195.064 C 253.206 195.308,252.404 195.588,252.174 195.686 C 251.943 195.785,251.189 196.030,250.498 196.232 C 249.806 196.433,248.910 196.715,248.507 196.858 C 247.583 197.186,245.357 197.780,243.140 198.292 C 242.435 198.454,241.539 198.682,241.149 198.797 C 240.759 198.912,239.686 199.166,238.764 199.361 C 237.842 199.555,236.644 199.810,236.103 199.926 C 235.078 200.147,233.979 200.331,231.325 200.728 C 230.461 200.858,229.302 201.063,228.750 201.184 C 227.739 201.407,227.298 201.459,220.639 202.139 C 215.265 202.689,192.986 202.689,187.428 202.140 C 181.388 201.543,180.240 201.414,178.872 201.176 C 178.161 201.053,176.684 200.808,175.589 200.631 C 174.494 200.455,173.080 200.210,172.446 200.088 C 171.812 199.966,170.822 199.792,170.246 199.702 C 169.670 199.611,168.774 199.432,168.256 199.302 C 167.737 199.173,166.888 198.965,166.370 198.841 C 165.851 198.717,164.861 198.476,164.170 198.305 C 163.478 198.135,162.677 197.943,162.389 197.879 C 161.076 197.590,155.818 195.967,154.919 195.574 C 154.555 195.415,154.113 195.285,153.936 195.285 C 153.758 195.285,153.561 195.202,153.498 195.099 C 153.435 194.997,153.123 194.849,152.804 194.772 C 151.692 194.501,147.530 192.452,145.908 191.377 C 144.184 190.235,142.265 188.022,140.667 185.333 C 140.394 184.873,138.361 180.766,138.075 180.094 C 137.976 179.864,137.694 179.157,137.447 178.523 C 137.201 177.889,136.913 177.207,136.808 177.007 C 136.702 176.806,136.615 176.476,136.615 176.273 C 136.614 176.070,136.481 175.651,136.320 175.342 C 136.159 175.032,135.960 174.467,135.878 174.084 C 135.796 173.702,135.658 173.295,135.571 173.180 C 135.485 173.064,135.346 172.593,135.263 172.132 C 135.180 171.671,135.038 171.200,134.947 171.084 C 134.857 170.969,134.735 170.592,134.677 170.246 C 134.619 169.900,134.363 168.863,134.108 167.941 C 133.853 167.019,133.571 165.841,133.483 165.322 C 133.394 164.804,133.219 163.955,133.093 163.436 C 132.863 162.492,132.465 160.540,131.983 157.988 C 131.841 157.239,131.660 156.061,131.581 155.369 C 131.501 154.678,131.334 153.405,131.210 152.541 C 130.830 149.909,130.348 145.424,130.220 143.321 C 130.153 142.226,130.012 140.199,129.907 138.816 C 129.655 135.526,129.662 125.723,129.919 122.263 C 130.030 120.765,130.207 118.313,130.312 116.815 C 130.494 114.205,130.739 112.027,131.207 108.853 C 131.326 108.046,131.490 106.773,131.573 106.024 C 131.756 104.364,132.476 100.514,133.103 97.852 C 133.225 97.334,133.401 96.485,133.493 95.966 C 133.586 95.448,133.817 94.411,134.006 93.662 C 134.196 92.913,134.461 91.811,134.596 91.214 C 134.731 90.617,134.911 90.059,134.995 89.974 C 135.080 89.889,135.149 89.648,135.149 89.437 C 135.149 89.226,135.326 88.511,135.541 87.848 C 135.757 87.185,136.100 86.076,136.304 85.385 C 136.508 84.694,136.746 83.939,136.833 83.709 C 136.921 83.478,137.433 82.064,137.972 80.566 C 139.948 75.075,142.868 68.573,145.076 64.746 C 145.376 64.227,145.687 63.662,145.768 63.489 C 146.400 62.138,151.456 54.360,152.276 53.477 C 152.418 53.323,152.978 52.614,153.521 51.900 C 156.874 47.493,162.074 42.114,167.942 36.985 C 168.863 36.179,169.665 35.472,169.722 35.413 C 169.780 35.354,170.299 34.932,170.875 34.475 C 171.451 34.018,171.970 33.589,172.027 33.521 C 172.085 33.452,172.933 32.793,173.913 32.055 C 174.893 31.317,175.800 30.615,175.930 30.495 C 176.060 30.376,176.378 30.136,176.636 29.963 C 177.088 29.660,177.985 28.998,178.418 28.648 C 178.930 28.234,183.154 25.366,184.360 24.613 C 185.093 24.156,185.941 23.618,186.246 23.419 C 186.550 23.219,186.988 22.958,187.218 22.839 C 187.449 22.721,187.920 22.438,188.266 22.211 C 188.612 21.984,189.083 21.701,189.314 21.582 C 189.544 21.464,190.063 21.167,190.466 20.923 C 192.959 19.413,200.364 15.667,203.038 14.562 C 203.787 14.253,204.490 13.914,204.599 13.810 C 204.709 13.705,204.960 13.620,205.159 13.620 C 205.357 13.620,205.786 13.487,206.112 13.325 C 206.438 13.163,206.941 12.933,207.229 12.814 C 207.517 12.696,208.213 12.404,208.775 12.166 C 209.337 11.929,209.915 11.734,210.060 11.734 C 210.205 11.734,210.594 11.593,210.924 11.421 C 211.254 11.249,211.671 11.107,211.849 11.107 C 212.028 11.106,212.263 11.029,212.373 10.935 C 212.482 10.842,213.279 10.550,214.144 10.288 C 215.008 10.026,215.904 9.733,216.134 9.638 C 216.365 9.543,216.930 9.369,217.391 9.253 C 217.852 9.136,218.748 8.885,219.382 8.695 C 220.016 8.505,220.959 8.259,221.477 8.147 C 221.996 8.036,222.584 7.855,222.784 7.744 C 222.984 7.634,223.355 7.543,223.608 7.543 C 223.862 7.543,224.594 7.411,225.235 7.250 C 226.311 6.980,227.724 6.679,230.697 6.087 C 231.331 5.961,232.679 5.768,233.693 5.659 C 234.707 5.549,235.622 5.407,235.727 5.342 C 235.831 5.278,237.218 5.125,238.807 5.004 C 240.397 4.883,242.452 4.705,243.373 4.609 C 245.551 4.383,253.800 4.504,256.888 4.807 M187.952 106.792 C 187.212 107.006,185.558 109.751,184.290 112.868 C 183.876 113.886,183.446 114.908,183.335 115.139 C 183.018 115.798,182.066 118.425,181.890 119.125 C 181.803 119.473,181.622 119.962,181.489 120.211 C 181.356 120.460,181.246 120.835,181.245 121.044 C 181.245 121.254,181.103 121.695,180.931 122.025 C 180.759 122.355,180.618 122.776,180.618 122.961 C 180.618 123.146,180.486 123.677,180.325 124.142 C 180.163 124.607,179.872 125.600,179.678 126.349 C 179.483 127.098,179.201 128.182,179.051 128.759 C 178.901 129.335,178.634 130.372,178.457 131.063 C 178.280 131.755,178.026 132.735,177.893 133.241 C 177.759 133.747,177.567 134.596,177.466 135.127 C 177.365 135.658,177.146 136.705,176.979 137.454 C 176.175 141.065,176.150 141.241,176.398 141.489 C 176.672 141.764,177.120 141.301,179.088 138.711 C 179.745 137.847,180.335 137.093,180.398 137.035 C 181.595 135.948,187.533 125.084,187.533 123.981 C 187.533 123.831,187.621 123.619,187.728 123.510 C 187.916 123.319,189.113 119.824,189.591 118.072 C 191.449 111.264,190.684 106.002,187.952 106.792 M189.454 107.419 C 189.665 107.609,189.838 107.920,189.838 108.110 C 189.838 108.300,189.940 108.557,190.064 108.681 C 190.608 109.225,190.051 115.459,189.207 118.282 C 188.966 119.089,188.691 120.031,188.597 120.377 C 188.502 120.723,188.327 121.241,188.208 121.530 C 188.089 121.818,187.788 122.572,187.541 123.206 C 186.846 124.986,185.617 127.759,185.219 128.444 C 185.118 128.617,184.679 129.466,184.242 130.330 C 183.805 131.194,183.394 131.949,183.330 132.006 C 183.265 132.064,182.769 132.848,182.226 133.748 C 181.684 134.648,180.381 136.523,179.331 137.913 C 176.657 141.454,176.268 141.792,176.679 140.220 C 176.790 139.794,176.955 139.020,177.044 138.502 C 177.223 137.466,177.561 136.040,178.017 134.398 C 178.180 133.811,178.313 133.074,178.313 132.760 C 178.313 132.445,178.425 131.982,178.561 131.731 C 178.698 131.479,178.883 130.896,178.972 130.435 C 179.320 128.639,179.736 127.033,179.962 126.610 C 180.092 126.366,180.199 125.883,180.199 125.537 C 180.199 125.190,180.285 124.854,180.390 124.789 C 180.496 124.724,180.649 124.274,180.731 123.789 C 180.812 123.304,180.955 122.763,181.048 122.585 C 181.141 122.408,181.426 121.556,181.681 120.691 C 181.935 119.827,182.272 118.823,182.429 118.460 C 182.585 118.097,182.713 117.668,182.713 117.506 C 182.713 117.345,182.792 117.124,182.888 117.014 C 182.985 116.905,183.232 116.344,183.439 115.767 C 184.706 112.231,186.490 108.641,187.524 107.543 C 188.048 106.987,188.916 106.931,189.454 107.419 M258.201 134.505 C 255.438 135.447,251.796 139.517,249.976 143.699 C 249.860 143.965,249.518 144.719,249.214 145.376 C 248.911 146.032,248.587 146.757,248.494 146.988 C 248.402 147.218,248.188 147.737,248.019 148.140 C 246.884 150.849,245.783 155.955,245.783 158.511 C 245.783 165.018,251.232 167.173,256.065 162.577 C 256.791 161.887,258.774 159.390,258.774 159.167 C 258.774 159.107,259.045 158.652,259.376 158.156 C 260.707 156.165,262.938 151.067,263.806 148.036 C 264.765 144.684,265.179 138.883,264.552 137.563 C 264.371 137.180,264.222 136.761,264.222 136.631 C 264.222 136.502,263.821 135.995,263.332 135.506 C 261.929 134.106,260.303 133.789,258.201 134.505 M214.930 134.509 C 213.646 134.920,212.117 136.311,210.423 138.608 C 210.286 138.793,209.553 140.116,209.088 141.016 C 208.875 141.428,208.409 142.610,208.096 143.531 C 207.246 146.033,206.601 151.756,207.093 152.429 C 207.327 152.748,207.471 152.735,208.912 152.256 C 216.089 149.873,220.008 145.338,220.012 139.412 C 220.014 135.413,218.044 133.513,214.930 134.509 M261.341 134.655 C 264.363 135.155,265.584 141.138,263.811 146.759 C 263.699 147.115,263.453 147.973,263.264 148.664 C 262.005 153.280,258.845 159.180,256.092 162.054 C 251.064 167.303,245.342 164.466,246.240 157.169 C 246.697 153.455,247.165 151.089,247.512 150.742 C 247.598 150.656,247.670 150.389,247.670 150.148 C 247.671 149.908,247.812 149.442,247.985 149.112 C 248.157 148.782,248.298 148.429,248.298 148.327 C 248.298 148.018,248.974 146.496,250.192 144.066 C 253.810 136.850,257.217 133.974,261.341 134.655 M218.490 135.311 C 218.848 135.630,219.208 136.172,219.290 136.516 C 219.372 136.859,219.528 137.252,219.635 137.389 C 220.283 138.214,219.398 143.315,218.315 144.997 C 218.204 145.170,218.057 145.477,217.989 145.678 C 217.922 145.880,217.783 146.045,217.681 146.045 C 217.579 146.045,217.496 146.159,217.496 146.297 C 217.496 146.566,214.810 149.188,214.534 149.188 C 214.445 149.188,214.014 149.432,213.577 149.730 C 212.238 150.643,209.092 152.027,207.805 152.270 L 207.229 152.379 207.229 150.731 C 207.228 147.271,208.840 141.158,210.110 139.800 C 210.254 139.646,210.372 139.393,210.372 139.238 C 210.372 139.083,210.443 138.924,210.529 138.886 C 210.616 138.848,210.952 138.425,211.276 137.947 C 213.277 135.000,216.729 133.738,218.490 135.311 " stroke="none" fill="#7c716c" fill-rule="evenodd"></path></g></svg>